M48
; DRILL file {KiCad (5.1.8)-1} date 11/19/22 17:45:36
; FORMAT={-:-/ absolute / metric / decimal}
; #@! TF.CreationDate,2022-11-19T17:45:36-05:00
; #@! TF.GenerationSoftware,Kicad,Pcbnew,(5.1.8)-1
; #@! TF.FileFunction,Plated,1,2,PTH
FMAT,2
METRIC
T1C0.400
T2C1.000
T3C1.200
T4C2.500
%
G90
G05
T1
X102.4Y-58.7
X102.4Y-60.1
X102.4Y-61.5
X104.1Y-74.4
X104.1Y-76.4
X107.3Y-60.4
X107.5Y-92.7
X109.4Y-80.7
X109.4Y-83.2
X109.6Y-52.1
X109.6Y-56.7
X110.3Y-97.2
X110.9Y-59.9
X111.1Y-56.7
X112.0Y-59.9
X112.0Y-91.4
X112.6Y-56.6
X113.2Y-51.6
X113.2Y-68.2
X113.9Y-83.6
X114.0Y-81.1
X114.0Y-97.8
X115.2Y-68.1
X115.5Y-56.8
X116.0Y-51.4
X116.8Y-62.7
X116.8Y-97.8
X117.0Y-70.3
X117.3Y-73.9
X117.5Y-81.5
X117.9Y-86.0
X118.6Y-56.9
X118.6Y-62.4
X119.5Y-81.1
X119.8Y-85.9
X120.1Y-52.5
X120.3Y-69.9
X120.3Y-70.9
X120.6Y-74.3
X120.8Y-54.3
X120.8Y-68.9
X121.3Y-69.9
X121.3Y-70.9
X121.3Y-82.8
X122.1Y-56.5
X122.5Y-65.5
X122.5Y-73.7
X122.5Y-79.9
X122.6Y-67.1
X123.7Y-74.8
X123.7Y-76.5
X123.7Y-81.7
X125.3Y-86.8
X125.3Y-87.9
X125.5Y-56.5
X125.9Y-84.482
X126.1Y-70.2
X127.2Y-87.8
X128.4Y-87.8
X128.7Y-51.8
X128.8Y-54.4
X128.8Y-56.5
X128.9Y-62.5
X129.4Y-63.5
X129.4Y-88.4
X129.9Y-79.0
X131.5Y-96.5
X132.6Y-79.0
X132.7Y-54.9
X132.7Y-55.9
X132.7Y-56.9
X132.7Y-57.9
X133.0Y-61.1
X133.9Y-68.7
X134.3Y-61.1
X135.1Y-73.3
X135.1Y-75.0
X135.4Y-96.4
X138.0Y-83.5
X138.7Y-89.8
X138.8Y-85.9
X139.1Y-58.3
X139.2Y-96.3
X139.3Y-51.9
X139.3Y-55.1
X139.4Y-94.1
X140.1Y-84.2
X140.2Y-86.0
X140.3Y-89.6
X140.4Y-87.5
X140.4Y-94.8
X141.3Y-95.9
X141.4Y-65.3
X141.5Y-75.2
X141.5Y-94.1
X142.1Y-76.5
X142.3Y-58.3
X142.4Y-60.7
X142.4Y-62.2
X142.7Y-75.0
X142.8Y-73.2
X143.6Y-86.1
X144.6Y-73.6
X144.7Y-92.0
X144.87Y-62.13
X144.9Y-60.7
X145.9Y-72.9
X145.9Y-74.1
X146.3Y-71.0
X146.3Y-92.0
X146.7Y-65.2
X146.9Y-60.8
X146.9Y-62.0
X146.9Y-79.7
X148.0Y-78.8
X148.3Y-91.7
X148.4Y-85.8
X148.5Y-57.6
T2
X125.0Y-63.76
X125.0Y-66.3
T3
X113.1Y-94.6
X116.1Y-94.6
X119.1Y-94.6
X122.0Y-94.6
X125.0Y-94.6
X128.0Y-94.6
X131.0Y-94.7
X134.0Y-94.7
X137.0Y-94.7
X122.0Y-97.4
X125.0Y-97.4
X128.0Y-97.4
T4
X146.0Y-83.0
X104.0Y-83.0
X146.0Y-88.9
X104.0Y-89.0
T2
X124.0Y-53.5G85X126.0Y-53.5
G05
X123.75Y-59.5G85X126.25Y-59.5
G05
T0
M30
