G04 #@! TF.GenerationSoftware,KiCad,Pcbnew,(5.1.8)-1*
G04 #@! TF.CreationDate,2022-11-27T15:04:08-05:00*
G04 #@! TF.ProjectId,oc2Clone,6f633243-6c6f-46e6-952e-6b696361645f,rev?*
G04 #@! TF.SameCoordinates,Original*
G04 #@! TF.FileFunction,Legend,Top*
G04 #@! TF.FilePolarity,Positive*
%FSLAX46Y46*%
G04 Gerber Fmt 4.6, Leading zero omitted, Abs format (unit mm)*
G04 Created by KiCad (PCBNEW (5.1.8)-1) date 2022-11-27 15:04:08*
%MOMM*%
%LPD*%
G01*
G04 APERTURE LIST*
%ADD10C,0.100000*%
%ADD11C,0.300000*%
%ADD12C,0.250000*%
%ADD13C,0.120000*%
%ADD14C,0.400000*%
%ADD15C,0.127000*%
%ADD16C,0.050000*%
%ADD17C,0.150000*%
%ADD18R,1.500000X1.600000*%
%ADD19R,1.200000X1.200000*%
%ADD20R,1.460500X0.558800*%
%ADD21R,1.422400X0.558800*%
%ADD22R,0.558800X1.422400*%
%ADD23R,2.000000X2.000000*%
%ADD24C,2.000000*%
%ADD25C,2.200000*%
%ADD26R,0.900000X0.950000*%
%ADD27C,5.000000*%
%ADD28R,0.950000X0.900000*%
%ADD29C,3.200000*%
%ADD30O,5.000000X2.500000*%
%ADD31O,4.500000X2.250000*%
G04 APERTURE END LIST*
D10*
X106183333Y-97426190D02*
X106183333Y-96926190D01*
X106302380Y-96926190D01*
X106373809Y-96950000D01*
X106421428Y-96997619D01*
X106445238Y-97045238D01*
X106469047Y-97140476D01*
X106469047Y-97211904D01*
X106445238Y-97307142D01*
X106421428Y-97354761D01*
X106373809Y-97402380D01*
X106302380Y-97426190D01*
X106183333Y-97426190D01*
X106873809Y-97402380D02*
X106826190Y-97426190D01*
X106730952Y-97426190D01*
X106683333Y-97402380D01*
X106659523Y-97354761D01*
X106659523Y-97164285D01*
X106683333Y-97116666D01*
X106730952Y-97092857D01*
X106826190Y-97092857D01*
X106873809Y-97116666D01*
X106897619Y-97164285D01*
X106897619Y-97211904D01*
X106659523Y-97259523D01*
X107088095Y-97402380D02*
X107135714Y-97426190D01*
X107230952Y-97426190D01*
X107278571Y-97402380D01*
X107302380Y-97354761D01*
X107302380Y-97330952D01*
X107278571Y-97283333D01*
X107230952Y-97259523D01*
X107159523Y-97259523D01*
X107111904Y-97235714D01*
X107088095Y-97188095D01*
X107088095Y-97164285D01*
X107111904Y-97116666D01*
X107159523Y-97092857D01*
X107230952Y-97092857D01*
X107278571Y-97116666D01*
X107516666Y-97426190D02*
X107516666Y-97092857D01*
X107516666Y-96926190D02*
X107492857Y-96950000D01*
X107516666Y-96973809D01*
X107540476Y-96950000D01*
X107516666Y-96926190D01*
X107516666Y-96973809D01*
X107969047Y-97092857D02*
X107969047Y-97497619D01*
X107945238Y-97545238D01*
X107921428Y-97569047D01*
X107873809Y-97592857D01*
X107802380Y-97592857D01*
X107754761Y-97569047D01*
X107969047Y-97402380D02*
X107921428Y-97426190D01*
X107826190Y-97426190D01*
X107778571Y-97402380D01*
X107754761Y-97378571D01*
X107730952Y-97330952D01*
X107730952Y-97188095D01*
X107754761Y-97140476D01*
X107778571Y-97116666D01*
X107826190Y-97092857D01*
X107921428Y-97092857D01*
X107969047Y-97116666D01*
X108207142Y-97092857D02*
X108207142Y-97426190D01*
X108207142Y-97140476D02*
X108230952Y-97116666D01*
X108278571Y-97092857D01*
X108350000Y-97092857D01*
X108397619Y-97116666D01*
X108421428Y-97164285D01*
X108421428Y-97426190D01*
X108850000Y-97402380D02*
X108802380Y-97426190D01*
X108707142Y-97426190D01*
X108659523Y-97402380D01*
X108635714Y-97354761D01*
X108635714Y-97164285D01*
X108659523Y-97116666D01*
X108707142Y-97092857D01*
X108802380Y-97092857D01*
X108850000Y-97116666D01*
X108873809Y-97164285D01*
X108873809Y-97211904D01*
X108635714Y-97259523D01*
X109302380Y-97426190D02*
X109302380Y-96926190D01*
X109302380Y-97402380D02*
X109254761Y-97426190D01*
X109159523Y-97426190D01*
X109111904Y-97402380D01*
X109088095Y-97378571D01*
X109064285Y-97330952D01*
X109064285Y-97188095D01*
X109088095Y-97140476D01*
X109111904Y-97116666D01*
X109159523Y-97092857D01*
X109254761Y-97092857D01*
X109302380Y-97116666D01*
X109921428Y-97426190D02*
X109921428Y-96926190D01*
X109921428Y-97116666D02*
X109969047Y-97092857D01*
X110064285Y-97092857D01*
X110111904Y-97116666D01*
X110135714Y-97140476D01*
X110159523Y-97188095D01*
X110159523Y-97330952D01*
X110135714Y-97378571D01*
X110111904Y-97402380D01*
X110064285Y-97426190D01*
X109969047Y-97426190D01*
X109921428Y-97402380D01*
X110326190Y-97092857D02*
X110445238Y-97426190D01*
X110564285Y-97092857D02*
X110445238Y-97426190D01*
X110397619Y-97545238D01*
X110373809Y-97569047D01*
X110326190Y-97592857D01*
X111064285Y-96926190D02*
X111350000Y-96926190D01*
X111207142Y-97426190D02*
X111207142Y-96926190D01*
X111516666Y-97378571D02*
X111540476Y-97402380D01*
X111516666Y-97426190D01*
X111492857Y-97402380D01*
X111516666Y-97378571D01*
X111516666Y-97426190D01*
X112111904Y-97402380D02*
X112183333Y-97426190D01*
X112302380Y-97426190D01*
X112350000Y-97402380D01*
X112373809Y-97378571D01*
X112397619Y-97330952D01*
X112397619Y-97283333D01*
X112373809Y-97235714D01*
X112350000Y-97211904D01*
X112302380Y-97188095D01*
X112207142Y-97164285D01*
X112159523Y-97140476D01*
X112135714Y-97116666D01*
X112111904Y-97069047D01*
X112111904Y-97021428D01*
X112135714Y-96973809D01*
X112159523Y-96950000D01*
X112207142Y-96926190D01*
X112326190Y-96926190D01*
X112397619Y-96950000D01*
X112564285Y-97092857D02*
X112659523Y-97426190D01*
X112754761Y-97188095D01*
X112850000Y-97426190D01*
X112945238Y-97092857D01*
X113326190Y-97402380D02*
X113278571Y-97426190D01*
X113183333Y-97426190D01*
X113135714Y-97402380D01*
X113111904Y-97354761D01*
X113111904Y-97164285D01*
X113135714Y-97116666D01*
X113183333Y-97092857D01*
X113278571Y-97092857D01*
X113326190Y-97116666D01*
X113350000Y-97164285D01*
X113350000Y-97211904D01*
X113111904Y-97259523D01*
X113754761Y-97402380D02*
X113707142Y-97426190D01*
X113611904Y-97426190D01*
X113564285Y-97402380D01*
X113540476Y-97354761D01*
X113540476Y-97164285D01*
X113564285Y-97116666D01*
X113611904Y-97092857D01*
X113707142Y-97092857D01*
X113754761Y-97116666D01*
X113778571Y-97164285D01*
X113778571Y-97211904D01*
X113540476Y-97259523D01*
X113992857Y-97092857D02*
X113992857Y-97426190D01*
X113992857Y-97140476D02*
X114016666Y-97116666D01*
X114064285Y-97092857D01*
X114135714Y-97092857D01*
X114183333Y-97116666D01*
X114207142Y-97164285D01*
X114207142Y-97426190D01*
X114635714Y-97402380D02*
X114588095Y-97426190D01*
X114492857Y-97426190D01*
X114445238Y-97402380D01*
X114421428Y-97354761D01*
X114421428Y-97164285D01*
X114445238Y-97116666D01*
X114492857Y-97092857D01*
X114588095Y-97092857D01*
X114635714Y-97116666D01*
X114659523Y-97164285D01*
X114659523Y-97211904D01*
X114421428Y-97259523D01*
X114826190Y-97092857D02*
X114945238Y-97426190D01*
X115064285Y-97092857D02*
X114945238Y-97426190D01*
X114897619Y-97545238D01*
X114873809Y-97569047D01*
X114826190Y-97592857D01*
X106250000Y-96126190D02*
X106345238Y-96126190D01*
X106392857Y-96150000D01*
X106440476Y-96197619D01*
X106464285Y-96292857D01*
X106464285Y-96459523D01*
X106440476Y-96554761D01*
X106392857Y-96602380D01*
X106345238Y-96626190D01*
X106250000Y-96626190D01*
X106202380Y-96602380D01*
X106154761Y-96554761D01*
X106130952Y-96459523D01*
X106130952Y-96292857D01*
X106154761Y-96197619D01*
X106202380Y-96150000D01*
X106250000Y-96126190D01*
X106892857Y-96602380D02*
X106845238Y-96626190D01*
X106750000Y-96626190D01*
X106702380Y-96602380D01*
X106678571Y-96578571D01*
X106654761Y-96530952D01*
X106654761Y-96388095D01*
X106678571Y-96340476D01*
X106702380Y-96316666D01*
X106750000Y-96292857D01*
X106845238Y-96292857D01*
X106892857Y-96316666D01*
X107035714Y-96292857D02*
X107226190Y-96292857D01*
X107107142Y-96126190D02*
X107107142Y-96554761D01*
X107130952Y-96602380D01*
X107178571Y-96626190D01*
X107226190Y-96626190D01*
X107607142Y-96626190D02*
X107607142Y-96364285D01*
X107583333Y-96316666D01*
X107535714Y-96292857D01*
X107440476Y-96292857D01*
X107392857Y-96316666D01*
X107607142Y-96602380D02*
X107559523Y-96626190D01*
X107440476Y-96626190D01*
X107392857Y-96602380D01*
X107369047Y-96554761D01*
X107369047Y-96507142D01*
X107392857Y-96459523D01*
X107440476Y-96435714D01*
X107559523Y-96435714D01*
X107607142Y-96411904D01*
X107797619Y-96292857D02*
X107916666Y-96626190D01*
X108035714Y-96292857D01*
X108416666Y-96602380D02*
X108369047Y-96626190D01*
X108273809Y-96626190D01*
X108226190Y-96602380D01*
X108202380Y-96554761D01*
X108202380Y-96364285D01*
X108226190Y-96316666D01*
X108273809Y-96292857D01*
X108369047Y-96292857D01*
X108416666Y-96316666D01*
X108440476Y-96364285D01*
X108440476Y-96411904D01*
X108202380Y-96459523D01*
X109035714Y-96626190D02*
X109035714Y-96126190D01*
X109226190Y-96126190D01*
X109273809Y-96150000D01*
X109297619Y-96173809D01*
X109321428Y-96221428D01*
X109321428Y-96292857D01*
X109297619Y-96340476D01*
X109273809Y-96364285D01*
X109226190Y-96388095D01*
X109035714Y-96388095D01*
X109726190Y-96602380D02*
X109678571Y-96626190D01*
X109583333Y-96626190D01*
X109535714Y-96602380D01*
X109511904Y-96554761D01*
X109511904Y-96364285D01*
X109535714Y-96316666D01*
X109583333Y-96292857D01*
X109678571Y-96292857D01*
X109726190Y-96316666D01*
X109750000Y-96364285D01*
X109750000Y-96411904D01*
X109511904Y-96459523D01*
X110178571Y-96626190D02*
X110178571Y-96126190D01*
X110178571Y-96602380D02*
X110130952Y-96626190D01*
X110035714Y-96626190D01*
X109988095Y-96602380D01*
X109964285Y-96578571D01*
X109940476Y-96530952D01*
X109940476Y-96388095D01*
X109964285Y-96340476D01*
X109988095Y-96316666D01*
X110035714Y-96292857D01*
X110130952Y-96292857D01*
X110178571Y-96316666D01*
X110630952Y-96626190D02*
X110630952Y-96364285D01*
X110607142Y-96316666D01*
X110559523Y-96292857D01*
X110464285Y-96292857D01*
X110416666Y-96316666D01*
X110630952Y-96602380D02*
X110583333Y-96626190D01*
X110464285Y-96626190D01*
X110416666Y-96602380D01*
X110392857Y-96554761D01*
X110392857Y-96507142D01*
X110416666Y-96459523D01*
X110464285Y-96435714D01*
X110583333Y-96435714D01*
X110630952Y-96411904D01*
X110940476Y-96626190D02*
X110892857Y-96602380D01*
X110869047Y-96554761D01*
X110869047Y-96126190D01*
X111464285Y-96292857D02*
X111583333Y-96626190D01*
X111702380Y-96292857D01*
X111988095Y-96126190D02*
X112035714Y-96126190D01*
X112083333Y-96150000D01*
X112107142Y-96173809D01*
X112130952Y-96221428D01*
X112154761Y-96316666D01*
X112154761Y-96435714D01*
X112130952Y-96530952D01*
X112107142Y-96578571D01*
X112083333Y-96602380D01*
X112035714Y-96626190D01*
X111988095Y-96626190D01*
X111940476Y-96602380D01*
X111916666Y-96578571D01*
X111892857Y-96530952D01*
X111869047Y-96435714D01*
X111869047Y-96316666D01*
X111892857Y-96221428D01*
X111916666Y-96173809D01*
X111940476Y-96150000D01*
X111988095Y-96126190D01*
X112369047Y-96578571D02*
X112392857Y-96602380D01*
X112369047Y-96626190D01*
X112345238Y-96602380D01*
X112369047Y-96578571D01*
X112369047Y-96626190D01*
X112869047Y-96626190D02*
X112583333Y-96626190D01*
X112726190Y-96626190D02*
X112726190Y-96126190D01*
X112678571Y-96197619D01*
X112630952Y-96245238D01*
X112583333Y-96269047D01*
D11*
X131971428Y-93478571D02*
X131971428Y-91978571D01*
X132328571Y-91978571D01*
X132542857Y-92050000D01*
X132685714Y-92192857D01*
X132757142Y-92335714D01*
X132828571Y-92621428D01*
X132828571Y-92835714D01*
X132757142Y-93121428D01*
X132685714Y-93264285D01*
X132542857Y-93407142D01*
X132328571Y-93478571D01*
X131971428Y-93478571D01*
X133471428Y-93478571D02*
X133471428Y-92478571D01*
X133471428Y-92764285D02*
X133542857Y-92621428D01*
X133614285Y-92550000D01*
X133757142Y-92478571D01*
X133900000Y-92478571D01*
X134257142Y-92478571D02*
X134614285Y-93478571D01*
X134971428Y-92478571D02*
X134614285Y-93478571D01*
X134471428Y-93835714D01*
X134400000Y-93907142D01*
X134257142Y-93978571D01*
X120985714Y-87678571D02*
X121342857Y-89178571D01*
X121628571Y-88107142D01*
X121914285Y-89178571D01*
X122271428Y-87678571D01*
X123414285Y-89107142D02*
X123271428Y-89178571D01*
X122985714Y-89178571D01*
X122842857Y-89107142D01*
X122771428Y-88964285D01*
X122771428Y-88392857D01*
X122842857Y-88250000D01*
X122985714Y-88178571D01*
X123271428Y-88178571D01*
X123414285Y-88250000D01*
X123485714Y-88392857D01*
X123485714Y-88535714D01*
X122771428Y-88678571D01*
X123914285Y-88178571D02*
X124485714Y-88178571D01*
X124128571Y-87678571D02*
X124128571Y-88964285D01*
X124200000Y-89107142D01*
X124342857Y-89178571D01*
X124485714Y-89178571D01*
D12*
X107852380Y-91504761D02*
X107995238Y-91552380D01*
X108233333Y-91552380D01*
X108328571Y-91504761D01*
X108376190Y-91457142D01*
X108423809Y-91361904D01*
X108423809Y-91266666D01*
X108376190Y-91171428D01*
X108328571Y-91123809D01*
X108233333Y-91076190D01*
X108042857Y-91028571D01*
X107947619Y-90980952D01*
X107900000Y-90933333D01*
X107852380Y-90838095D01*
X107852380Y-90742857D01*
X107900000Y-90647619D01*
X107947619Y-90600000D01*
X108042857Y-90552380D01*
X108280952Y-90552380D01*
X108423809Y-90600000D01*
X109280952Y-90885714D02*
X109280952Y-91885714D01*
X109280952Y-91504761D02*
X109185714Y-91552380D01*
X108995238Y-91552380D01*
X108900000Y-91504761D01*
X108852380Y-91457142D01*
X108804761Y-91361904D01*
X108804761Y-91076190D01*
X108852380Y-90980952D01*
X108900000Y-90933333D01*
X108995238Y-90885714D01*
X109185714Y-90885714D01*
X109280952Y-90933333D01*
X109757142Y-91552380D02*
X109757142Y-90885714D01*
X109757142Y-91076190D02*
X109804761Y-90980952D01*
X109852380Y-90933333D01*
X109947619Y-90885714D01*
X110042857Y-90885714D01*
D13*
X124450000Y-89500000D02*
X124450000Y-90200000D01*
X125150000Y-89500000D02*
X124450000Y-89500000D01*
X128950000Y-92900000D02*
X128950000Y-92300000D01*
X126050000Y-92900000D02*
X128950000Y-92900000D01*
X128950000Y-89700000D02*
X128950000Y-90300000D01*
X126050000Y-89700000D02*
X128950000Y-89700000D01*
X124950000Y-91100000D02*
X124950000Y-91500000D01*
X109850000Y-89500000D02*
X109850000Y-90200000D01*
X110550000Y-89500000D02*
X109850000Y-89500000D01*
X114350000Y-92900000D02*
X114350000Y-92300000D01*
X111450000Y-92900000D02*
X114350000Y-92900000D01*
X114350000Y-89700000D02*
X114350000Y-90300000D01*
X111450000Y-89700000D02*
X114350000Y-89700000D01*
X110350000Y-91100000D02*
X110350000Y-91500000D01*
X117150000Y-89500000D02*
X117150000Y-90200000D01*
X117850000Y-89500000D02*
X117150000Y-89500000D01*
X121650000Y-92900000D02*
X121650000Y-92300000D01*
X118750000Y-92900000D02*
X121650000Y-92900000D01*
X121650000Y-89700000D02*
X121650000Y-90300000D01*
X118750000Y-89700000D02*
X121650000Y-89700000D01*
X117650000Y-91100000D02*
X117650000Y-91500000D01*
X117040000Y-57663748D02*
X117040000Y-59086252D01*
X119760000Y-57663748D02*
X119760000Y-59086252D01*
X141445050Y-87536100D02*
X137203250Y-87536100D01*
X137203250Y-92793900D02*
X141445050Y-92793900D01*
X145269700Y-67912140D02*
X145269700Y-68592860D01*
X145269700Y-69903500D02*
X146920700Y-69903500D01*
X146920700Y-69903500D02*
X146920700Y-68864640D01*
X146920700Y-66601500D02*
X145269700Y-66601500D01*
X146920700Y-67640360D02*
X146920700Y-66601500D01*
X144901400Y-65458500D02*
G75*
G03*
X144901400Y-65458500I-127000J0D01*
G01*
X123892860Y-69639700D02*
X123212140Y-69639700D01*
X121901500Y-69639700D02*
X121901500Y-71290700D01*
X121901500Y-71290700D02*
X122940360Y-71290700D01*
X125203500Y-71290700D02*
X125203500Y-69639700D01*
X124164640Y-71290700D02*
X125203500Y-71290700D01*
X126473500Y-69144400D02*
G75*
G03*
X126473500Y-69144400I-127000J0D01*
G01*
X111959640Y-87590700D02*
X112640360Y-87590700D01*
X113951000Y-87590700D02*
X113951000Y-85939700D01*
X113951000Y-85939700D02*
X112912140Y-85939700D01*
X110649000Y-85939700D02*
X110649000Y-87590700D01*
X111687860Y-85939700D02*
X110649000Y-85939700D01*
X109633000Y-88086000D02*
G75*
G03*
X109633000Y-88086000I-127000J0D01*
G01*
D10*
X115670000Y-83400000D02*
X115670000Y-84300000D01*
X115270000Y-83400000D02*
X115670000Y-83400000D01*
X115270000Y-82800000D02*
X115270000Y-83400000D01*
X115270000Y-78800000D02*
X115270000Y-79200000D01*
X115670000Y-78800000D02*
X115270000Y-78800000D01*
X124670000Y-78700000D02*
X124670000Y-79200000D01*
X124270000Y-78700000D02*
X124670000Y-78700000D01*
X124570000Y-83400000D02*
X124570000Y-83000000D01*
X124270000Y-83400000D02*
X124570000Y-83400000D01*
X137300000Y-75560000D02*
X138200000Y-75560000D01*
X137300000Y-75960000D02*
X137300000Y-75560000D01*
X136700000Y-75960000D02*
X137300000Y-75960000D01*
X132700000Y-75960000D02*
X133100000Y-75960000D01*
X132700000Y-75560000D02*
X132700000Y-75960000D01*
X132600000Y-66560000D02*
X133100000Y-66560000D01*
X132600000Y-66960000D02*
X132600000Y-66560000D01*
X137300000Y-66660000D02*
X136900000Y-66660000D01*
X137300000Y-66960000D02*
X137300000Y-66660000D01*
X126350000Y-66630000D02*
X126100000Y-66630000D01*
X123650000Y-66630000D02*
X123900000Y-66630000D01*
X126841615Y-66025467D02*
G75*
G02*
X126350000Y-66630000I-1841615J995467D01*
G01*
X123643853Y-66637285D02*
G75*
G02*
X123150000Y-66030000I1356147J1607285D01*
G01*
X126000000Y-63180000D02*
G75*
G02*
X126850000Y-64030000I-1000000J-1850000D01*
G01*
X123150000Y-64030000D02*
G75*
G02*
X124000000Y-63180000I1850000J-1000000D01*
G01*
D13*
X118205000Y-75178748D02*
X118205000Y-75701252D01*
X116735000Y-75178748D02*
X116735000Y-75701252D01*
X120305000Y-75178748D02*
X120305000Y-75701252D01*
X118835000Y-75178748D02*
X118835000Y-75701252D01*
X137414564Y-97665000D02*
X136960436Y-97665000D01*
X137414564Y-99135000D02*
X136960436Y-99135000D01*
X124035000Y-91411252D02*
X124035000Y-90888748D01*
X122565000Y-91411252D02*
X122565000Y-90888748D01*
X131435000Y-91411252D02*
X131435000Y-90888748D01*
X129965000Y-91411252D02*
X129965000Y-90888748D01*
X128488748Y-75935000D02*
X129011252Y-75935000D01*
X128488748Y-74465000D02*
X129011252Y-74465000D01*
X116735000Y-91411252D02*
X116735000Y-90888748D01*
X115265000Y-91411252D02*
X115265000Y-90888748D01*
X143465000Y-77288748D02*
X143465000Y-77811252D01*
X144935000Y-77288748D02*
X144935000Y-77811252D01*
X135511252Y-58765000D02*
X134988748Y-58765000D01*
X135511252Y-60235000D02*
X134988748Y-60235000D01*
X128565000Y-81238748D02*
X128565000Y-81761252D01*
X130035000Y-81238748D02*
X130035000Y-81761252D01*
X135511252Y-56665000D02*
X134988748Y-56665000D01*
X135511252Y-58135000D02*
X134988748Y-58135000D01*
X128488748Y-78035000D02*
X129011252Y-78035000D01*
X128488748Y-76565000D02*
X129011252Y-76565000D01*
X142235000Y-95311252D02*
X142235000Y-94788748D01*
X140765000Y-95311252D02*
X140765000Y-94788748D01*
X140135000Y-95311252D02*
X140135000Y-94788748D01*
X138665000Y-95311252D02*
X138665000Y-94788748D01*
X110685000Y-61648748D02*
X110685000Y-62171252D01*
X112155000Y-61648748D02*
X112155000Y-62171252D01*
X102838748Y-71275000D02*
X103361252Y-71275000D01*
X102838748Y-69805000D02*
X103361252Y-69805000D01*
X134435000Y-81711252D02*
X134435000Y-81188748D01*
X132965000Y-81711252D02*
X132965000Y-81188748D01*
X132815000Y-85188748D02*
X132815000Y-85711252D01*
X134285000Y-85188748D02*
X134285000Y-85711252D01*
X141588748Y-71835000D02*
X142111252Y-71835000D01*
X141588748Y-70365000D02*
X142111252Y-70365000D01*
X103038748Y-67735000D02*
X103561252Y-67735000D01*
X103038748Y-66265000D02*
X103561252Y-66265000D01*
X102988748Y-65635000D02*
X103511252Y-65635000D01*
X102988748Y-64165000D02*
X103511252Y-64165000D01*
X127935000Y-85711252D02*
X127935000Y-85188748D01*
X126465000Y-85711252D02*
X126465000Y-85188748D01*
X136535000Y-85661252D02*
X136535000Y-85138748D01*
X135065000Y-85661252D02*
X135065000Y-85138748D01*
X136435000Y-78011252D02*
X136435000Y-77488748D01*
X134965000Y-78011252D02*
X134965000Y-77488748D01*
X127985000Y-81664564D02*
X127985000Y-81210436D01*
X126515000Y-81664564D02*
X126515000Y-81210436D01*
X128485436Y-73835000D02*
X128939564Y-73835000D01*
X128485436Y-72365000D02*
X128939564Y-72365000D01*
X129988748Y-64135000D02*
X130511252Y-64135000D01*
X129988748Y-62665000D02*
X130511252Y-62665000D01*
D10*
X109390000Y-73585000D02*
X109740000Y-73585000D01*
X109390000Y-75535000D02*
X109740000Y-75535000D01*
X109740000Y-75535000D02*
X109740000Y-73585000D01*
X107090000Y-73835000D02*
X107090000Y-73585000D01*
X107090000Y-73585000D02*
X107340000Y-73585000D01*
X107390000Y-75535000D02*
X107090000Y-75535000D01*
X107090000Y-75535000D02*
X107090000Y-75310000D01*
X109640000Y-75535000D02*
X109640000Y-73585000D01*
X109540000Y-75535000D02*
X109540000Y-73585000D01*
D13*
X129188748Y-71735000D02*
X129711252Y-71735000D01*
X129188748Y-70265000D02*
X129711252Y-70265000D01*
X142114564Y-72465000D02*
X141660436Y-72465000D01*
X142114564Y-73935000D02*
X141660436Y-73935000D01*
X142215000Y-68013748D02*
X142215000Y-68536252D01*
X143685000Y-68013748D02*
X143685000Y-68536252D01*
D10*
X117850000Y-53725000D02*
X118200000Y-53725000D01*
X117850000Y-55675000D02*
X118200000Y-55675000D01*
X118200000Y-55675000D02*
X118200000Y-53725000D01*
X115550000Y-53975000D02*
X115550000Y-53725000D01*
X115550000Y-53725000D02*
X115800000Y-53725000D01*
X115850000Y-55675000D02*
X115550000Y-55675000D01*
X115550000Y-55675000D02*
X115550000Y-55450000D01*
X118100000Y-55675000D02*
X118100000Y-53725000D01*
X118000000Y-55675000D02*
X118000000Y-53725000D01*
D13*
X114951252Y-69125000D02*
X114428748Y-69125000D01*
X114951252Y-70595000D02*
X114428748Y-70595000D01*
D10*
X103825000Y-59650000D02*
X103825000Y-59300000D01*
X105775000Y-59650000D02*
X105775000Y-59300000D01*
X105775000Y-59300000D02*
X103825000Y-59300000D01*
X104075000Y-61950000D02*
X103825000Y-61950000D01*
X103825000Y-61950000D02*
X103825000Y-61700000D01*
X105775000Y-61650000D02*
X105775000Y-61950000D01*
X105775000Y-61950000D02*
X105550000Y-61950000D01*
X105775000Y-59400000D02*
X103825000Y-59400000D01*
X105775000Y-59500000D02*
X103825000Y-59500000D01*
X139900000Y-60825000D02*
X140250000Y-60825000D01*
X139900000Y-62775000D02*
X140250000Y-62775000D01*
X140250000Y-62775000D02*
X140250000Y-60825000D01*
X137600000Y-61075000D02*
X137600000Y-60825000D01*
X137600000Y-60825000D02*
X137850000Y-60825000D01*
X137900000Y-62775000D02*
X137600000Y-62775000D01*
X137600000Y-62775000D02*
X137600000Y-62550000D01*
X140150000Y-62775000D02*
X140150000Y-60825000D01*
X140050000Y-62775000D02*
X140050000Y-60825000D01*
D13*
X114465000Y-86588748D02*
X114465000Y-87111252D01*
X115935000Y-86588748D02*
X115935000Y-87111252D01*
D14*
X125200000Y-61500000D02*
G75*
G03*
X125200000Y-61500000I-200000J0D01*
G01*
D15*
X122450000Y-60300000D02*
X120500000Y-60300000D01*
X120500000Y-60300000D02*
X120500000Y-45800000D01*
X129500000Y-60300000D02*
X127650000Y-60300000D01*
X129500000Y-45800000D02*
X129500000Y-60300000D01*
X120500000Y-45800000D02*
X129500000Y-45800000D01*
D13*
X135439564Y-54565000D02*
X134985436Y-54565000D01*
X135439564Y-56035000D02*
X134985436Y-56035000D01*
X130715000Y-81260436D02*
X130715000Y-81714564D01*
X132185000Y-81260436D02*
X132185000Y-81714564D01*
X141365000Y-81085436D02*
X141365000Y-81539564D01*
X142835000Y-81085436D02*
X142835000Y-81539564D01*
X131927064Y-58765000D02*
X131472936Y-58765000D01*
X131927064Y-60235000D02*
X131472936Y-60235000D01*
X140140000Y-68013748D02*
X140140000Y-68536252D01*
X141610000Y-68013748D02*
X141610000Y-68536252D01*
X141365000Y-77260436D02*
X141365000Y-77714564D01*
X142835000Y-77260436D02*
X142835000Y-77714564D01*
X114851252Y-65725000D02*
X114328748Y-65725000D01*
X114851252Y-67195000D02*
X114328748Y-67195000D01*
X128465000Y-65888748D02*
X128465000Y-66411252D01*
X129935000Y-65888748D02*
X129935000Y-66411252D01*
D10*
X107440000Y-78035000D02*
X107090000Y-78035000D01*
X107440000Y-76085000D02*
X107090000Y-76085000D01*
X107090000Y-76085000D02*
X107090000Y-78035000D01*
X109740000Y-77785000D02*
X109740000Y-78035000D01*
X109740000Y-78035000D02*
X109490000Y-78035000D01*
X109440000Y-76085000D02*
X109740000Y-76085000D01*
X109740000Y-76085000D02*
X109740000Y-76310000D01*
X107190000Y-76085000D02*
X107190000Y-78035000D01*
X107290000Y-76085000D02*
X107290000Y-78035000D01*
X106225000Y-59650000D02*
X106225000Y-59300000D01*
X108175000Y-59650000D02*
X108175000Y-59300000D01*
X108175000Y-59300000D02*
X106225000Y-59300000D01*
X106475000Y-61950000D02*
X106225000Y-61950000D01*
X106225000Y-61950000D02*
X106225000Y-61700000D01*
X108175000Y-61650000D02*
X108175000Y-61950000D01*
X108175000Y-61950000D02*
X107950000Y-61950000D01*
X108175000Y-59400000D02*
X106225000Y-59400000D01*
X108175000Y-59500000D02*
X106225000Y-59500000D01*
D13*
X145639564Y-70355000D02*
X145185436Y-70355000D01*
X145639564Y-71825000D02*
X145185436Y-71825000D01*
X140585436Y-99135000D02*
X141039564Y-99135000D01*
X140585436Y-97665000D02*
X141039564Y-97665000D01*
X132514564Y-76565000D02*
X132060436Y-76565000D01*
X132514564Y-78035000D02*
X132060436Y-78035000D01*
X137665000Y-77560436D02*
X137665000Y-78014564D01*
X139135000Y-77560436D02*
X139135000Y-78014564D01*
X120072936Y-68235000D02*
X120527064Y-68235000D01*
X120072936Y-66765000D02*
X120527064Y-66765000D01*
X139214564Y-64765000D02*
X138760436Y-64765000D01*
X139214564Y-66235000D02*
X138760436Y-66235000D01*
X114325436Y-65095000D02*
X114779564Y-65095000D01*
X114325436Y-63625000D02*
X114779564Y-63625000D01*
X140735000Y-81539564D02*
X140735000Y-81085436D01*
X139265000Y-81539564D02*
X139265000Y-81085436D01*
X113779564Y-74025000D02*
X113325436Y-74025000D01*
X113779564Y-75495000D02*
X113325436Y-75495000D01*
X113325436Y-77495000D02*
X113779564Y-77495000D01*
X113325436Y-76025000D02*
X113779564Y-76025000D01*
X135065000Y-81160436D02*
X135065000Y-81614564D01*
X136535000Y-81160436D02*
X136535000Y-81614564D01*
X129260436Y-69635000D02*
X129714564Y-69635000D01*
X129260436Y-68165000D02*
X129714564Y-68165000D01*
X114439564Y-58865000D02*
X113985436Y-58865000D01*
X114439564Y-60335000D02*
X113985436Y-60335000D01*
X119065000Y-86585436D02*
X119065000Y-87039564D01*
X120535000Y-86585436D02*
X120535000Y-87039564D01*
D10*
X106640000Y-64260000D02*
X105740000Y-64260000D01*
X106640000Y-63860000D02*
X106640000Y-64260000D01*
X107240000Y-63860000D02*
X106640000Y-63860000D01*
X111240000Y-63860000D02*
X110840000Y-63860000D01*
X111240000Y-64260000D02*
X111240000Y-63860000D01*
X111340000Y-73260000D02*
X110840000Y-73260000D01*
X111340000Y-72860000D02*
X111340000Y-73260000D01*
X106640000Y-73160000D02*
X107040000Y-73160000D01*
X106640000Y-72860000D02*
X106640000Y-73160000D01*
D13*
X130715000Y-85260436D02*
X130715000Y-85714564D01*
X132185000Y-85260436D02*
X132185000Y-85714564D01*
X120060436Y-66235000D02*
X120514564Y-66235000D01*
X120060436Y-64765000D02*
X120514564Y-64765000D01*
X135714564Y-64715000D02*
X135260436Y-64715000D01*
X135714564Y-66185000D02*
X135260436Y-66185000D01*
X102860436Y-73395000D02*
X103314564Y-73395000D01*
X102860436Y-71925000D02*
X103314564Y-71925000D01*
X114000436Y-62795000D02*
X114454564Y-62795000D01*
X114000436Y-61325000D02*
X114454564Y-61325000D01*
X116565000Y-86660436D02*
X116565000Y-87114564D01*
X118035000Y-86660436D02*
X118035000Y-87114564D01*
X114225436Y-72995000D02*
X114679564Y-72995000D01*
X114225436Y-71525000D02*
X114679564Y-71525000D01*
X133460436Y-91635000D02*
X133914564Y-91635000D01*
X133460436Y-90165000D02*
X133914564Y-90165000D01*
X134014564Y-62665000D02*
X133560436Y-62665000D01*
X134014564Y-64135000D02*
X133560436Y-64135000D01*
X110135000Y-62127064D02*
X110135000Y-61672936D01*
X108665000Y-62127064D02*
X108665000Y-61672936D01*
X130035000Y-85639564D02*
X130035000Y-85185436D01*
X128565000Y-85639564D02*
X128565000Y-85185436D01*
X138735000Y-81539564D02*
X138735000Y-81085436D01*
X137265000Y-81539564D02*
X137265000Y-81085436D01*
X110135000Y-87239564D02*
X110135000Y-86785436D01*
X108665000Y-87239564D02*
X108665000Y-86785436D01*
X132214564Y-64715000D02*
X131760436Y-64715000D01*
X132214564Y-66185000D02*
X131760436Y-66185000D01*
X133460436Y-89135000D02*
X133914564Y-89135000D01*
X133460436Y-87665000D02*
X133914564Y-87665000D01*
X120265000Y-62485436D02*
X120265000Y-62939564D01*
X121735000Y-62485436D02*
X121735000Y-62939564D01*
D16*
X126780952Y-91490476D02*
X126714285Y-91395238D01*
X126666666Y-91490476D02*
X126666666Y-91290476D01*
X126742857Y-91290476D01*
X126761904Y-91300000D01*
X126771428Y-91309523D01*
X126780952Y-91328571D01*
X126780952Y-91357142D01*
X126771428Y-91376190D01*
X126761904Y-91385714D01*
X126742857Y-91395238D01*
X126666666Y-91395238D01*
X126838095Y-91290476D02*
X126904761Y-91490476D01*
X126971428Y-91290476D01*
X127019047Y-91290476D02*
X127142857Y-91290476D01*
X127076190Y-91366666D01*
X127104761Y-91366666D01*
X127123809Y-91376190D01*
X127133333Y-91385714D01*
X127142857Y-91404761D01*
X127142857Y-91452380D01*
X127133333Y-91471428D01*
X127123809Y-91480952D01*
X127104761Y-91490476D01*
X127047619Y-91490476D01*
X127028571Y-91480952D01*
X127019047Y-91471428D01*
X112330952Y-91290476D02*
X112264285Y-91195238D01*
X112216666Y-91290476D02*
X112216666Y-91090476D01*
X112292857Y-91090476D01*
X112311904Y-91100000D01*
X112321428Y-91109523D01*
X112330952Y-91128571D01*
X112330952Y-91157142D01*
X112321428Y-91176190D01*
X112311904Y-91185714D01*
X112292857Y-91195238D01*
X112216666Y-91195238D01*
X112388095Y-91090476D02*
X112454761Y-91290476D01*
X112521428Y-91090476D01*
X112578571Y-91109523D02*
X112588095Y-91100000D01*
X112607142Y-91090476D01*
X112654761Y-91090476D01*
X112673809Y-91100000D01*
X112683333Y-91109523D01*
X112692857Y-91128571D01*
X112692857Y-91147619D01*
X112683333Y-91176190D01*
X112569047Y-91290476D01*
X112692857Y-91290476D01*
X119680952Y-91490476D02*
X119614285Y-91395238D01*
X119566666Y-91490476D02*
X119566666Y-91290476D01*
X119642857Y-91290476D01*
X119661904Y-91300000D01*
X119671428Y-91309523D01*
X119680952Y-91328571D01*
X119680952Y-91357142D01*
X119671428Y-91376190D01*
X119661904Y-91385714D01*
X119642857Y-91395238D01*
X119566666Y-91395238D01*
X119738095Y-91290476D02*
X119804761Y-91490476D01*
X119871428Y-91290476D01*
X120042857Y-91490476D02*
X119928571Y-91490476D01*
X119985714Y-91490476D02*
X119985714Y-91290476D01*
X119966666Y-91319047D01*
X119947619Y-91338095D01*
X119928571Y-91347619D01*
X118471428Y-58408333D02*
X118480952Y-58417857D01*
X118490476Y-58446428D01*
X118490476Y-58465476D01*
X118480952Y-58494047D01*
X118461904Y-58513095D01*
X118442857Y-58522619D01*
X118404761Y-58532142D01*
X118376190Y-58532142D01*
X118338095Y-58522619D01*
X118319047Y-58513095D01*
X118300000Y-58494047D01*
X118290476Y-58465476D01*
X118290476Y-58446428D01*
X118300000Y-58417857D01*
X118309523Y-58408333D01*
X118490476Y-58217857D02*
X118490476Y-58332142D01*
X118490476Y-58275000D02*
X118290476Y-58275000D01*
X118319047Y-58294047D01*
X118338095Y-58313095D01*
X118347619Y-58332142D01*
X139247619Y-89890476D02*
X139247619Y-90052380D01*
X139257142Y-90071428D01*
X139266666Y-90080952D01*
X139285714Y-90090476D01*
X139323809Y-90090476D01*
X139342857Y-90080952D01*
X139352380Y-90071428D01*
X139361904Y-90052380D01*
X139361904Y-89890476D01*
X139438095Y-89890476D02*
X139561904Y-89890476D01*
X139495238Y-89966666D01*
X139523809Y-89966666D01*
X139542857Y-89976190D01*
X139552380Y-89985714D01*
X139561904Y-90004761D01*
X139561904Y-90052380D01*
X139552380Y-90071428D01*
X139542857Y-90080952D01*
X139523809Y-90090476D01*
X139466666Y-90090476D01*
X139447619Y-90080952D01*
X139438095Y-90071428D01*
X146090476Y-68452380D02*
X146252380Y-68452380D01*
X146271428Y-68442857D01*
X146280952Y-68433333D01*
X146290476Y-68414285D01*
X146290476Y-68376190D01*
X146280952Y-68357142D01*
X146271428Y-68347619D01*
X146252380Y-68338095D01*
X146090476Y-68338095D01*
X146109523Y-68252380D02*
X146100000Y-68242857D01*
X146090476Y-68223809D01*
X146090476Y-68176190D01*
X146100000Y-68157142D01*
X146109523Y-68147619D01*
X146128571Y-68138095D01*
X146147619Y-68138095D01*
X146176190Y-68147619D01*
X146290476Y-68261904D01*
X146290476Y-68138095D01*
D17*
X145547580Y-68252500D02*
X145785676Y-68252500D01*
X145690438Y-68490595D02*
X145785676Y-68252500D01*
X145690438Y-68014404D01*
X145976152Y-68395357D02*
X145785676Y-68252500D01*
X145976152Y-68109642D01*
D16*
X123347619Y-70290476D02*
X123347619Y-70452380D01*
X123357142Y-70471428D01*
X123366666Y-70480952D01*
X123385714Y-70490476D01*
X123423809Y-70490476D01*
X123442857Y-70480952D01*
X123452380Y-70471428D01*
X123461904Y-70452380D01*
X123461904Y-70290476D01*
X123642857Y-70290476D02*
X123604761Y-70290476D01*
X123585714Y-70300000D01*
X123576190Y-70309523D01*
X123557142Y-70338095D01*
X123547619Y-70376190D01*
X123547619Y-70452380D01*
X123557142Y-70471428D01*
X123566666Y-70480952D01*
X123585714Y-70490476D01*
X123623809Y-70490476D01*
X123642857Y-70480952D01*
X123652380Y-70471428D01*
X123661904Y-70452380D01*
X123661904Y-70404761D01*
X123652380Y-70385714D01*
X123642857Y-70376190D01*
X123623809Y-70366666D01*
X123585714Y-70366666D01*
X123566666Y-70376190D01*
X123557142Y-70385714D01*
X123547619Y-70404761D01*
D17*
X123552500Y-69917580D02*
X123552500Y-70155676D01*
X123314404Y-70060438D02*
X123552500Y-70155676D01*
X123790595Y-70060438D01*
X123409642Y-70346152D02*
X123552500Y-70155676D01*
X123695357Y-70346152D01*
D16*
X112280952Y-86909523D02*
X112261904Y-86900000D01*
X112242857Y-86880952D01*
X112214285Y-86852380D01*
X112195238Y-86842857D01*
X112176190Y-86842857D01*
X112185714Y-86890476D02*
X112166666Y-86880952D01*
X112147619Y-86861904D01*
X112138095Y-86823809D01*
X112138095Y-86757142D01*
X112147619Y-86719047D01*
X112166666Y-86700000D01*
X112185714Y-86690476D01*
X112223809Y-86690476D01*
X112242857Y-86700000D01*
X112261904Y-86719047D01*
X112271428Y-86757142D01*
X112271428Y-86823809D01*
X112261904Y-86861904D01*
X112242857Y-86880952D01*
X112223809Y-86890476D01*
X112185714Y-86890476D01*
X112461904Y-86890476D02*
X112347619Y-86890476D01*
X112404761Y-86890476D02*
X112404761Y-86690476D01*
X112385714Y-86719047D01*
X112366666Y-86738095D01*
X112347619Y-86747619D01*
D17*
X112300000Y-86217580D02*
X112300000Y-86455676D01*
X112061904Y-86360438D02*
X112300000Y-86455676D01*
X112538095Y-86360438D01*
X112157142Y-86646152D02*
X112300000Y-86455676D01*
X112442857Y-86646152D01*
D16*
X119817619Y-80890476D02*
X119817619Y-81052380D01*
X119827142Y-81071428D01*
X119836666Y-81080952D01*
X119855714Y-81090476D01*
X119893809Y-81090476D01*
X119912857Y-81080952D01*
X119922380Y-81071428D01*
X119931904Y-81052380D01*
X119931904Y-80890476D01*
X120008095Y-80890476D02*
X120141428Y-80890476D01*
X120055714Y-81090476D01*
X134990476Y-71352380D02*
X135152380Y-71352380D01*
X135171428Y-71342857D01*
X135180952Y-71333333D01*
X135190476Y-71314285D01*
X135190476Y-71276190D01*
X135180952Y-71257142D01*
X135171428Y-71247619D01*
X135152380Y-71238095D01*
X134990476Y-71238095D01*
X134990476Y-71047619D02*
X134990476Y-71142857D01*
X135085714Y-71152380D01*
X135076190Y-71142857D01*
X135066666Y-71123809D01*
X135066666Y-71076190D01*
X135076190Y-71057142D01*
X135085714Y-71047619D01*
X135104761Y-71038095D01*
X135152380Y-71038095D01*
X135171428Y-71047619D01*
X135180952Y-71057142D01*
X135190476Y-71076190D01*
X135190476Y-71123809D01*
X135180952Y-71142857D01*
X135171428Y-71152380D01*
X126990476Y-65247619D02*
X126790476Y-65247619D01*
X126790476Y-65200000D01*
X126800000Y-65171428D01*
X126819047Y-65152380D01*
X126838095Y-65142857D01*
X126876190Y-65133333D01*
X126904761Y-65133333D01*
X126942857Y-65142857D01*
X126961904Y-65152380D01*
X126980952Y-65171428D01*
X126990476Y-65200000D01*
X126990476Y-65247619D01*
X126790476Y-65066666D02*
X126790476Y-64933333D01*
X126990476Y-65019047D01*
X117571428Y-75628571D02*
X117580952Y-75638095D01*
X117590476Y-75666666D01*
X117590476Y-75685714D01*
X117580952Y-75714285D01*
X117561904Y-75733333D01*
X117542857Y-75742857D01*
X117504761Y-75752380D01*
X117476190Y-75752380D01*
X117438095Y-75742857D01*
X117419047Y-75733333D01*
X117400000Y-75714285D01*
X117390476Y-75685714D01*
X117390476Y-75666666D01*
X117400000Y-75638095D01*
X117409523Y-75628571D01*
X117390476Y-75561904D02*
X117390476Y-75438095D01*
X117466666Y-75504761D01*
X117466666Y-75476190D01*
X117476190Y-75457142D01*
X117485714Y-75447619D01*
X117504761Y-75438095D01*
X117552380Y-75438095D01*
X117571428Y-75447619D01*
X117580952Y-75457142D01*
X117590476Y-75476190D01*
X117590476Y-75533333D01*
X117580952Y-75552380D01*
X117571428Y-75561904D01*
X117409523Y-75361904D02*
X117400000Y-75352380D01*
X117390476Y-75333333D01*
X117390476Y-75285714D01*
X117400000Y-75266666D01*
X117409523Y-75257142D01*
X117428571Y-75247619D01*
X117447619Y-75247619D01*
X117476190Y-75257142D01*
X117590476Y-75371428D01*
X117590476Y-75247619D01*
X119671428Y-75528571D02*
X119680952Y-75538095D01*
X119690476Y-75566666D01*
X119690476Y-75585714D01*
X119680952Y-75614285D01*
X119661904Y-75633333D01*
X119642857Y-75642857D01*
X119604761Y-75652380D01*
X119576190Y-75652380D01*
X119538095Y-75642857D01*
X119519047Y-75633333D01*
X119500000Y-75614285D01*
X119490476Y-75585714D01*
X119490476Y-75566666D01*
X119500000Y-75538095D01*
X119509523Y-75528571D01*
X119490476Y-75461904D02*
X119490476Y-75338095D01*
X119566666Y-75404761D01*
X119566666Y-75376190D01*
X119576190Y-75357142D01*
X119585714Y-75347619D01*
X119604761Y-75338095D01*
X119652380Y-75338095D01*
X119671428Y-75347619D01*
X119680952Y-75357142D01*
X119690476Y-75376190D01*
X119690476Y-75433333D01*
X119680952Y-75452380D01*
X119671428Y-75461904D01*
X119690476Y-75147619D02*
X119690476Y-75261904D01*
X119690476Y-75204761D02*
X119490476Y-75204761D01*
X119519047Y-75223809D01*
X119538095Y-75242857D01*
X119547619Y-75261904D01*
X137058928Y-98490476D02*
X136992261Y-98395238D01*
X136944642Y-98490476D02*
X136944642Y-98290476D01*
X137020833Y-98290476D01*
X137039880Y-98300000D01*
X137049404Y-98309523D01*
X137058928Y-98328571D01*
X137058928Y-98357142D01*
X137049404Y-98376190D01*
X137039880Y-98385714D01*
X137020833Y-98395238D01*
X136944642Y-98395238D01*
X137249404Y-98490476D02*
X137135119Y-98490476D01*
X137192261Y-98490476D02*
X137192261Y-98290476D01*
X137173214Y-98319047D01*
X137154166Y-98338095D01*
X137135119Y-98347619D01*
X137420833Y-98290476D02*
X137382738Y-98290476D01*
X137363690Y-98300000D01*
X137354166Y-98309523D01*
X137335119Y-98338095D01*
X137325595Y-98376190D01*
X137325595Y-98452380D01*
X137335119Y-98471428D01*
X137344642Y-98480952D01*
X137363690Y-98490476D01*
X137401785Y-98490476D01*
X137420833Y-98480952D01*
X137430357Y-98471428D01*
X137439880Y-98452380D01*
X137439880Y-98404761D01*
X137430357Y-98385714D01*
X137420833Y-98376190D01*
X137401785Y-98366666D01*
X137363690Y-98366666D01*
X137344642Y-98376190D01*
X137335119Y-98385714D01*
X137325595Y-98404761D01*
X123371428Y-91133333D02*
X123380952Y-91142857D01*
X123390476Y-91171428D01*
X123390476Y-91190476D01*
X123380952Y-91219047D01*
X123361904Y-91238095D01*
X123342857Y-91247619D01*
X123304761Y-91257142D01*
X123276190Y-91257142D01*
X123238095Y-91247619D01*
X123219047Y-91238095D01*
X123200000Y-91219047D01*
X123190476Y-91190476D01*
X123190476Y-91171428D01*
X123200000Y-91142857D01*
X123209523Y-91133333D01*
X123209523Y-91057142D02*
X123200000Y-91047619D01*
X123190476Y-91028571D01*
X123190476Y-90980952D01*
X123200000Y-90961904D01*
X123209523Y-90952380D01*
X123228571Y-90942857D01*
X123247619Y-90942857D01*
X123276190Y-90952380D01*
X123390476Y-91066666D01*
X123390476Y-90942857D01*
X130821428Y-91183333D02*
X130830952Y-91192857D01*
X130840476Y-91221428D01*
X130840476Y-91240476D01*
X130830952Y-91269047D01*
X130811904Y-91288095D01*
X130792857Y-91297619D01*
X130754761Y-91307142D01*
X130726190Y-91307142D01*
X130688095Y-91297619D01*
X130669047Y-91288095D01*
X130650000Y-91269047D01*
X130640476Y-91240476D01*
X130640476Y-91221428D01*
X130650000Y-91192857D01*
X130659523Y-91183333D01*
X130707142Y-91011904D02*
X130840476Y-91011904D01*
X130630952Y-91059523D02*
X130773809Y-91107142D01*
X130773809Y-90983333D01*
X128621428Y-75271428D02*
X128611904Y-75280952D01*
X128583333Y-75290476D01*
X128564285Y-75290476D01*
X128535714Y-75280952D01*
X128516666Y-75261904D01*
X128507142Y-75242857D01*
X128497619Y-75204761D01*
X128497619Y-75176190D01*
X128507142Y-75138095D01*
X128516666Y-75119047D01*
X128535714Y-75100000D01*
X128564285Y-75090476D01*
X128583333Y-75090476D01*
X128611904Y-75100000D01*
X128621428Y-75109523D01*
X128811904Y-75290476D02*
X128697619Y-75290476D01*
X128754761Y-75290476D02*
X128754761Y-75090476D01*
X128735714Y-75119047D01*
X128716666Y-75138095D01*
X128697619Y-75147619D01*
X128935714Y-75090476D02*
X128954761Y-75090476D01*
X128973809Y-75100000D01*
X128983333Y-75109523D01*
X128992857Y-75128571D01*
X129002380Y-75166666D01*
X129002380Y-75214285D01*
X128992857Y-75252380D01*
X128983333Y-75271428D01*
X128973809Y-75280952D01*
X128954761Y-75290476D01*
X128935714Y-75290476D01*
X128916666Y-75280952D01*
X128907142Y-75271428D01*
X128897619Y-75252380D01*
X128888095Y-75214285D01*
X128888095Y-75166666D01*
X128897619Y-75128571D01*
X128907142Y-75109523D01*
X128916666Y-75100000D01*
X128935714Y-75090476D01*
X116071428Y-91183333D02*
X116080952Y-91192857D01*
X116090476Y-91221428D01*
X116090476Y-91240476D01*
X116080952Y-91269047D01*
X116061904Y-91288095D01*
X116042857Y-91297619D01*
X116004761Y-91307142D01*
X115976190Y-91307142D01*
X115938095Y-91297619D01*
X115919047Y-91288095D01*
X115900000Y-91269047D01*
X115890476Y-91240476D01*
X115890476Y-91221428D01*
X115900000Y-91192857D01*
X115909523Y-91183333D01*
X115890476Y-91116666D02*
X115890476Y-90992857D01*
X115966666Y-91059523D01*
X115966666Y-91030952D01*
X115976190Y-91011904D01*
X115985714Y-91002380D01*
X116004761Y-90992857D01*
X116052380Y-90992857D01*
X116071428Y-91002380D01*
X116080952Y-91011904D01*
X116090476Y-91030952D01*
X116090476Y-91088095D01*
X116080952Y-91107142D01*
X116071428Y-91116666D01*
X144271428Y-77633333D02*
X144280952Y-77642857D01*
X144290476Y-77671428D01*
X144290476Y-77690476D01*
X144280952Y-77719047D01*
X144261904Y-77738095D01*
X144242857Y-77747619D01*
X144204761Y-77757142D01*
X144176190Y-77757142D01*
X144138095Y-77747619D01*
X144119047Y-77738095D01*
X144100000Y-77719047D01*
X144090476Y-77690476D01*
X144090476Y-77671428D01*
X144100000Y-77642857D01*
X144109523Y-77633333D01*
X144090476Y-77452380D02*
X144090476Y-77547619D01*
X144185714Y-77557142D01*
X144176190Y-77547619D01*
X144166666Y-77528571D01*
X144166666Y-77480952D01*
X144176190Y-77461904D01*
X144185714Y-77452380D01*
X144204761Y-77442857D01*
X144252380Y-77442857D01*
X144271428Y-77452380D01*
X144280952Y-77461904D01*
X144290476Y-77480952D01*
X144290476Y-77528571D01*
X144280952Y-77547619D01*
X144271428Y-77557142D01*
X135216666Y-59571428D02*
X135207142Y-59580952D01*
X135178571Y-59590476D01*
X135159523Y-59590476D01*
X135130952Y-59580952D01*
X135111904Y-59561904D01*
X135102380Y-59542857D01*
X135092857Y-59504761D01*
X135092857Y-59476190D01*
X135102380Y-59438095D01*
X135111904Y-59419047D01*
X135130952Y-59400000D01*
X135159523Y-59390476D01*
X135178571Y-59390476D01*
X135207142Y-59400000D01*
X135216666Y-59409523D01*
X135388095Y-59390476D02*
X135350000Y-59390476D01*
X135330952Y-59400000D01*
X135321428Y-59409523D01*
X135302380Y-59438095D01*
X135292857Y-59476190D01*
X135292857Y-59552380D01*
X135302380Y-59571428D01*
X135311904Y-59580952D01*
X135330952Y-59590476D01*
X135369047Y-59590476D01*
X135388095Y-59580952D01*
X135397619Y-59571428D01*
X135407142Y-59552380D01*
X135407142Y-59504761D01*
X135397619Y-59485714D01*
X135388095Y-59476190D01*
X135369047Y-59466666D01*
X135330952Y-59466666D01*
X135311904Y-59476190D01*
X135302380Y-59485714D01*
X135292857Y-59504761D01*
X129471428Y-81533333D02*
X129480952Y-81542857D01*
X129490476Y-81571428D01*
X129490476Y-81590476D01*
X129480952Y-81619047D01*
X129461904Y-81638095D01*
X129442857Y-81647619D01*
X129404761Y-81657142D01*
X129376190Y-81657142D01*
X129338095Y-81647619D01*
X129319047Y-81638095D01*
X129300000Y-81619047D01*
X129290476Y-81590476D01*
X129290476Y-81571428D01*
X129300000Y-81542857D01*
X129309523Y-81533333D01*
X129290476Y-81466666D02*
X129290476Y-81333333D01*
X129490476Y-81419047D01*
X135216666Y-57471428D02*
X135207142Y-57480952D01*
X135178571Y-57490476D01*
X135159523Y-57490476D01*
X135130952Y-57480952D01*
X135111904Y-57461904D01*
X135102380Y-57442857D01*
X135092857Y-57404761D01*
X135092857Y-57376190D01*
X135102380Y-57338095D01*
X135111904Y-57319047D01*
X135130952Y-57300000D01*
X135159523Y-57290476D01*
X135178571Y-57290476D01*
X135207142Y-57300000D01*
X135216666Y-57309523D01*
X135330952Y-57376190D02*
X135311904Y-57366666D01*
X135302380Y-57357142D01*
X135292857Y-57338095D01*
X135292857Y-57328571D01*
X135302380Y-57309523D01*
X135311904Y-57300000D01*
X135330952Y-57290476D01*
X135369047Y-57290476D01*
X135388095Y-57300000D01*
X135397619Y-57309523D01*
X135407142Y-57328571D01*
X135407142Y-57338095D01*
X135397619Y-57357142D01*
X135388095Y-57366666D01*
X135369047Y-57376190D01*
X135330952Y-57376190D01*
X135311904Y-57385714D01*
X135302380Y-57395238D01*
X135292857Y-57414285D01*
X135292857Y-57452380D01*
X135302380Y-57471428D01*
X135311904Y-57480952D01*
X135330952Y-57490476D01*
X135369047Y-57490476D01*
X135388095Y-57480952D01*
X135397619Y-57471428D01*
X135407142Y-57452380D01*
X135407142Y-57414285D01*
X135397619Y-57395238D01*
X135388095Y-57385714D01*
X135369047Y-57376190D01*
X128716666Y-77371428D02*
X128707142Y-77380952D01*
X128678571Y-77390476D01*
X128659523Y-77390476D01*
X128630952Y-77380952D01*
X128611904Y-77361904D01*
X128602380Y-77342857D01*
X128592857Y-77304761D01*
X128592857Y-77276190D01*
X128602380Y-77238095D01*
X128611904Y-77219047D01*
X128630952Y-77200000D01*
X128659523Y-77190476D01*
X128678571Y-77190476D01*
X128707142Y-77200000D01*
X128716666Y-77209523D01*
X128811904Y-77390476D02*
X128850000Y-77390476D01*
X128869047Y-77380952D01*
X128878571Y-77371428D01*
X128897619Y-77342857D01*
X128907142Y-77304761D01*
X128907142Y-77228571D01*
X128897619Y-77209523D01*
X128888095Y-77200000D01*
X128869047Y-77190476D01*
X128830952Y-77190476D01*
X128811904Y-77200000D01*
X128802380Y-77209523D01*
X128792857Y-77228571D01*
X128792857Y-77276190D01*
X128802380Y-77295238D01*
X128811904Y-77304761D01*
X128830952Y-77314285D01*
X128869047Y-77314285D01*
X128888095Y-77304761D01*
X128897619Y-77295238D01*
X128907142Y-77276190D01*
X141571428Y-95178571D02*
X141580952Y-95188095D01*
X141590476Y-95216666D01*
X141590476Y-95235714D01*
X141580952Y-95264285D01*
X141561904Y-95283333D01*
X141542857Y-95292857D01*
X141504761Y-95302380D01*
X141476190Y-95302380D01*
X141438095Y-95292857D01*
X141419047Y-95283333D01*
X141400000Y-95264285D01*
X141390476Y-95235714D01*
X141390476Y-95216666D01*
X141400000Y-95188095D01*
X141409523Y-95178571D01*
X141590476Y-94988095D02*
X141590476Y-95102380D01*
X141590476Y-95045238D02*
X141390476Y-95045238D01*
X141419047Y-95064285D01*
X141438095Y-95083333D01*
X141447619Y-95102380D01*
X141390476Y-94921428D02*
X141390476Y-94797619D01*
X141466666Y-94864285D01*
X141466666Y-94835714D01*
X141476190Y-94816666D01*
X141485714Y-94807142D01*
X141504761Y-94797619D01*
X141552380Y-94797619D01*
X141571428Y-94807142D01*
X141580952Y-94816666D01*
X141590476Y-94835714D01*
X141590476Y-94892857D01*
X141580952Y-94911904D01*
X141571428Y-94921428D01*
X139571428Y-95228571D02*
X139580952Y-95238095D01*
X139590476Y-95266666D01*
X139590476Y-95285714D01*
X139580952Y-95314285D01*
X139561904Y-95333333D01*
X139542857Y-95342857D01*
X139504761Y-95352380D01*
X139476190Y-95352380D01*
X139438095Y-95342857D01*
X139419047Y-95333333D01*
X139400000Y-95314285D01*
X139390476Y-95285714D01*
X139390476Y-95266666D01*
X139400000Y-95238095D01*
X139409523Y-95228571D01*
X139590476Y-95038095D02*
X139590476Y-95152380D01*
X139590476Y-95095238D02*
X139390476Y-95095238D01*
X139419047Y-95114285D01*
X139438095Y-95133333D01*
X139447619Y-95152380D01*
X139457142Y-94866666D02*
X139590476Y-94866666D01*
X139380952Y-94914285D02*
X139523809Y-94961904D01*
X139523809Y-94838095D01*
X111471428Y-61928571D02*
X111480952Y-61938095D01*
X111490476Y-61966666D01*
X111490476Y-61985714D01*
X111480952Y-62014285D01*
X111461904Y-62033333D01*
X111442857Y-62042857D01*
X111404761Y-62052380D01*
X111376190Y-62052380D01*
X111338095Y-62042857D01*
X111319047Y-62033333D01*
X111300000Y-62014285D01*
X111290476Y-61985714D01*
X111290476Y-61966666D01*
X111300000Y-61938095D01*
X111309523Y-61928571D01*
X111490476Y-61738095D02*
X111490476Y-61852380D01*
X111490476Y-61795238D02*
X111290476Y-61795238D01*
X111319047Y-61814285D01*
X111338095Y-61833333D01*
X111347619Y-61852380D01*
X111290476Y-61557142D02*
X111290476Y-61652380D01*
X111385714Y-61661904D01*
X111376190Y-61652380D01*
X111366666Y-61633333D01*
X111366666Y-61585714D01*
X111376190Y-61566666D01*
X111385714Y-61557142D01*
X111404761Y-61547619D01*
X111452380Y-61547619D01*
X111471428Y-61557142D01*
X111480952Y-61566666D01*
X111490476Y-61585714D01*
X111490476Y-61633333D01*
X111480952Y-61652380D01*
X111471428Y-61661904D01*
X102971428Y-70671428D02*
X102961904Y-70680952D01*
X102933333Y-70690476D01*
X102914285Y-70690476D01*
X102885714Y-70680952D01*
X102866666Y-70661904D01*
X102857142Y-70642857D01*
X102847619Y-70604761D01*
X102847619Y-70576190D01*
X102857142Y-70538095D01*
X102866666Y-70519047D01*
X102885714Y-70500000D01*
X102914285Y-70490476D01*
X102933333Y-70490476D01*
X102961904Y-70500000D01*
X102971428Y-70509523D01*
X103161904Y-70690476D02*
X103047619Y-70690476D01*
X103104761Y-70690476D02*
X103104761Y-70490476D01*
X103085714Y-70519047D01*
X103066666Y-70538095D01*
X103047619Y-70547619D01*
X103228571Y-70490476D02*
X103361904Y-70490476D01*
X103276190Y-70690476D01*
X133771428Y-81578571D02*
X133780952Y-81588095D01*
X133790476Y-81616666D01*
X133790476Y-81635714D01*
X133780952Y-81664285D01*
X133761904Y-81683333D01*
X133742857Y-81692857D01*
X133704761Y-81702380D01*
X133676190Y-81702380D01*
X133638095Y-81692857D01*
X133619047Y-81683333D01*
X133600000Y-81664285D01*
X133590476Y-81635714D01*
X133590476Y-81616666D01*
X133600000Y-81588095D01*
X133609523Y-81578571D01*
X133790476Y-81388095D02*
X133790476Y-81502380D01*
X133790476Y-81445238D02*
X133590476Y-81445238D01*
X133619047Y-81464285D01*
X133638095Y-81483333D01*
X133647619Y-81502380D01*
X133676190Y-81273809D02*
X133666666Y-81292857D01*
X133657142Y-81302380D01*
X133638095Y-81311904D01*
X133628571Y-81311904D01*
X133609523Y-81302380D01*
X133600000Y-81292857D01*
X133590476Y-81273809D01*
X133590476Y-81235714D01*
X133600000Y-81216666D01*
X133609523Y-81207142D01*
X133628571Y-81197619D01*
X133638095Y-81197619D01*
X133657142Y-81207142D01*
X133666666Y-81216666D01*
X133676190Y-81235714D01*
X133676190Y-81273809D01*
X133685714Y-81292857D01*
X133695238Y-81302380D01*
X133714285Y-81311904D01*
X133752380Y-81311904D01*
X133771428Y-81302380D01*
X133780952Y-81292857D01*
X133790476Y-81273809D01*
X133790476Y-81235714D01*
X133780952Y-81216666D01*
X133771428Y-81207142D01*
X133752380Y-81197619D01*
X133714285Y-81197619D01*
X133695238Y-81207142D01*
X133685714Y-81216666D01*
X133676190Y-81235714D01*
X133571428Y-85628571D02*
X133580952Y-85638095D01*
X133590476Y-85666666D01*
X133590476Y-85685714D01*
X133580952Y-85714285D01*
X133561904Y-85733333D01*
X133542857Y-85742857D01*
X133504761Y-85752380D01*
X133476190Y-85752380D01*
X133438095Y-85742857D01*
X133419047Y-85733333D01*
X133400000Y-85714285D01*
X133390476Y-85685714D01*
X133390476Y-85666666D01*
X133400000Y-85638095D01*
X133409523Y-85628571D01*
X133590476Y-85438095D02*
X133590476Y-85552380D01*
X133590476Y-85495238D02*
X133390476Y-85495238D01*
X133419047Y-85514285D01*
X133438095Y-85533333D01*
X133447619Y-85552380D01*
X133590476Y-85342857D02*
X133590476Y-85304761D01*
X133580952Y-85285714D01*
X133571428Y-85276190D01*
X133542857Y-85257142D01*
X133504761Y-85247619D01*
X133428571Y-85247619D01*
X133409523Y-85257142D01*
X133400000Y-85266666D01*
X133390476Y-85285714D01*
X133390476Y-85323809D01*
X133400000Y-85342857D01*
X133409523Y-85352380D01*
X133428571Y-85361904D01*
X133476190Y-85361904D01*
X133495238Y-85352380D01*
X133504761Y-85342857D01*
X133514285Y-85323809D01*
X133514285Y-85285714D01*
X133504761Y-85266666D01*
X133495238Y-85257142D01*
X133476190Y-85247619D01*
X141771428Y-71171428D02*
X141761904Y-71180952D01*
X141733333Y-71190476D01*
X141714285Y-71190476D01*
X141685714Y-71180952D01*
X141666666Y-71161904D01*
X141657142Y-71142857D01*
X141647619Y-71104761D01*
X141647619Y-71076190D01*
X141657142Y-71038095D01*
X141666666Y-71019047D01*
X141685714Y-71000000D01*
X141714285Y-70990476D01*
X141733333Y-70990476D01*
X141761904Y-71000000D01*
X141771428Y-71009523D01*
X141961904Y-71190476D02*
X141847619Y-71190476D01*
X141904761Y-71190476D02*
X141904761Y-70990476D01*
X141885714Y-71019047D01*
X141866666Y-71038095D01*
X141847619Y-71047619D01*
X142152380Y-71190476D02*
X142038095Y-71190476D01*
X142095238Y-71190476D02*
X142095238Y-70990476D01*
X142076190Y-71019047D01*
X142057142Y-71038095D01*
X142038095Y-71047619D01*
X103171428Y-67071428D02*
X103161904Y-67080952D01*
X103133333Y-67090476D01*
X103114285Y-67090476D01*
X103085714Y-67080952D01*
X103066666Y-67061904D01*
X103057142Y-67042857D01*
X103047619Y-67004761D01*
X103047619Y-66976190D01*
X103057142Y-66938095D01*
X103066666Y-66919047D01*
X103085714Y-66900000D01*
X103114285Y-66890476D01*
X103133333Y-66890476D01*
X103161904Y-66900000D01*
X103171428Y-66909523D01*
X103247619Y-66909523D02*
X103257142Y-66900000D01*
X103276190Y-66890476D01*
X103323809Y-66890476D01*
X103342857Y-66900000D01*
X103352380Y-66909523D01*
X103361904Y-66928571D01*
X103361904Y-66947619D01*
X103352380Y-66976190D01*
X103238095Y-67090476D01*
X103361904Y-67090476D01*
X103485714Y-66890476D02*
X103504761Y-66890476D01*
X103523809Y-66900000D01*
X103533333Y-66909523D01*
X103542857Y-66928571D01*
X103552380Y-66966666D01*
X103552380Y-67014285D01*
X103542857Y-67052380D01*
X103533333Y-67071428D01*
X103523809Y-67080952D01*
X103504761Y-67090476D01*
X103485714Y-67090476D01*
X103466666Y-67080952D01*
X103457142Y-67071428D01*
X103447619Y-67052380D01*
X103438095Y-67014285D01*
X103438095Y-66966666D01*
X103447619Y-66928571D01*
X103457142Y-66909523D01*
X103466666Y-66900000D01*
X103485714Y-66890476D01*
X103071428Y-64971428D02*
X103061904Y-64980952D01*
X103033333Y-64990476D01*
X103014285Y-64990476D01*
X102985714Y-64980952D01*
X102966666Y-64961904D01*
X102957142Y-64942857D01*
X102947619Y-64904761D01*
X102947619Y-64876190D01*
X102957142Y-64838095D01*
X102966666Y-64819047D01*
X102985714Y-64800000D01*
X103014285Y-64790476D01*
X103033333Y-64790476D01*
X103061904Y-64800000D01*
X103071428Y-64809523D01*
X103147619Y-64809523D02*
X103157142Y-64800000D01*
X103176190Y-64790476D01*
X103223809Y-64790476D01*
X103242857Y-64800000D01*
X103252380Y-64809523D01*
X103261904Y-64828571D01*
X103261904Y-64847619D01*
X103252380Y-64876190D01*
X103138095Y-64990476D01*
X103261904Y-64990476D01*
X103338095Y-64809523D02*
X103347619Y-64800000D01*
X103366666Y-64790476D01*
X103414285Y-64790476D01*
X103433333Y-64800000D01*
X103442857Y-64809523D01*
X103452380Y-64828571D01*
X103452380Y-64847619D01*
X103442857Y-64876190D01*
X103328571Y-64990476D01*
X103452380Y-64990476D01*
X127271428Y-85528571D02*
X127280952Y-85538095D01*
X127290476Y-85566666D01*
X127290476Y-85585714D01*
X127280952Y-85614285D01*
X127261904Y-85633333D01*
X127242857Y-85642857D01*
X127204761Y-85652380D01*
X127176190Y-85652380D01*
X127138095Y-85642857D01*
X127119047Y-85633333D01*
X127100000Y-85614285D01*
X127090476Y-85585714D01*
X127090476Y-85566666D01*
X127100000Y-85538095D01*
X127109523Y-85528571D01*
X127290476Y-85338095D02*
X127290476Y-85452380D01*
X127290476Y-85395238D02*
X127090476Y-85395238D01*
X127119047Y-85414285D01*
X127138095Y-85433333D01*
X127147619Y-85452380D01*
X127090476Y-85166666D02*
X127090476Y-85204761D01*
X127100000Y-85223809D01*
X127109523Y-85233333D01*
X127138095Y-85252380D01*
X127176190Y-85261904D01*
X127252380Y-85261904D01*
X127271428Y-85252380D01*
X127280952Y-85242857D01*
X127290476Y-85223809D01*
X127290476Y-85185714D01*
X127280952Y-85166666D01*
X127271428Y-85157142D01*
X127252380Y-85147619D01*
X127204761Y-85147619D01*
X127185714Y-85157142D01*
X127176190Y-85166666D01*
X127166666Y-85185714D01*
X127166666Y-85223809D01*
X127176190Y-85242857D01*
X127185714Y-85252380D01*
X127204761Y-85261904D01*
X135871428Y-85528571D02*
X135880952Y-85538095D01*
X135890476Y-85566666D01*
X135890476Y-85585714D01*
X135880952Y-85614285D01*
X135861904Y-85633333D01*
X135842857Y-85642857D01*
X135804761Y-85652380D01*
X135776190Y-85652380D01*
X135738095Y-85642857D01*
X135719047Y-85633333D01*
X135700000Y-85614285D01*
X135690476Y-85585714D01*
X135690476Y-85566666D01*
X135700000Y-85538095D01*
X135709523Y-85528571D01*
X135709523Y-85452380D02*
X135700000Y-85442857D01*
X135690476Y-85423809D01*
X135690476Y-85376190D01*
X135700000Y-85357142D01*
X135709523Y-85347619D01*
X135728571Y-85338095D01*
X135747619Y-85338095D01*
X135776190Y-85347619D01*
X135890476Y-85461904D01*
X135890476Y-85338095D01*
X135890476Y-85147619D02*
X135890476Y-85261904D01*
X135890476Y-85204761D02*
X135690476Y-85204761D01*
X135719047Y-85223809D01*
X135738095Y-85242857D01*
X135747619Y-85261904D01*
X135771428Y-77878571D02*
X135780952Y-77888095D01*
X135790476Y-77916666D01*
X135790476Y-77935714D01*
X135780952Y-77964285D01*
X135761904Y-77983333D01*
X135742857Y-77992857D01*
X135704761Y-78002380D01*
X135676190Y-78002380D01*
X135638095Y-77992857D01*
X135619047Y-77983333D01*
X135600000Y-77964285D01*
X135590476Y-77935714D01*
X135590476Y-77916666D01*
X135600000Y-77888095D01*
X135609523Y-77878571D01*
X135790476Y-77688095D02*
X135790476Y-77802380D01*
X135790476Y-77745238D02*
X135590476Y-77745238D01*
X135619047Y-77764285D01*
X135638095Y-77783333D01*
X135647619Y-77802380D01*
X135609523Y-77611904D02*
X135600000Y-77602380D01*
X135590476Y-77583333D01*
X135590476Y-77535714D01*
X135600000Y-77516666D01*
X135609523Y-77507142D01*
X135628571Y-77497619D01*
X135647619Y-77497619D01*
X135676190Y-77507142D01*
X135790476Y-77621428D01*
X135790476Y-77497619D01*
X127390476Y-81433333D02*
X127295238Y-81500000D01*
X127390476Y-81547619D02*
X127190476Y-81547619D01*
X127190476Y-81471428D01*
X127200000Y-81452380D01*
X127209523Y-81442857D01*
X127228571Y-81433333D01*
X127257142Y-81433333D01*
X127276190Y-81442857D01*
X127285714Y-81452380D01*
X127295238Y-81471428D01*
X127295238Y-81547619D01*
X127390476Y-81338095D02*
X127390476Y-81300000D01*
X127380952Y-81280952D01*
X127371428Y-81271428D01*
X127342857Y-81252380D01*
X127304761Y-81242857D01*
X127228571Y-81242857D01*
X127209523Y-81252380D01*
X127200000Y-81261904D01*
X127190476Y-81280952D01*
X127190476Y-81319047D01*
X127200000Y-81338095D01*
X127209523Y-81347619D01*
X127228571Y-81357142D01*
X127276190Y-81357142D01*
X127295238Y-81347619D01*
X127304761Y-81338095D01*
X127314285Y-81319047D01*
X127314285Y-81280952D01*
X127304761Y-81261904D01*
X127295238Y-81252380D01*
X127276190Y-81242857D01*
X128571428Y-73190476D02*
X128504761Y-73095238D01*
X128457142Y-73190476D02*
X128457142Y-72990476D01*
X128533333Y-72990476D01*
X128552380Y-73000000D01*
X128561904Y-73009523D01*
X128571428Y-73028571D01*
X128571428Y-73057142D01*
X128561904Y-73076190D01*
X128552380Y-73085714D01*
X128533333Y-73095238D01*
X128457142Y-73095238D01*
X128761904Y-73190476D02*
X128647619Y-73190476D01*
X128704761Y-73190476D02*
X128704761Y-72990476D01*
X128685714Y-73019047D01*
X128666666Y-73038095D01*
X128647619Y-73047619D01*
X128952380Y-73190476D02*
X128838095Y-73190476D01*
X128895238Y-73190476D02*
X128895238Y-72990476D01*
X128876190Y-73019047D01*
X128857142Y-73038095D01*
X128838095Y-73047619D01*
X130121428Y-63471428D02*
X130111904Y-63480952D01*
X130083333Y-63490476D01*
X130064285Y-63490476D01*
X130035714Y-63480952D01*
X130016666Y-63461904D01*
X130007142Y-63442857D01*
X129997619Y-63404761D01*
X129997619Y-63376190D01*
X130007142Y-63338095D01*
X130016666Y-63319047D01*
X130035714Y-63300000D01*
X130064285Y-63290476D01*
X130083333Y-63290476D01*
X130111904Y-63300000D01*
X130121428Y-63309523D01*
X130197619Y-63309523D02*
X130207142Y-63300000D01*
X130226190Y-63290476D01*
X130273809Y-63290476D01*
X130292857Y-63300000D01*
X130302380Y-63309523D01*
X130311904Y-63328571D01*
X130311904Y-63347619D01*
X130302380Y-63376190D01*
X130188095Y-63490476D01*
X130311904Y-63490476D01*
X130426190Y-63376190D02*
X130407142Y-63366666D01*
X130397619Y-63357142D01*
X130388095Y-63338095D01*
X130388095Y-63328571D01*
X130397619Y-63309523D01*
X130407142Y-63300000D01*
X130426190Y-63290476D01*
X130464285Y-63290476D01*
X130483333Y-63300000D01*
X130492857Y-63309523D01*
X130502380Y-63328571D01*
X130502380Y-63338095D01*
X130492857Y-63357142D01*
X130483333Y-63366666D01*
X130464285Y-63376190D01*
X130426190Y-63376190D01*
X130407142Y-63385714D01*
X130397619Y-63395238D01*
X130388095Y-63414285D01*
X130388095Y-63452380D01*
X130397619Y-63471428D01*
X130407142Y-63480952D01*
X130426190Y-63490476D01*
X130464285Y-63490476D01*
X130483333Y-63480952D01*
X130492857Y-63471428D01*
X130502380Y-63452380D01*
X130502380Y-63414285D01*
X130492857Y-63395238D01*
X130483333Y-63385714D01*
X130464285Y-63376190D01*
X108252380Y-74690476D02*
X108252380Y-74490476D01*
X108300000Y-74490476D01*
X108328571Y-74500000D01*
X108347619Y-74519047D01*
X108357142Y-74538095D01*
X108366666Y-74576190D01*
X108366666Y-74604761D01*
X108357142Y-74642857D01*
X108347619Y-74661904D01*
X108328571Y-74680952D01*
X108300000Y-74690476D01*
X108252380Y-74690476D01*
X108433333Y-74490476D02*
X108557142Y-74490476D01*
X108490476Y-74566666D01*
X108519047Y-74566666D01*
X108538095Y-74576190D01*
X108547619Y-74585714D01*
X108557142Y-74604761D01*
X108557142Y-74652380D01*
X108547619Y-74671428D01*
X108538095Y-74680952D01*
X108519047Y-74690476D01*
X108461904Y-74690476D01*
X108442857Y-74680952D01*
X108433333Y-74671428D01*
X129271428Y-71071428D02*
X129261904Y-71080952D01*
X129233333Y-71090476D01*
X129214285Y-71090476D01*
X129185714Y-71080952D01*
X129166666Y-71061904D01*
X129157142Y-71042857D01*
X129147619Y-71004761D01*
X129147619Y-70976190D01*
X129157142Y-70938095D01*
X129166666Y-70919047D01*
X129185714Y-70900000D01*
X129214285Y-70890476D01*
X129233333Y-70890476D01*
X129261904Y-70900000D01*
X129271428Y-70909523D01*
X129338095Y-70890476D02*
X129461904Y-70890476D01*
X129395238Y-70966666D01*
X129423809Y-70966666D01*
X129442857Y-70976190D01*
X129452380Y-70985714D01*
X129461904Y-71004761D01*
X129461904Y-71052380D01*
X129452380Y-71071428D01*
X129442857Y-71080952D01*
X129423809Y-71090476D01*
X129366666Y-71090476D01*
X129347619Y-71080952D01*
X129338095Y-71071428D01*
X129585714Y-70890476D02*
X129604761Y-70890476D01*
X129623809Y-70900000D01*
X129633333Y-70909523D01*
X129642857Y-70928571D01*
X129652380Y-70966666D01*
X129652380Y-71014285D01*
X129642857Y-71052380D01*
X129633333Y-71071428D01*
X129623809Y-71080952D01*
X129604761Y-71090476D01*
X129585714Y-71090476D01*
X129566666Y-71080952D01*
X129557142Y-71071428D01*
X129547619Y-71052380D01*
X129538095Y-71014285D01*
X129538095Y-70966666D01*
X129547619Y-70928571D01*
X129557142Y-70909523D01*
X129566666Y-70900000D01*
X129585714Y-70890476D01*
X141771428Y-73290476D02*
X141704761Y-73195238D01*
X141657142Y-73290476D02*
X141657142Y-73090476D01*
X141733333Y-73090476D01*
X141752380Y-73100000D01*
X141761904Y-73109523D01*
X141771428Y-73128571D01*
X141771428Y-73157142D01*
X141761904Y-73176190D01*
X141752380Y-73185714D01*
X141733333Y-73195238D01*
X141657142Y-73195238D01*
X141961904Y-73290476D02*
X141847619Y-73290476D01*
X141904761Y-73290476D02*
X141904761Y-73090476D01*
X141885714Y-73119047D01*
X141866666Y-73138095D01*
X141847619Y-73147619D01*
X142028571Y-73090476D02*
X142152380Y-73090476D01*
X142085714Y-73166666D01*
X142114285Y-73166666D01*
X142133333Y-73176190D01*
X142142857Y-73185714D01*
X142152380Y-73204761D01*
X142152380Y-73252380D01*
X142142857Y-73271428D01*
X142133333Y-73280952D01*
X142114285Y-73290476D01*
X142057142Y-73290476D01*
X142038095Y-73280952D01*
X142028571Y-73271428D01*
X143071428Y-68403571D02*
X143080952Y-68413095D01*
X143090476Y-68441666D01*
X143090476Y-68460714D01*
X143080952Y-68489285D01*
X143061904Y-68508333D01*
X143042857Y-68517857D01*
X143004761Y-68527380D01*
X142976190Y-68527380D01*
X142938095Y-68517857D01*
X142919047Y-68508333D01*
X142900000Y-68489285D01*
X142890476Y-68460714D01*
X142890476Y-68441666D01*
X142900000Y-68413095D01*
X142909523Y-68403571D01*
X142909523Y-68327380D02*
X142900000Y-68317857D01*
X142890476Y-68298809D01*
X142890476Y-68251190D01*
X142900000Y-68232142D01*
X142909523Y-68222619D01*
X142928571Y-68213095D01*
X142947619Y-68213095D01*
X142976190Y-68222619D01*
X143090476Y-68336904D01*
X143090476Y-68213095D01*
X142890476Y-68146428D02*
X142890476Y-68022619D01*
X142966666Y-68089285D01*
X142966666Y-68060714D01*
X142976190Y-68041666D01*
X142985714Y-68032142D01*
X143004761Y-68022619D01*
X143052380Y-68022619D01*
X143071428Y-68032142D01*
X143080952Y-68041666D01*
X143090476Y-68060714D01*
X143090476Y-68117857D01*
X143080952Y-68136904D01*
X143071428Y-68146428D01*
X116737380Y-54790476D02*
X116737380Y-54590476D01*
X116785000Y-54590476D01*
X116813571Y-54600000D01*
X116832619Y-54619047D01*
X116842142Y-54638095D01*
X116851666Y-54676190D01*
X116851666Y-54704761D01*
X116842142Y-54742857D01*
X116832619Y-54761904D01*
X116813571Y-54780952D01*
X116785000Y-54790476D01*
X116737380Y-54790476D01*
X117042142Y-54790476D02*
X116927857Y-54790476D01*
X116985000Y-54790476D02*
X116985000Y-54590476D01*
X116965952Y-54619047D01*
X116946904Y-54638095D01*
X116927857Y-54647619D01*
X114471428Y-69971428D02*
X114461904Y-69980952D01*
X114433333Y-69990476D01*
X114414285Y-69990476D01*
X114385714Y-69980952D01*
X114366666Y-69961904D01*
X114357142Y-69942857D01*
X114347619Y-69904761D01*
X114347619Y-69876190D01*
X114357142Y-69838095D01*
X114366666Y-69819047D01*
X114385714Y-69800000D01*
X114414285Y-69790476D01*
X114433333Y-69790476D01*
X114461904Y-69800000D01*
X114471428Y-69809523D01*
X114547619Y-69809523D02*
X114557142Y-69800000D01*
X114576190Y-69790476D01*
X114623809Y-69790476D01*
X114642857Y-69800000D01*
X114652380Y-69809523D01*
X114661904Y-69828571D01*
X114661904Y-69847619D01*
X114652380Y-69876190D01*
X114538095Y-69990476D01*
X114661904Y-69990476D01*
X114842857Y-69790476D02*
X114747619Y-69790476D01*
X114738095Y-69885714D01*
X114747619Y-69876190D01*
X114766666Y-69866666D01*
X114814285Y-69866666D01*
X114833333Y-69876190D01*
X114842857Y-69885714D01*
X114852380Y-69904761D01*
X114852380Y-69952380D01*
X114842857Y-69971428D01*
X114833333Y-69980952D01*
X114814285Y-69990476D01*
X114766666Y-69990476D01*
X114747619Y-69980952D01*
X114738095Y-69971428D01*
X104890476Y-60797619D02*
X104690476Y-60797619D01*
X104690476Y-60750000D01*
X104700000Y-60721428D01*
X104719047Y-60702380D01*
X104738095Y-60692857D01*
X104776190Y-60683333D01*
X104804761Y-60683333D01*
X104842857Y-60692857D01*
X104861904Y-60702380D01*
X104880952Y-60721428D01*
X104890476Y-60750000D01*
X104890476Y-60797619D01*
X104709523Y-60607142D02*
X104700000Y-60597619D01*
X104690476Y-60578571D01*
X104690476Y-60530952D01*
X104700000Y-60511904D01*
X104709523Y-60502380D01*
X104728571Y-60492857D01*
X104747619Y-60492857D01*
X104776190Y-60502380D01*
X104890476Y-60616666D01*
X104890476Y-60492857D01*
X138787380Y-61990476D02*
X138787380Y-61790476D01*
X138835000Y-61790476D01*
X138863571Y-61800000D01*
X138882619Y-61819047D01*
X138892142Y-61838095D01*
X138901666Y-61876190D01*
X138901666Y-61904761D01*
X138892142Y-61942857D01*
X138882619Y-61961904D01*
X138863571Y-61980952D01*
X138835000Y-61990476D01*
X138787380Y-61990476D01*
X139073095Y-61857142D02*
X139073095Y-61990476D01*
X139025476Y-61780952D02*
X138977857Y-61923809D01*
X139101666Y-61923809D01*
X115271428Y-86928571D02*
X115280952Y-86938095D01*
X115290476Y-86966666D01*
X115290476Y-86985714D01*
X115280952Y-87014285D01*
X115261904Y-87033333D01*
X115242857Y-87042857D01*
X115204761Y-87052380D01*
X115176190Y-87052380D01*
X115138095Y-87042857D01*
X115119047Y-87033333D01*
X115100000Y-87014285D01*
X115090476Y-86985714D01*
X115090476Y-86966666D01*
X115100000Y-86938095D01*
X115109523Y-86928571D01*
X115109523Y-86852380D02*
X115100000Y-86842857D01*
X115090476Y-86823809D01*
X115090476Y-86776190D01*
X115100000Y-86757142D01*
X115109523Y-86747619D01*
X115128571Y-86738095D01*
X115147619Y-86738095D01*
X115176190Y-86747619D01*
X115290476Y-86861904D01*
X115290476Y-86738095D01*
X115090476Y-86671428D02*
X115090476Y-86538095D01*
X115290476Y-86623809D01*
X124890476Y-59566666D02*
X125033333Y-59566666D01*
X125061904Y-59576190D01*
X125080952Y-59595238D01*
X125090476Y-59623809D01*
X125090476Y-59642857D01*
X125090476Y-59366666D02*
X125090476Y-59480952D01*
X125090476Y-59423809D02*
X124890476Y-59423809D01*
X124919047Y-59442857D01*
X124938095Y-59461904D01*
X124947619Y-59480952D01*
X135179166Y-55490476D02*
X135112500Y-55395238D01*
X135064880Y-55490476D02*
X135064880Y-55290476D01*
X135141071Y-55290476D01*
X135160119Y-55300000D01*
X135169642Y-55309523D01*
X135179166Y-55328571D01*
X135179166Y-55357142D01*
X135169642Y-55376190D01*
X135160119Y-55385714D01*
X135141071Y-55395238D01*
X135064880Y-55395238D01*
X135245833Y-55290476D02*
X135369642Y-55290476D01*
X135302976Y-55366666D01*
X135331547Y-55366666D01*
X135350595Y-55376190D01*
X135360119Y-55385714D01*
X135369642Y-55404761D01*
X135369642Y-55452380D01*
X135360119Y-55471428D01*
X135350595Y-55480952D01*
X135331547Y-55490476D01*
X135274404Y-55490476D01*
X135255357Y-55480952D01*
X135245833Y-55471428D01*
X131590476Y-81433333D02*
X131495238Y-81500000D01*
X131590476Y-81547619D02*
X131390476Y-81547619D01*
X131390476Y-81471428D01*
X131400000Y-81452380D01*
X131409523Y-81442857D01*
X131428571Y-81433333D01*
X131457142Y-81433333D01*
X131476190Y-81442857D01*
X131485714Y-81452380D01*
X131495238Y-81471428D01*
X131495238Y-81547619D01*
X131457142Y-81261904D02*
X131590476Y-81261904D01*
X131380952Y-81309523D02*
X131523809Y-81357142D01*
X131523809Y-81233333D01*
X142190476Y-81333333D02*
X142095238Y-81400000D01*
X142190476Y-81447619D02*
X141990476Y-81447619D01*
X141990476Y-81371428D01*
X142000000Y-81352380D01*
X142009523Y-81342857D01*
X142028571Y-81333333D01*
X142057142Y-81333333D01*
X142076190Y-81342857D01*
X142085714Y-81352380D01*
X142095238Y-81371428D01*
X142095238Y-81447619D01*
X142190476Y-81142857D02*
X142190476Y-81257142D01*
X142190476Y-81200000D02*
X141990476Y-81200000D01*
X142019047Y-81219047D01*
X142038095Y-81238095D01*
X142047619Y-81257142D01*
X131666666Y-59590476D02*
X131600000Y-59495238D01*
X131552380Y-59590476D02*
X131552380Y-59390476D01*
X131628571Y-59390476D01*
X131647619Y-59400000D01*
X131657142Y-59409523D01*
X131666666Y-59428571D01*
X131666666Y-59457142D01*
X131657142Y-59476190D01*
X131647619Y-59485714D01*
X131628571Y-59495238D01*
X131552380Y-59495238D01*
X131742857Y-59409523D02*
X131752380Y-59400000D01*
X131771428Y-59390476D01*
X131819047Y-59390476D01*
X131838095Y-59400000D01*
X131847619Y-59409523D01*
X131857142Y-59428571D01*
X131857142Y-59447619D01*
X131847619Y-59476190D01*
X131733333Y-59590476D01*
X131857142Y-59590476D01*
X140971428Y-68403571D02*
X140980952Y-68413095D01*
X140990476Y-68441666D01*
X140990476Y-68460714D01*
X140980952Y-68489285D01*
X140961904Y-68508333D01*
X140942857Y-68517857D01*
X140904761Y-68527380D01*
X140876190Y-68527380D01*
X140838095Y-68517857D01*
X140819047Y-68508333D01*
X140800000Y-68489285D01*
X140790476Y-68460714D01*
X140790476Y-68441666D01*
X140800000Y-68413095D01*
X140809523Y-68403571D01*
X140809523Y-68327380D02*
X140800000Y-68317857D01*
X140790476Y-68298809D01*
X140790476Y-68251190D01*
X140800000Y-68232142D01*
X140809523Y-68222619D01*
X140828571Y-68213095D01*
X140847619Y-68213095D01*
X140876190Y-68222619D01*
X140990476Y-68336904D01*
X140990476Y-68213095D01*
X140857142Y-68041666D02*
X140990476Y-68041666D01*
X140780952Y-68089285D02*
X140923809Y-68136904D01*
X140923809Y-68013095D01*
X142190476Y-77520833D02*
X142095238Y-77587500D01*
X142190476Y-77635119D02*
X141990476Y-77635119D01*
X141990476Y-77558928D01*
X142000000Y-77539880D01*
X142009523Y-77530357D01*
X142028571Y-77520833D01*
X142057142Y-77520833D01*
X142076190Y-77530357D01*
X142085714Y-77539880D01*
X142095238Y-77558928D01*
X142095238Y-77635119D01*
X141990476Y-77339880D02*
X141990476Y-77435119D01*
X142085714Y-77444642D01*
X142076190Y-77435119D01*
X142066666Y-77416071D01*
X142066666Y-77368452D01*
X142076190Y-77349404D01*
X142085714Y-77339880D01*
X142104761Y-77330357D01*
X142152380Y-77330357D01*
X142171428Y-77339880D01*
X142180952Y-77349404D01*
X142190476Y-77368452D01*
X142190476Y-77416071D01*
X142180952Y-77435119D01*
X142171428Y-77444642D01*
X114471428Y-66571428D02*
X114461904Y-66580952D01*
X114433333Y-66590476D01*
X114414285Y-66590476D01*
X114385714Y-66580952D01*
X114366666Y-66561904D01*
X114357142Y-66542857D01*
X114347619Y-66504761D01*
X114347619Y-66476190D01*
X114357142Y-66438095D01*
X114366666Y-66419047D01*
X114385714Y-66400000D01*
X114414285Y-66390476D01*
X114433333Y-66390476D01*
X114461904Y-66400000D01*
X114471428Y-66409523D01*
X114547619Y-66409523D02*
X114557142Y-66400000D01*
X114576190Y-66390476D01*
X114623809Y-66390476D01*
X114642857Y-66400000D01*
X114652380Y-66409523D01*
X114661904Y-66428571D01*
X114661904Y-66447619D01*
X114652380Y-66476190D01*
X114538095Y-66590476D01*
X114661904Y-66590476D01*
X114833333Y-66390476D02*
X114795238Y-66390476D01*
X114776190Y-66400000D01*
X114766666Y-66409523D01*
X114747619Y-66438095D01*
X114738095Y-66476190D01*
X114738095Y-66552380D01*
X114747619Y-66571428D01*
X114757142Y-66580952D01*
X114776190Y-66590476D01*
X114814285Y-66590476D01*
X114833333Y-66580952D01*
X114842857Y-66571428D01*
X114852380Y-66552380D01*
X114852380Y-66504761D01*
X114842857Y-66485714D01*
X114833333Y-66476190D01*
X114814285Y-66466666D01*
X114776190Y-66466666D01*
X114757142Y-66476190D01*
X114747619Y-66485714D01*
X114738095Y-66504761D01*
X129271428Y-66278571D02*
X129280952Y-66288095D01*
X129290476Y-66316666D01*
X129290476Y-66335714D01*
X129280952Y-66364285D01*
X129261904Y-66383333D01*
X129242857Y-66392857D01*
X129204761Y-66402380D01*
X129176190Y-66402380D01*
X129138095Y-66392857D01*
X129119047Y-66383333D01*
X129100000Y-66364285D01*
X129090476Y-66335714D01*
X129090476Y-66316666D01*
X129100000Y-66288095D01*
X129109523Y-66278571D01*
X129109523Y-66202380D02*
X129100000Y-66192857D01*
X129090476Y-66173809D01*
X129090476Y-66126190D01*
X129100000Y-66107142D01*
X129109523Y-66097619D01*
X129128571Y-66088095D01*
X129147619Y-66088095D01*
X129176190Y-66097619D01*
X129290476Y-66211904D01*
X129290476Y-66088095D01*
X129290476Y-65992857D02*
X129290476Y-65954761D01*
X129280952Y-65935714D01*
X129271428Y-65926190D01*
X129242857Y-65907142D01*
X129204761Y-65897619D01*
X129128571Y-65897619D01*
X129109523Y-65907142D01*
X129100000Y-65916666D01*
X129090476Y-65935714D01*
X129090476Y-65973809D01*
X129100000Y-65992857D01*
X129109523Y-66002380D01*
X129128571Y-66011904D01*
X129176190Y-66011904D01*
X129195238Y-66002380D01*
X129204761Y-65992857D01*
X129214285Y-65973809D01*
X129214285Y-65935714D01*
X129204761Y-65916666D01*
X129195238Y-65907142D01*
X129176190Y-65897619D01*
X108257380Y-77090476D02*
X108257380Y-76890476D01*
X108305000Y-76890476D01*
X108333571Y-76900000D01*
X108352619Y-76919047D01*
X108362142Y-76938095D01*
X108371666Y-76976190D01*
X108371666Y-77004761D01*
X108362142Y-77042857D01*
X108352619Y-77061904D01*
X108333571Y-77080952D01*
X108305000Y-77090476D01*
X108257380Y-77090476D01*
X108543095Y-76890476D02*
X108505000Y-76890476D01*
X108485952Y-76900000D01*
X108476428Y-76909523D01*
X108457380Y-76938095D01*
X108447857Y-76976190D01*
X108447857Y-77052380D01*
X108457380Y-77071428D01*
X108466904Y-77080952D01*
X108485952Y-77090476D01*
X108524047Y-77090476D01*
X108543095Y-77080952D01*
X108552619Y-77071428D01*
X108562142Y-77052380D01*
X108562142Y-77004761D01*
X108552619Y-76985714D01*
X108543095Y-76976190D01*
X108524047Y-76966666D01*
X108485952Y-76966666D01*
X108466904Y-76976190D01*
X108457380Y-76985714D01*
X108447857Y-77004761D01*
X107290476Y-60797619D02*
X107090476Y-60797619D01*
X107090476Y-60750000D01*
X107100000Y-60721428D01*
X107119047Y-60702380D01*
X107138095Y-60692857D01*
X107176190Y-60683333D01*
X107204761Y-60683333D01*
X107242857Y-60692857D01*
X107261904Y-60702380D01*
X107280952Y-60721428D01*
X107290476Y-60750000D01*
X107290476Y-60797619D01*
X107090476Y-60502380D02*
X107090476Y-60597619D01*
X107185714Y-60607142D01*
X107176190Y-60597619D01*
X107166666Y-60578571D01*
X107166666Y-60530952D01*
X107176190Y-60511904D01*
X107185714Y-60502380D01*
X107204761Y-60492857D01*
X107252380Y-60492857D01*
X107271428Y-60502380D01*
X107280952Y-60511904D01*
X107290476Y-60530952D01*
X107290476Y-60578571D01*
X107280952Y-60597619D01*
X107271428Y-60607142D01*
X145271428Y-71190476D02*
X145204761Y-71095238D01*
X145157142Y-71190476D02*
X145157142Y-70990476D01*
X145233333Y-70990476D01*
X145252380Y-71000000D01*
X145261904Y-71009523D01*
X145271428Y-71028571D01*
X145271428Y-71057142D01*
X145261904Y-71076190D01*
X145252380Y-71085714D01*
X145233333Y-71095238D01*
X145157142Y-71095238D01*
X145461904Y-71190476D02*
X145347619Y-71190476D01*
X145404761Y-71190476D02*
X145404761Y-70990476D01*
X145385714Y-71019047D01*
X145366666Y-71038095D01*
X145347619Y-71047619D01*
X145585714Y-70990476D02*
X145604761Y-70990476D01*
X145623809Y-71000000D01*
X145633333Y-71009523D01*
X145642857Y-71028571D01*
X145652380Y-71066666D01*
X145652380Y-71114285D01*
X145642857Y-71152380D01*
X145633333Y-71171428D01*
X145623809Y-71180952D01*
X145604761Y-71190476D01*
X145585714Y-71190476D01*
X145566666Y-71180952D01*
X145557142Y-71171428D01*
X145547619Y-71152380D01*
X145538095Y-71114285D01*
X145538095Y-71066666D01*
X145547619Y-71028571D01*
X145557142Y-71009523D01*
X145566666Y-71000000D01*
X145585714Y-70990476D01*
X140671428Y-98490476D02*
X140604761Y-98395238D01*
X140557142Y-98490476D02*
X140557142Y-98290476D01*
X140633333Y-98290476D01*
X140652380Y-98300000D01*
X140661904Y-98309523D01*
X140671428Y-98328571D01*
X140671428Y-98357142D01*
X140661904Y-98376190D01*
X140652380Y-98385714D01*
X140633333Y-98395238D01*
X140557142Y-98395238D01*
X140861904Y-98490476D02*
X140747619Y-98490476D01*
X140804761Y-98490476D02*
X140804761Y-98290476D01*
X140785714Y-98319047D01*
X140766666Y-98338095D01*
X140747619Y-98347619D01*
X140938095Y-98309523D02*
X140947619Y-98300000D01*
X140966666Y-98290476D01*
X141014285Y-98290476D01*
X141033333Y-98300000D01*
X141042857Y-98309523D01*
X141052380Y-98328571D01*
X141052380Y-98347619D01*
X141042857Y-98376190D01*
X140928571Y-98490476D01*
X141052380Y-98490476D01*
X132171428Y-77390476D02*
X132104761Y-77295238D01*
X132057142Y-77390476D02*
X132057142Y-77190476D01*
X132133333Y-77190476D01*
X132152380Y-77200000D01*
X132161904Y-77209523D01*
X132171428Y-77228571D01*
X132171428Y-77257142D01*
X132161904Y-77276190D01*
X132152380Y-77285714D01*
X132133333Y-77295238D01*
X132057142Y-77295238D01*
X132361904Y-77390476D02*
X132247619Y-77390476D01*
X132304761Y-77390476D02*
X132304761Y-77190476D01*
X132285714Y-77219047D01*
X132266666Y-77238095D01*
X132247619Y-77247619D01*
X132533333Y-77257142D02*
X132533333Y-77390476D01*
X132485714Y-77180952D02*
X132438095Y-77323809D01*
X132561904Y-77323809D01*
X138490476Y-77916071D02*
X138395238Y-77982738D01*
X138490476Y-78030357D02*
X138290476Y-78030357D01*
X138290476Y-77954166D01*
X138300000Y-77935119D01*
X138309523Y-77925595D01*
X138328571Y-77916071D01*
X138357142Y-77916071D01*
X138376190Y-77925595D01*
X138385714Y-77935119D01*
X138395238Y-77954166D01*
X138395238Y-78030357D01*
X138490476Y-77725595D02*
X138490476Y-77839880D01*
X138490476Y-77782738D02*
X138290476Y-77782738D01*
X138319047Y-77801785D01*
X138338095Y-77820833D01*
X138347619Y-77839880D01*
X138290476Y-77544642D02*
X138290476Y-77639880D01*
X138385714Y-77649404D01*
X138376190Y-77639880D01*
X138366666Y-77620833D01*
X138366666Y-77573214D01*
X138376190Y-77554166D01*
X138385714Y-77544642D01*
X138404761Y-77535119D01*
X138452380Y-77535119D01*
X138471428Y-77544642D01*
X138480952Y-77554166D01*
X138490476Y-77573214D01*
X138490476Y-77620833D01*
X138480952Y-77639880D01*
X138471428Y-77649404D01*
X120171428Y-67590476D02*
X120104761Y-67495238D01*
X120057142Y-67590476D02*
X120057142Y-67390476D01*
X120133333Y-67390476D01*
X120152380Y-67400000D01*
X120161904Y-67409523D01*
X120171428Y-67428571D01*
X120171428Y-67457142D01*
X120161904Y-67476190D01*
X120152380Y-67485714D01*
X120133333Y-67495238D01*
X120057142Y-67495238D01*
X120238095Y-67390476D02*
X120361904Y-67390476D01*
X120295238Y-67466666D01*
X120323809Y-67466666D01*
X120342857Y-67476190D01*
X120352380Y-67485714D01*
X120361904Y-67504761D01*
X120361904Y-67552380D01*
X120352380Y-67571428D01*
X120342857Y-67580952D01*
X120323809Y-67590476D01*
X120266666Y-67590476D01*
X120247619Y-67580952D01*
X120238095Y-67571428D01*
X120542857Y-67390476D02*
X120447619Y-67390476D01*
X120438095Y-67485714D01*
X120447619Y-67476190D01*
X120466666Y-67466666D01*
X120514285Y-67466666D01*
X120533333Y-67476190D01*
X120542857Y-67485714D01*
X120552380Y-67504761D01*
X120552380Y-67552380D01*
X120542857Y-67571428D01*
X120533333Y-67580952D01*
X120514285Y-67590476D01*
X120466666Y-67590476D01*
X120447619Y-67580952D01*
X120438095Y-67571428D01*
X138871428Y-65590476D02*
X138804761Y-65495238D01*
X138757142Y-65590476D02*
X138757142Y-65390476D01*
X138833333Y-65390476D01*
X138852380Y-65400000D01*
X138861904Y-65409523D01*
X138871428Y-65428571D01*
X138871428Y-65457142D01*
X138861904Y-65476190D01*
X138852380Y-65485714D01*
X138833333Y-65495238D01*
X138757142Y-65495238D01*
X138947619Y-65409523D02*
X138957142Y-65400000D01*
X138976190Y-65390476D01*
X139023809Y-65390476D01*
X139042857Y-65400000D01*
X139052380Y-65409523D01*
X139061904Y-65428571D01*
X139061904Y-65447619D01*
X139052380Y-65476190D01*
X138938095Y-65590476D01*
X139061904Y-65590476D01*
X139128571Y-65390476D02*
X139261904Y-65390476D01*
X139176190Y-65590476D01*
X114371428Y-64490476D02*
X114304761Y-64395238D01*
X114257142Y-64490476D02*
X114257142Y-64290476D01*
X114333333Y-64290476D01*
X114352380Y-64300000D01*
X114361904Y-64309523D01*
X114371428Y-64328571D01*
X114371428Y-64357142D01*
X114361904Y-64376190D01*
X114352380Y-64385714D01*
X114333333Y-64395238D01*
X114257142Y-64395238D01*
X114438095Y-64290476D02*
X114561904Y-64290476D01*
X114495238Y-64366666D01*
X114523809Y-64366666D01*
X114542857Y-64376190D01*
X114552380Y-64385714D01*
X114561904Y-64404761D01*
X114561904Y-64452380D01*
X114552380Y-64471428D01*
X114542857Y-64480952D01*
X114523809Y-64490476D01*
X114466666Y-64490476D01*
X114447619Y-64480952D01*
X114438095Y-64471428D01*
X114733333Y-64290476D02*
X114695238Y-64290476D01*
X114676190Y-64300000D01*
X114666666Y-64309523D01*
X114647619Y-64338095D01*
X114638095Y-64376190D01*
X114638095Y-64452380D01*
X114647619Y-64471428D01*
X114657142Y-64480952D01*
X114676190Y-64490476D01*
X114714285Y-64490476D01*
X114733333Y-64480952D01*
X114742857Y-64471428D01*
X114752380Y-64452380D01*
X114752380Y-64404761D01*
X114742857Y-64385714D01*
X114733333Y-64376190D01*
X114714285Y-64366666D01*
X114676190Y-64366666D01*
X114657142Y-64376190D01*
X114647619Y-64385714D01*
X114638095Y-64404761D01*
X140090476Y-81428571D02*
X139995238Y-81495238D01*
X140090476Y-81542857D02*
X139890476Y-81542857D01*
X139890476Y-81466666D01*
X139900000Y-81447619D01*
X139909523Y-81438095D01*
X139928571Y-81428571D01*
X139957142Y-81428571D01*
X139976190Y-81438095D01*
X139985714Y-81447619D01*
X139995238Y-81466666D01*
X139995238Y-81542857D01*
X139909523Y-81352380D02*
X139900000Y-81342857D01*
X139890476Y-81323809D01*
X139890476Y-81276190D01*
X139900000Y-81257142D01*
X139909523Y-81247619D01*
X139928571Y-81238095D01*
X139947619Y-81238095D01*
X139976190Y-81247619D01*
X140090476Y-81361904D01*
X140090476Y-81238095D01*
X140090476Y-81142857D02*
X140090476Y-81104761D01*
X140080952Y-81085714D01*
X140071428Y-81076190D01*
X140042857Y-81057142D01*
X140004761Y-81047619D01*
X139928571Y-81047619D01*
X139909523Y-81057142D01*
X139900000Y-81066666D01*
X139890476Y-81085714D01*
X139890476Y-81123809D01*
X139900000Y-81142857D01*
X139909523Y-81152380D01*
X139928571Y-81161904D01*
X139976190Y-81161904D01*
X139995238Y-81152380D01*
X140004761Y-81142857D01*
X140014285Y-81123809D01*
X140014285Y-81085714D01*
X140004761Y-81066666D01*
X139995238Y-81057142D01*
X139976190Y-81047619D01*
X113471428Y-74890476D02*
X113404761Y-74795238D01*
X113357142Y-74890476D02*
X113357142Y-74690476D01*
X113433333Y-74690476D01*
X113452380Y-74700000D01*
X113461904Y-74709523D01*
X113471428Y-74728571D01*
X113471428Y-74757142D01*
X113461904Y-74776190D01*
X113452380Y-74785714D01*
X113433333Y-74795238D01*
X113357142Y-74795238D01*
X113547619Y-74709523D02*
X113557142Y-74700000D01*
X113576190Y-74690476D01*
X113623809Y-74690476D01*
X113642857Y-74700000D01*
X113652380Y-74709523D01*
X113661904Y-74728571D01*
X113661904Y-74747619D01*
X113652380Y-74776190D01*
X113538095Y-74890476D01*
X113661904Y-74890476D01*
X113833333Y-74690476D02*
X113795238Y-74690476D01*
X113776190Y-74700000D01*
X113766666Y-74709523D01*
X113747619Y-74738095D01*
X113738095Y-74776190D01*
X113738095Y-74852380D01*
X113747619Y-74871428D01*
X113757142Y-74880952D01*
X113776190Y-74890476D01*
X113814285Y-74890476D01*
X113833333Y-74880952D01*
X113842857Y-74871428D01*
X113852380Y-74852380D01*
X113852380Y-74804761D01*
X113842857Y-74785714D01*
X113833333Y-74776190D01*
X113814285Y-74766666D01*
X113776190Y-74766666D01*
X113757142Y-74776190D01*
X113747619Y-74785714D01*
X113738095Y-74804761D01*
X113423928Y-76890476D02*
X113357261Y-76795238D01*
X113309642Y-76890476D02*
X113309642Y-76690476D01*
X113385833Y-76690476D01*
X113404880Y-76700000D01*
X113414404Y-76709523D01*
X113423928Y-76728571D01*
X113423928Y-76757142D01*
X113414404Y-76776190D01*
X113404880Y-76785714D01*
X113385833Y-76795238D01*
X113309642Y-76795238D01*
X113490595Y-76690476D02*
X113614404Y-76690476D01*
X113547738Y-76766666D01*
X113576309Y-76766666D01*
X113595357Y-76776190D01*
X113604880Y-76785714D01*
X113614404Y-76804761D01*
X113614404Y-76852380D01*
X113604880Y-76871428D01*
X113595357Y-76880952D01*
X113576309Y-76890476D01*
X113519166Y-76890476D01*
X113500119Y-76880952D01*
X113490595Y-76871428D01*
X113804880Y-76890476D02*
X113690595Y-76890476D01*
X113747738Y-76890476D02*
X113747738Y-76690476D01*
X113728690Y-76719047D01*
X113709642Y-76738095D01*
X113690595Y-76747619D01*
X135890476Y-81528571D02*
X135795238Y-81595238D01*
X135890476Y-81642857D02*
X135690476Y-81642857D01*
X135690476Y-81566666D01*
X135700000Y-81547619D01*
X135709523Y-81538095D01*
X135728571Y-81528571D01*
X135757142Y-81528571D01*
X135776190Y-81538095D01*
X135785714Y-81547619D01*
X135795238Y-81566666D01*
X135795238Y-81642857D01*
X135890476Y-81338095D02*
X135890476Y-81452380D01*
X135890476Y-81395238D02*
X135690476Y-81395238D01*
X135719047Y-81414285D01*
X135738095Y-81433333D01*
X135747619Y-81452380D01*
X135890476Y-81242857D02*
X135890476Y-81204761D01*
X135880952Y-81185714D01*
X135871428Y-81176190D01*
X135842857Y-81157142D01*
X135804761Y-81147619D01*
X135728571Y-81147619D01*
X135709523Y-81157142D01*
X135700000Y-81166666D01*
X135690476Y-81185714D01*
X135690476Y-81223809D01*
X135700000Y-81242857D01*
X135709523Y-81252380D01*
X135728571Y-81261904D01*
X135776190Y-81261904D01*
X135795238Y-81252380D01*
X135804761Y-81242857D01*
X135814285Y-81223809D01*
X135814285Y-81185714D01*
X135804761Y-81166666D01*
X135795238Y-81157142D01*
X135776190Y-81147619D01*
X129358928Y-68990476D02*
X129292261Y-68895238D01*
X129244642Y-68990476D02*
X129244642Y-68790476D01*
X129320833Y-68790476D01*
X129339880Y-68800000D01*
X129349404Y-68809523D01*
X129358928Y-68828571D01*
X129358928Y-68857142D01*
X129349404Y-68876190D01*
X129339880Y-68885714D01*
X129320833Y-68895238D01*
X129244642Y-68895238D01*
X129530357Y-68857142D02*
X129530357Y-68990476D01*
X129482738Y-68780952D02*
X129435119Y-68923809D01*
X129558928Y-68923809D01*
X129720833Y-68857142D02*
X129720833Y-68990476D01*
X129673214Y-68780952D02*
X129625595Y-68923809D01*
X129749404Y-68923809D01*
X114083928Y-61730476D02*
X114017261Y-61635238D01*
X113969642Y-61730476D02*
X113969642Y-61530476D01*
X114045833Y-61530476D01*
X114064880Y-61540000D01*
X114074404Y-61549523D01*
X114083928Y-61568571D01*
X114083928Y-61597142D01*
X114074404Y-61616190D01*
X114064880Y-61625714D01*
X114045833Y-61635238D01*
X113969642Y-61635238D01*
X114160119Y-61549523D02*
X114169642Y-61540000D01*
X114188690Y-61530476D01*
X114236309Y-61530476D01*
X114255357Y-61540000D01*
X114264880Y-61549523D01*
X114274404Y-61568571D01*
X114274404Y-61587619D01*
X114264880Y-61616190D01*
X114150595Y-61730476D01*
X114274404Y-61730476D01*
X114455357Y-61530476D02*
X114360119Y-61530476D01*
X114350595Y-61625714D01*
X114360119Y-61616190D01*
X114379166Y-61606666D01*
X114426785Y-61606666D01*
X114445833Y-61616190D01*
X114455357Y-61625714D01*
X114464880Y-61644761D01*
X114464880Y-61692380D01*
X114455357Y-61711428D01*
X114445833Y-61720952D01*
X114426785Y-61730476D01*
X114379166Y-61730476D01*
X114360119Y-61720952D01*
X114350595Y-61711428D01*
X119990476Y-86928571D02*
X119895238Y-86995238D01*
X119990476Y-87042857D02*
X119790476Y-87042857D01*
X119790476Y-86966666D01*
X119800000Y-86947619D01*
X119809523Y-86938095D01*
X119828571Y-86928571D01*
X119857142Y-86928571D01*
X119876190Y-86938095D01*
X119885714Y-86947619D01*
X119895238Y-86966666D01*
X119895238Y-87042857D01*
X119790476Y-86861904D02*
X119790476Y-86738095D01*
X119866666Y-86804761D01*
X119866666Y-86776190D01*
X119876190Y-86757142D01*
X119885714Y-86747619D01*
X119904761Y-86738095D01*
X119952380Y-86738095D01*
X119971428Y-86747619D01*
X119980952Y-86757142D01*
X119990476Y-86776190D01*
X119990476Y-86833333D01*
X119980952Y-86852380D01*
X119971428Y-86861904D01*
X119990476Y-86642857D02*
X119990476Y-86604761D01*
X119980952Y-86585714D01*
X119971428Y-86576190D01*
X119942857Y-86557142D01*
X119904761Y-86547619D01*
X119828571Y-86547619D01*
X119809523Y-86557142D01*
X119800000Y-86566666D01*
X119790476Y-86585714D01*
X119790476Y-86623809D01*
X119800000Y-86642857D01*
X119809523Y-86652380D01*
X119828571Y-86661904D01*
X119876190Y-86661904D01*
X119895238Y-86652380D01*
X119904761Y-86642857D01*
X119914285Y-86623809D01*
X119914285Y-86585714D01*
X119904761Y-86566666D01*
X119895238Y-86557142D01*
X119876190Y-86547619D01*
X108890476Y-68712380D02*
X109052380Y-68712380D01*
X109071428Y-68702857D01*
X109080952Y-68693333D01*
X109090476Y-68674285D01*
X109090476Y-68636190D01*
X109080952Y-68617142D01*
X109071428Y-68607619D01*
X109052380Y-68598095D01*
X108890476Y-68598095D01*
X108957142Y-68417142D02*
X109090476Y-68417142D01*
X108880952Y-68464761D02*
X109023809Y-68512380D01*
X109023809Y-68388571D01*
X131540476Y-85478571D02*
X131445238Y-85545238D01*
X131540476Y-85592857D02*
X131340476Y-85592857D01*
X131340476Y-85516666D01*
X131350000Y-85497619D01*
X131359523Y-85488095D01*
X131378571Y-85478571D01*
X131407142Y-85478571D01*
X131426190Y-85488095D01*
X131435714Y-85497619D01*
X131445238Y-85516666D01*
X131445238Y-85592857D01*
X131359523Y-85402380D02*
X131350000Y-85392857D01*
X131340476Y-85373809D01*
X131340476Y-85326190D01*
X131350000Y-85307142D01*
X131359523Y-85297619D01*
X131378571Y-85288095D01*
X131397619Y-85288095D01*
X131426190Y-85297619D01*
X131540476Y-85411904D01*
X131540476Y-85288095D01*
X131540476Y-85097619D02*
X131540476Y-85211904D01*
X131540476Y-85154761D02*
X131340476Y-85154761D01*
X131369047Y-85173809D01*
X131388095Y-85192857D01*
X131397619Y-85211904D01*
X120171428Y-65590476D02*
X120104761Y-65495238D01*
X120057142Y-65590476D02*
X120057142Y-65390476D01*
X120133333Y-65390476D01*
X120152380Y-65400000D01*
X120161904Y-65409523D01*
X120171428Y-65428571D01*
X120171428Y-65457142D01*
X120161904Y-65476190D01*
X120152380Y-65485714D01*
X120133333Y-65495238D01*
X120057142Y-65495238D01*
X120238095Y-65390476D02*
X120361904Y-65390476D01*
X120295238Y-65466666D01*
X120323809Y-65466666D01*
X120342857Y-65476190D01*
X120352380Y-65485714D01*
X120361904Y-65504761D01*
X120361904Y-65552380D01*
X120352380Y-65571428D01*
X120342857Y-65580952D01*
X120323809Y-65590476D01*
X120266666Y-65590476D01*
X120247619Y-65580952D01*
X120238095Y-65571428D01*
X120476190Y-65476190D02*
X120457142Y-65466666D01*
X120447619Y-65457142D01*
X120438095Y-65438095D01*
X120438095Y-65428571D01*
X120447619Y-65409523D01*
X120457142Y-65400000D01*
X120476190Y-65390476D01*
X120514285Y-65390476D01*
X120533333Y-65400000D01*
X120542857Y-65409523D01*
X120552380Y-65428571D01*
X120552380Y-65438095D01*
X120542857Y-65457142D01*
X120533333Y-65466666D01*
X120514285Y-65476190D01*
X120476190Y-65476190D01*
X120457142Y-65485714D01*
X120447619Y-65495238D01*
X120438095Y-65514285D01*
X120438095Y-65552380D01*
X120447619Y-65571428D01*
X120457142Y-65580952D01*
X120476190Y-65590476D01*
X120514285Y-65590476D01*
X120533333Y-65580952D01*
X120542857Y-65571428D01*
X120552380Y-65552380D01*
X120552380Y-65514285D01*
X120542857Y-65495238D01*
X120533333Y-65485714D01*
X120514285Y-65476190D01*
X135371428Y-65590476D02*
X135304761Y-65495238D01*
X135257142Y-65590476D02*
X135257142Y-65390476D01*
X135333333Y-65390476D01*
X135352380Y-65400000D01*
X135361904Y-65409523D01*
X135371428Y-65428571D01*
X135371428Y-65457142D01*
X135361904Y-65476190D01*
X135352380Y-65485714D01*
X135333333Y-65495238D01*
X135257142Y-65495238D01*
X135438095Y-65390476D02*
X135561904Y-65390476D01*
X135495238Y-65466666D01*
X135523809Y-65466666D01*
X135542857Y-65476190D01*
X135552380Y-65485714D01*
X135561904Y-65504761D01*
X135561904Y-65552380D01*
X135552380Y-65571428D01*
X135542857Y-65580952D01*
X135523809Y-65590476D01*
X135466666Y-65590476D01*
X135447619Y-65580952D01*
X135438095Y-65571428D01*
X135628571Y-65390476D02*
X135752380Y-65390476D01*
X135685714Y-65466666D01*
X135714285Y-65466666D01*
X135733333Y-65476190D01*
X135742857Y-65485714D01*
X135752380Y-65504761D01*
X135752380Y-65552380D01*
X135742857Y-65571428D01*
X135733333Y-65580952D01*
X135714285Y-65590476D01*
X135657142Y-65590476D01*
X135638095Y-65580952D01*
X135628571Y-65571428D01*
X102958928Y-72690476D02*
X102892261Y-72595238D01*
X102844642Y-72690476D02*
X102844642Y-72490476D01*
X102920833Y-72490476D01*
X102939880Y-72500000D01*
X102949404Y-72509523D01*
X102958928Y-72528571D01*
X102958928Y-72557142D01*
X102949404Y-72576190D01*
X102939880Y-72585714D01*
X102920833Y-72595238D01*
X102844642Y-72595238D01*
X103035119Y-72509523D02*
X103044642Y-72500000D01*
X103063690Y-72490476D01*
X103111309Y-72490476D01*
X103130357Y-72500000D01*
X103139880Y-72509523D01*
X103149404Y-72528571D01*
X103149404Y-72547619D01*
X103139880Y-72576190D01*
X103025595Y-72690476D01*
X103149404Y-72690476D01*
X103273214Y-72490476D02*
X103292261Y-72490476D01*
X103311309Y-72500000D01*
X103320833Y-72509523D01*
X103330357Y-72528571D01*
X103339880Y-72566666D01*
X103339880Y-72614285D01*
X103330357Y-72652380D01*
X103320833Y-72671428D01*
X103311309Y-72680952D01*
X103292261Y-72690476D01*
X103273214Y-72690476D01*
X103254166Y-72680952D01*
X103244642Y-72671428D01*
X103235119Y-72652380D01*
X103225595Y-72614285D01*
X103225595Y-72566666D01*
X103235119Y-72528571D01*
X103244642Y-72509523D01*
X103254166Y-72500000D01*
X103273214Y-72490476D01*
X114098928Y-60190476D02*
X114032261Y-60095238D01*
X113984642Y-60190476D02*
X113984642Y-59990476D01*
X114060833Y-59990476D01*
X114079880Y-60000000D01*
X114089404Y-60009523D01*
X114098928Y-60028571D01*
X114098928Y-60057142D01*
X114089404Y-60076190D01*
X114079880Y-60085714D01*
X114060833Y-60095238D01*
X113984642Y-60095238D01*
X114165595Y-59990476D02*
X114289404Y-59990476D01*
X114222738Y-60066666D01*
X114251309Y-60066666D01*
X114270357Y-60076190D01*
X114279880Y-60085714D01*
X114289404Y-60104761D01*
X114289404Y-60152380D01*
X114279880Y-60171428D01*
X114270357Y-60180952D01*
X114251309Y-60190476D01*
X114194166Y-60190476D01*
X114175119Y-60180952D01*
X114165595Y-60171428D01*
X114365595Y-60009523D02*
X114375119Y-60000000D01*
X114394166Y-59990476D01*
X114441785Y-59990476D01*
X114460833Y-60000000D01*
X114470357Y-60009523D01*
X114479880Y-60028571D01*
X114479880Y-60047619D01*
X114470357Y-60076190D01*
X114356071Y-60190476D01*
X114479880Y-60190476D01*
X117390476Y-87016071D02*
X117295238Y-87082738D01*
X117390476Y-87130357D02*
X117190476Y-87130357D01*
X117190476Y-87054166D01*
X117200000Y-87035119D01*
X117209523Y-87025595D01*
X117228571Y-87016071D01*
X117257142Y-87016071D01*
X117276190Y-87025595D01*
X117285714Y-87035119D01*
X117295238Y-87054166D01*
X117295238Y-87130357D01*
X117190476Y-86949404D02*
X117190476Y-86825595D01*
X117266666Y-86892261D01*
X117266666Y-86863690D01*
X117276190Y-86844642D01*
X117285714Y-86835119D01*
X117304761Y-86825595D01*
X117352380Y-86825595D01*
X117371428Y-86835119D01*
X117380952Y-86844642D01*
X117390476Y-86863690D01*
X117390476Y-86920833D01*
X117380952Y-86939880D01*
X117371428Y-86949404D01*
X117257142Y-86654166D02*
X117390476Y-86654166D01*
X117180952Y-86701785D02*
X117323809Y-86749404D01*
X117323809Y-86625595D01*
X114371428Y-72390476D02*
X114304761Y-72295238D01*
X114257142Y-72390476D02*
X114257142Y-72190476D01*
X114333333Y-72190476D01*
X114352380Y-72200000D01*
X114361904Y-72209523D01*
X114371428Y-72228571D01*
X114371428Y-72257142D01*
X114361904Y-72276190D01*
X114352380Y-72285714D01*
X114333333Y-72295238D01*
X114257142Y-72295238D01*
X114438095Y-72190476D02*
X114561904Y-72190476D01*
X114495238Y-72266666D01*
X114523809Y-72266666D01*
X114542857Y-72276190D01*
X114552380Y-72285714D01*
X114561904Y-72304761D01*
X114561904Y-72352380D01*
X114552380Y-72371428D01*
X114542857Y-72380952D01*
X114523809Y-72390476D01*
X114466666Y-72390476D01*
X114447619Y-72380952D01*
X114438095Y-72371428D01*
X114628571Y-72190476D02*
X114761904Y-72190476D01*
X114676190Y-72390476D01*
X133571428Y-90990476D02*
X133504761Y-90895238D01*
X133457142Y-90990476D02*
X133457142Y-90790476D01*
X133533333Y-90790476D01*
X133552380Y-90800000D01*
X133561904Y-90809523D01*
X133571428Y-90828571D01*
X133571428Y-90857142D01*
X133561904Y-90876190D01*
X133552380Y-90885714D01*
X133533333Y-90895238D01*
X133457142Y-90895238D01*
X133647619Y-90809523D02*
X133657142Y-90800000D01*
X133676190Y-90790476D01*
X133723809Y-90790476D01*
X133742857Y-90800000D01*
X133752380Y-90809523D01*
X133761904Y-90828571D01*
X133761904Y-90847619D01*
X133752380Y-90876190D01*
X133638095Y-90990476D01*
X133761904Y-90990476D01*
X133828571Y-90790476D02*
X133952380Y-90790476D01*
X133885714Y-90866666D01*
X133914285Y-90866666D01*
X133933333Y-90876190D01*
X133942857Y-90885714D01*
X133952380Y-90904761D01*
X133952380Y-90952380D01*
X133942857Y-90971428D01*
X133933333Y-90980952D01*
X133914285Y-90990476D01*
X133857142Y-90990476D01*
X133838095Y-90980952D01*
X133828571Y-90971428D01*
X133671428Y-63590476D02*
X133604761Y-63495238D01*
X133557142Y-63590476D02*
X133557142Y-63390476D01*
X133633333Y-63390476D01*
X133652380Y-63400000D01*
X133661904Y-63409523D01*
X133671428Y-63428571D01*
X133671428Y-63457142D01*
X133661904Y-63476190D01*
X133652380Y-63485714D01*
X133633333Y-63495238D01*
X133557142Y-63495238D01*
X133842857Y-63457142D02*
X133842857Y-63590476D01*
X133795238Y-63380952D02*
X133747619Y-63523809D01*
X133871428Y-63523809D01*
X133985714Y-63390476D02*
X134004761Y-63390476D01*
X134023809Y-63400000D01*
X134033333Y-63409523D01*
X134042857Y-63428571D01*
X134052380Y-63466666D01*
X134052380Y-63514285D01*
X134042857Y-63552380D01*
X134033333Y-63571428D01*
X134023809Y-63580952D01*
X134004761Y-63590476D01*
X133985714Y-63590476D01*
X133966666Y-63580952D01*
X133957142Y-63571428D01*
X133947619Y-63552380D01*
X133938095Y-63514285D01*
X133938095Y-63466666D01*
X133947619Y-63428571D01*
X133957142Y-63409523D01*
X133966666Y-63400000D01*
X133985714Y-63390476D01*
X109500476Y-62041071D02*
X109405238Y-62107738D01*
X109500476Y-62155357D02*
X109300476Y-62155357D01*
X109300476Y-62079166D01*
X109310000Y-62060119D01*
X109319523Y-62050595D01*
X109338571Y-62041071D01*
X109367142Y-62041071D01*
X109386190Y-62050595D01*
X109395714Y-62060119D01*
X109405238Y-62079166D01*
X109405238Y-62155357D01*
X109500476Y-61850595D02*
X109500476Y-61964880D01*
X109500476Y-61907738D02*
X109300476Y-61907738D01*
X109329047Y-61926785D01*
X109348095Y-61945833D01*
X109357619Y-61964880D01*
X109300476Y-61783928D02*
X109300476Y-61650595D01*
X109500476Y-61736309D01*
X129390476Y-85528571D02*
X129295238Y-85595238D01*
X129390476Y-85642857D02*
X129190476Y-85642857D01*
X129190476Y-85566666D01*
X129200000Y-85547619D01*
X129209523Y-85538095D01*
X129228571Y-85528571D01*
X129257142Y-85528571D01*
X129276190Y-85538095D01*
X129285714Y-85547619D01*
X129295238Y-85566666D01*
X129295238Y-85642857D01*
X129190476Y-85461904D02*
X129190476Y-85338095D01*
X129266666Y-85404761D01*
X129266666Y-85376190D01*
X129276190Y-85357142D01*
X129285714Y-85347619D01*
X129304761Y-85338095D01*
X129352380Y-85338095D01*
X129371428Y-85347619D01*
X129380952Y-85357142D01*
X129390476Y-85376190D01*
X129390476Y-85433333D01*
X129380952Y-85452380D01*
X129371428Y-85461904D01*
X129190476Y-85214285D02*
X129190476Y-85195238D01*
X129200000Y-85176190D01*
X129209523Y-85166666D01*
X129228571Y-85157142D01*
X129266666Y-85147619D01*
X129314285Y-85147619D01*
X129352380Y-85157142D01*
X129371428Y-85166666D01*
X129380952Y-85176190D01*
X129390476Y-85195238D01*
X129390476Y-85214285D01*
X129380952Y-85233333D01*
X129371428Y-85242857D01*
X129352380Y-85252380D01*
X129314285Y-85261904D01*
X129266666Y-85261904D01*
X129228571Y-85252380D01*
X129209523Y-85242857D01*
X129200000Y-85233333D01*
X129190476Y-85214285D01*
X138090476Y-81428571D02*
X137995238Y-81495238D01*
X138090476Y-81542857D02*
X137890476Y-81542857D01*
X137890476Y-81466666D01*
X137900000Y-81447619D01*
X137909523Y-81438095D01*
X137928571Y-81428571D01*
X137957142Y-81428571D01*
X137976190Y-81438095D01*
X137985714Y-81447619D01*
X137995238Y-81466666D01*
X137995238Y-81542857D01*
X137909523Y-81352380D02*
X137900000Y-81342857D01*
X137890476Y-81323809D01*
X137890476Y-81276190D01*
X137900000Y-81257142D01*
X137909523Y-81247619D01*
X137928571Y-81238095D01*
X137947619Y-81238095D01*
X137976190Y-81247619D01*
X138090476Y-81361904D01*
X138090476Y-81238095D01*
X137976190Y-81123809D02*
X137966666Y-81142857D01*
X137957142Y-81152380D01*
X137938095Y-81161904D01*
X137928571Y-81161904D01*
X137909523Y-81152380D01*
X137900000Y-81142857D01*
X137890476Y-81123809D01*
X137890476Y-81085714D01*
X137900000Y-81066666D01*
X137909523Y-81057142D01*
X137928571Y-81047619D01*
X137938095Y-81047619D01*
X137957142Y-81057142D01*
X137966666Y-81066666D01*
X137976190Y-81085714D01*
X137976190Y-81123809D01*
X137985714Y-81142857D01*
X137995238Y-81152380D01*
X138014285Y-81161904D01*
X138052380Y-81161904D01*
X138071428Y-81152380D01*
X138080952Y-81142857D01*
X138090476Y-81123809D01*
X138090476Y-81085714D01*
X138080952Y-81066666D01*
X138071428Y-81057142D01*
X138052380Y-81047619D01*
X138014285Y-81047619D01*
X137995238Y-81057142D01*
X137985714Y-81066666D01*
X137976190Y-81085714D01*
X109490476Y-87128571D02*
X109395238Y-87195238D01*
X109490476Y-87242857D02*
X109290476Y-87242857D01*
X109290476Y-87166666D01*
X109300000Y-87147619D01*
X109309523Y-87138095D01*
X109328571Y-87128571D01*
X109357142Y-87128571D01*
X109376190Y-87138095D01*
X109385714Y-87147619D01*
X109395238Y-87166666D01*
X109395238Y-87242857D01*
X109357142Y-86957142D02*
X109490476Y-86957142D01*
X109280952Y-87004761D02*
X109423809Y-87052380D01*
X109423809Y-86928571D01*
X109490476Y-86747619D02*
X109490476Y-86861904D01*
X109490476Y-86804761D02*
X109290476Y-86804761D01*
X109319047Y-86823809D01*
X109338095Y-86842857D01*
X109347619Y-86861904D01*
X131858928Y-65590476D02*
X131792261Y-65495238D01*
X131744642Y-65590476D02*
X131744642Y-65390476D01*
X131820833Y-65390476D01*
X131839880Y-65400000D01*
X131849404Y-65409523D01*
X131858928Y-65428571D01*
X131858928Y-65457142D01*
X131849404Y-65476190D01*
X131839880Y-65485714D01*
X131820833Y-65495238D01*
X131744642Y-65495238D01*
X132030357Y-65457142D02*
X132030357Y-65590476D01*
X131982738Y-65380952D02*
X131935119Y-65523809D01*
X132058928Y-65523809D01*
X132116071Y-65390476D02*
X132239880Y-65390476D01*
X132173214Y-65466666D01*
X132201785Y-65466666D01*
X132220833Y-65476190D01*
X132230357Y-65485714D01*
X132239880Y-65504761D01*
X132239880Y-65552380D01*
X132230357Y-65571428D01*
X132220833Y-65580952D01*
X132201785Y-65590476D01*
X132144642Y-65590476D01*
X132125595Y-65580952D01*
X132116071Y-65571428D01*
X133571428Y-88490476D02*
X133504761Y-88395238D01*
X133457142Y-88490476D02*
X133457142Y-88290476D01*
X133533333Y-88290476D01*
X133552380Y-88300000D01*
X133561904Y-88309523D01*
X133571428Y-88328571D01*
X133571428Y-88357142D01*
X133561904Y-88376190D01*
X133552380Y-88385714D01*
X133533333Y-88395238D01*
X133457142Y-88395238D01*
X133647619Y-88309523D02*
X133657142Y-88300000D01*
X133676190Y-88290476D01*
X133723809Y-88290476D01*
X133742857Y-88300000D01*
X133752380Y-88309523D01*
X133761904Y-88328571D01*
X133761904Y-88347619D01*
X133752380Y-88376190D01*
X133638095Y-88490476D01*
X133761904Y-88490476D01*
X133933333Y-88357142D02*
X133933333Y-88490476D01*
X133885714Y-88280952D02*
X133838095Y-88423809D01*
X133961904Y-88423809D01*
X121090476Y-62828571D02*
X120995238Y-62895238D01*
X121090476Y-62942857D02*
X120890476Y-62942857D01*
X120890476Y-62866666D01*
X120900000Y-62847619D01*
X120909523Y-62838095D01*
X120928571Y-62828571D01*
X120957142Y-62828571D01*
X120976190Y-62838095D01*
X120985714Y-62847619D01*
X120995238Y-62866666D01*
X120995238Y-62942857D01*
X120957142Y-62657142D02*
X121090476Y-62657142D01*
X120880952Y-62704761D02*
X121023809Y-62752380D01*
X121023809Y-62628571D01*
X120890476Y-62466666D02*
X120890476Y-62504761D01*
X120900000Y-62523809D01*
X120909523Y-62533333D01*
X120938095Y-62552380D01*
X120976190Y-62561904D01*
X121052380Y-62561904D01*
X121071428Y-62552380D01*
X121080952Y-62542857D01*
X121090476Y-62523809D01*
X121090476Y-62485714D01*
X121080952Y-62466666D01*
X121071428Y-62457142D01*
X121052380Y-62447619D01*
X121004761Y-62447619D01*
X120985714Y-62457142D01*
X120976190Y-62466666D01*
X120966666Y-62485714D01*
X120966666Y-62523809D01*
X120976190Y-62542857D01*
X120985714Y-62552380D01*
X121004761Y-62561904D01*
%LPC*%
D18*
X128500000Y-91300000D03*
D19*
X125250000Y-92300000D03*
X125250000Y-90300000D03*
D18*
X113900000Y-91300000D03*
D19*
X110650000Y-92300000D03*
X110650000Y-90300000D03*
D18*
X121200000Y-91300000D03*
D19*
X117950000Y-92300000D03*
X117950000Y-90300000D03*
G36*
G01*
X117299999Y-59275000D02*
X119500001Y-59275000D01*
G75*
G02*
X119750000Y-59524999I0J-249999D01*
G01*
X119750000Y-60175001D01*
G75*
G02*
X119500001Y-60425000I-249999J0D01*
G01*
X117299999Y-60425000D01*
G75*
G02*
X117050000Y-60175001I0J249999D01*
G01*
X117050000Y-59524999D01*
G75*
G02*
X117299999Y-59275000I249999J0D01*
G01*
G37*
G36*
G01*
X117299999Y-56325000D02*
X119500001Y-56325000D01*
G75*
G02*
X119750000Y-56574999I0J-249999D01*
G01*
X119750000Y-57225001D01*
G75*
G02*
X119500001Y-57475000I-249999J0D01*
G01*
X117299999Y-57475000D01*
G75*
G02*
X117050000Y-57225001I0J249999D01*
G01*
X117050000Y-56574999D01*
G75*
G02*
X117299999Y-56325000I249999J0D01*
G01*
G37*
D20*
X136600000Y-92070000D03*
X136600000Y-90800000D03*
X136600000Y-89530000D03*
X136600000Y-88260000D03*
X142048300Y-88260000D03*
X142048300Y-89530000D03*
X142048300Y-90800000D03*
X142048300Y-92070000D03*
D21*
X145130000Y-67300000D03*
X145130000Y-69205000D03*
X147060400Y-68252500D03*
D22*
X124505000Y-69500000D03*
X122600000Y-69500000D03*
X123552500Y-71430400D03*
X111347500Y-87730400D03*
X113252500Y-87730400D03*
X112300000Y-85800000D03*
G36*
G01*
X115815000Y-84550000D02*
X115815000Y-83050000D01*
G75*
G02*
X115885000Y-82980000I70000J0D01*
G01*
X116435000Y-82980000D01*
G75*
G02*
X116505000Y-83050000I0J-70000D01*
G01*
X116505000Y-84550000D01*
G75*
G02*
X116435000Y-84620000I-70000J0D01*
G01*
X115885000Y-84620000D01*
G75*
G02*
X115815000Y-84550000I0J70000D01*
G01*
G37*
G36*
G01*
X117085000Y-84550000D02*
X117085000Y-83050000D01*
G75*
G02*
X117155000Y-82980000I70000J0D01*
G01*
X117705000Y-82980000D01*
G75*
G02*
X117775000Y-83050000I0J-70000D01*
G01*
X117775000Y-84550000D01*
G75*
G02*
X117705000Y-84620000I-70000J0D01*
G01*
X117155000Y-84620000D01*
G75*
G02*
X117085000Y-84550000I0J70000D01*
G01*
G37*
G36*
G01*
X118355000Y-84550000D02*
X118355000Y-83050000D01*
G75*
G02*
X118425000Y-82980000I70000J0D01*
G01*
X118975000Y-82980000D01*
G75*
G02*
X119045000Y-83050000I0J-70000D01*
G01*
X119045000Y-84550000D01*
G75*
G02*
X118975000Y-84620000I-70000J0D01*
G01*
X118425000Y-84620000D01*
G75*
G02*
X118355000Y-84550000I0J70000D01*
G01*
G37*
G36*
G01*
X119625000Y-84550000D02*
X119625000Y-83050000D01*
G75*
G02*
X119695000Y-82980000I70000J0D01*
G01*
X120245000Y-82980000D01*
G75*
G02*
X120315000Y-83050000I0J-70000D01*
G01*
X120315000Y-84550000D01*
G75*
G02*
X120245000Y-84620000I-70000J0D01*
G01*
X119695000Y-84620000D01*
G75*
G02*
X119625000Y-84550000I0J70000D01*
G01*
G37*
G36*
G01*
X120895000Y-84550000D02*
X120895000Y-83050000D01*
G75*
G02*
X120965000Y-82980000I70000J0D01*
G01*
X121515000Y-82980000D01*
G75*
G02*
X121585000Y-83050000I0J-70000D01*
G01*
X121585000Y-84550000D01*
G75*
G02*
X121515000Y-84620000I-70000J0D01*
G01*
X120965000Y-84620000D01*
G75*
G02*
X120895000Y-84550000I0J70000D01*
G01*
G37*
G36*
G01*
X122165000Y-84550000D02*
X122165000Y-83050000D01*
G75*
G02*
X122235000Y-82980000I70000J0D01*
G01*
X122785000Y-82980000D01*
G75*
G02*
X122855000Y-83050000I0J-70000D01*
G01*
X122855000Y-84550000D01*
G75*
G02*
X122785000Y-84620000I-70000J0D01*
G01*
X122235000Y-84620000D01*
G75*
G02*
X122165000Y-84550000I0J70000D01*
G01*
G37*
G36*
G01*
X123435000Y-84550000D02*
X123435000Y-83050000D01*
G75*
G02*
X123505000Y-82980000I70000J0D01*
G01*
X124055000Y-82980000D01*
G75*
G02*
X124125000Y-83050000I0J-70000D01*
G01*
X124125000Y-84550000D01*
G75*
G02*
X124055000Y-84620000I-70000J0D01*
G01*
X123505000Y-84620000D01*
G75*
G02*
X123435000Y-84550000I0J70000D01*
G01*
G37*
G36*
G01*
X123435000Y-79150000D02*
X123435000Y-77650000D01*
G75*
G02*
X123505000Y-77580000I70000J0D01*
G01*
X124055000Y-77580000D01*
G75*
G02*
X124125000Y-77650000I0J-70000D01*
G01*
X124125000Y-79150000D01*
G75*
G02*
X124055000Y-79220000I-70000J0D01*
G01*
X123505000Y-79220000D01*
G75*
G02*
X123435000Y-79150000I0J70000D01*
G01*
G37*
G36*
G01*
X122165000Y-79150000D02*
X122165000Y-77650000D01*
G75*
G02*
X122235000Y-77580000I70000J0D01*
G01*
X122785000Y-77580000D01*
G75*
G02*
X122855000Y-77650000I0J-70000D01*
G01*
X122855000Y-79150000D01*
G75*
G02*
X122785000Y-79220000I-70000J0D01*
G01*
X122235000Y-79220000D01*
G75*
G02*
X122165000Y-79150000I0J70000D01*
G01*
G37*
G36*
G01*
X120895000Y-79150000D02*
X120895000Y-77650000D01*
G75*
G02*
X120965000Y-77580000I70000J0D01*
G01*
X121515000Y-77580000D01*
G75*
G02*
X121585000Y-77650000I0J-70000D01*
G01*
X121585000Y-79150000D01*
G75*
G02*
X121515000Y-79220000I-70000J0D01*
G01*
X120965000Y-79220000D01*
G75*
G02*
X120895000Y-79150000I0J70000D01*
G01*
G37*
G36*
G01*
X119625000Y-79150000D02*
X119625000Y-77650000D01*
G75*
G02*
X119695000Y-77580000I70000J0D01*
G01*
X120245000Y-77580000D01*
G75*
G02*
X120315000Y-77650000I0J-70000D01*
G01*
X120315000Y-79150000D01*
G75*
G02*
X120245000Y-79220000I-70000J0D01*
G01*
X119695000Y-79220000D01*
G75*
G02*
X119625000Y-79150000I0J70000D01*
G01*
G37*
G36*
G01*
X118355000Y-79150000D02*
X118355000Y-77650000D01*
G75*
G02*
X118425000Y-77580000I70000J0D01*
G01*
X118975000Y-77580000D01*
G75*
G02*
X119045000Y-77650000I0J-70000D01*
G01*
X119045000Y-79150000D01*
G75*
G02*
X118975000Y-79220000I-70000J0D01*
G01*
X118425000Y-79220000D01*
G75*
G02*
X118355000Y-79150000I0J70000D01*
G01*
G37*
G36*
G01*
X117085000Y-79150000D02*
X117085000Y-77650000D01*
G75*
G02*
X117155000Y-77580000I70000J0D01*
G01*
X117705000Y-77580000D01*
G75*
G02*
X117775000Y-77650000I0J-70000D01*
G01*
X117775000Y-79150000D01*
G75*
G02*
X117705000Y-79220000I-70000J0D01*
G01*
X117155000Y-79220000D01*
G75*
G02*
X117085000Y-79150000I0J70000D01*
G01*
G37*
G36*
G01*
X115815000Y-79150000D02*
X115815000Y-77650000D01*
G75*
G02*
X115885000Y-77580000I70000J0D01*
G01*
X116435000Y-77580000D01*
G75*
G02*
X116505000Y-77650000I0J-70000D01*
G01*
X116505000Y-79150000D01*
G75*
G02*
X116435000Y-79220000I-70000J0D01*
G01*
X115885000Y-79220000D01*
G75*
G02*
X115815000Y-79150000I0J70000D01*
G01*
G37*
G36*
G01*
X138450000Y-75415000D02*
X136950000Y-75415000D01*
G75*
G02*
X136880000Y-75345000I0J70000D01*
G01*
X136880000Y-74795000D01*
G75*
G02*
X136950000Y-74725000I70000J0D01*
G01*
X138450000Y-74725000D01*
G75*
G02*
X138520000Y-74795000I0J-70000D01*
G01*
X138520000Y-75345000D01*
G75*
G02*
X138450000Y-75415000I-70000J0D01*
G01*
G37*
G36*
G01*
X138450000Y-74145000D02*
X136950000Y-74145000D01*
G75*
G02*
X136880000Y-74075000I0J70000D01*
G01*
X136880000Y-73525000D01*
G75*
G02*
X136950000Y-73455000I70000J0D01*
G01*
X138450000Y-73455000D01*
G75*
G02*
X138520000Y-73525000I0J-70000D01*
G01*
X138520000Y-74075000D01*
G75*
G02*
X138450000Y-74145000I-70000J0D01*
G01*
G37*
G36*
G01*
X138450000Y-72875000D02*
X136950000Y-72875000D01*
G75*
G02*
X136880000Y-72805000I0J70000D01*
G01*
X136880000Y-72255000D01*
G75*
G02*
X136950000Y-72185000I70000J0D01*
G01*
X138450000Y-72185000D01*
G75*
G02*
X138520000Y-72255000I0J-70000D01*
G01*
X138520000Y-72805000D01*
G75*
G02*
X138450000Y-72875000I-70000J0D01*
G01*
G37*
G36*
G01*
X138450000Y-71605000D02*
X136950000Y-71605000D01*
G75*
G02*
X136880000Y-71535000I0J70000D01*
G01*
X136880000Y-70985000D01*
G75*
G02*
X136950000Y-70915000I70000J0D01*
G01*
X138450000Y-70915000D01*
G75*
G02*
X138520000Y-70985000I0J-70000D01*
G01*
X138520000Y-71535000D01*
G75*
G02*
X138450000Y-71605000I-70000J0D01*
G01*
G37*
G36*
G01*
X138450000Y-70335000D02*
X136950000Y-70335000D01*
G75*
G02*
X136880000Y-70265000I0J70000D01*
G01*
X136880000Y-69715000D01*
G75*
G02*
X136950000Y-69645000I70000J0D01*
G01*
X138450000Y-69645000D01*
G75*
G02*
X138520000Y-69715000I0J-70000D01*
G01*
X138520000Y-70265000D01*
G75*
G02*
X138450000Y-70335000I-70000J0D01*
G01*
G37*
G36*
G01*
X138450000Y-69065000D02*
X136950000Y-69065000D01*
G75*
G02*
X136880000Y-68995000I0J70000D01*
G01*
X136880000Y-68445000D01*
G75*
G02*
X136950000Y-68375000I70000J0D01*
G01*
X138450000Y-68375000D01*
G75*
G02*
X138520000Y-68445000I0J-70000D01*
G01*
X138520000Y-68995000D01*
G75*
G02*
X138450000Y-69065000I-70000J0D01*
G01*
G37*
G36*
G01*
X138450000Y-67795000D02*
X136950000Y-67795000D01*
G75*
G02*
X136880000Y-67725000I0J70000D01*
G01*
X136880000Y-67175000D01*
G75*
G02*
X136950000Y-67105000I70000J0D01*
G01*
X138450000Y-67105000D01*
G75*
G02*
X138520000Y-67175000I0J-70000D01*
G01*
X138520000Y-67725000D01*
G75*
G02*
X138450000Y-67795000I-70000J0D01*
G01*
G37*
G36*
G01*
X133050000Y-67795000D02*
X131550000Y-67795000D01*
G75*
G02*
X131480000Y-67725000I0J70000D01*
G01*
X131480000Y-67175000D01*
G75*
G02*
X131550000Y-67105000I70000J0D01*
G01*
X133050000Y-67105000D01*
G75*
G02*
X133120000Y-67175000I0J-70000D01*
G01*
X133120000Y-67725000D01*
G75*
G02*
X133050000Y-67795000I-70000J0D01*
G01*
G37*
G36*
G01*
X133050000Y-69065000D02*
X131550000Y-69065000D01*
G75*
G02*
X131480000Y-68995000I0J70000D01*
G01*
X131480000Y-68445000D01*
G75*
G02*
X131550000Y-68375000I70000J0D01*
G01*
X133050000Y-68375000D01*
G75*
G02*
X133120000Y-68445000I0J-70000D01*
G01*
X133120000Y-68995000D01*
G75*
G02*
X133050000Y-69065000I-70000J0D01*
G01*
G37*
G36*
G01*
X133050000Y-70335000D02*
X131550000Y-70335000D01*
G75*
G02*
X131480000Y-70265000I0J70000D01*
G01*
X131480000Y-69715000D01*
G75*
G02*
X131550000Y-69645000I70000J0D01*
G01*
X133050000Y-69645000D01*
G75*
G02*
X133120000Y-69715000I0J-70000D01*
G01*
X133120000Y-70265000D01*
G75*
G02*
X133050000Y-70335000I-70000J0D01*
G01*
G37*
G36*
G01*
X133050000Y-71605000D02*
X131550000Y-71605000D01*
G75*
G02*
X131480000Y-71535000I0J70000D01*
G01*
X131480000Y-70985000D01*
G75*
G02*
X131550000Y-70915000I70000J0D01*
G01*
X133050000Y-70915000D01*
G75*
G02*
X133120000Y-70985000I0J-70000D01*
G01*
X133120000Y-71535000D01*
G75*
G02*
X133050000Y-71605000I-70000J0D01*
G01*
G37*
G36*
G01*
X133050000Y-72875000D02*
X131550000Y-72875000D01*
G75*
G02*
X131480000Y-72805000I0J70000D01*
G01*
X131480000Y-72255000D01*
G75*
G02*
X131550000Y-72185000I70000J0D01*
G01*
X133050000Y-72185000D01*
G75*
G02*
X133120000Y-72255000I0J-70000D01*
G01*
X133120000Y-72805000D01*
G75*
G02*
X133050000Y-72875000I-70000J0D01*
G01*
G37*
G36*
G01*
X133050000Y-74145000D02*
X131550000Y-74145000D01*
G75*
G02*
X131480000Y-74075000I0J70000D01*
G01*
X131480000Y-73525000D01*
G75*
G02*
X131550000Y-73455000I70000J0D01*
G01*
X133050000Y-73455000D01*
G75*
G02*
X133120000Y-73525000I0J-70000D01*
G01*
X133120000Y-74075000D01*
G75*
G02*
X133050000Y-74145000I-70000J0D01*
G01*
G37*
G36*
G01*
X133050000Y-75415000D02*
X131550000Y-75415000D01*
G75*
G02*
X131480000Y-75345000I0J70000D01*
G01*
X131480000Y-74795000D01*
G75*
G02*
X131550000Y-74725000I70000J0D01*
G01*
X133050000Y-74725000D01*
G75*
G02*
X133120000Y-74795000I0J-70000D01*
G01*
X133120000Y-75345000D01*
G75*
G02*
X133050000Y-75415000I-70000J0D01*
G01*
G37*
D23*
X125000000Y-63760000D03*
D24*
X125000000Y-66300000D03*
D25*
X128000000Y-94600000D03*
X125000000Y-94600000D03*
X122000000Y-94600000D03*
X119100000Y-94600000D03*
X116100000Y-94600000D03*
X113100000Y-94600000D03*
X137000000Y-94700000D03*
X134000000Y-94700000D03*
X131000000Y-94700000D03*
X128000000Y-97400000D03*
X125000000Y-97400000D03*
X122000000Y-97400000D03*
G36*
G01*
X116995000Y-75890000D02*
X117945000Y-75890000D01*
G75*
G02*
X118195000Y-76140000I0J-250000D01*
G01*
X118195000Y-76640000D01*
G75*
G02*
X117945000Y-76890000I-250000J0D01*
G01*
X116995000Y-76890000D01*
G75*
G02*
X116745000Y-76640000I0J250000D01*
G01*
X116745000Y-76140000D01*
G75*
G02*
X116995000Y-75890000I250000J0D01*
G01*
G37*
G36*
G01*
X116995000Y-73990000D02*
X117945000Y-73990000D01*
G75*
G02*
X118195000Y-74240000I0J-250000D01*
G01*
X118195000Y-74740000D01*
G75*
G02*
X117945000Y-74990000I-250000J0D01*
G01*
X116995000Y-74990000D01*
G75*
G02*
X116745000Y-74740000I0J250000D01*
G01*
X116745000Y-74240000D01*
G75*
G02*
X116995000Y-73990000I250000J0D01*
G01*
G37*
G36*
G01*
X119095000Y-75890000D02*
X120045000Y-75890000D01*
G75*
G02*
X120295000Y-76140000I0J-250000D01*
G01*
X120295000Y-76640000D01*
G75*
G02*
X120045000Y-76890000I-250000J0D01*
G01*
X119095000Y-76890000D01*
G75*
G02*
X118845000Y-76640000I0J250000D01*
G01*
X118845000Y-76140000D01*
G75*
G02*
X119095000Y-75890000I250000J0D01*
G01*
G37*
G36*
G01*
X119095000Y-73990000D02*
X120045000Y-73990000D01*
G75*
G02*
X120295000Y-74240000I0J-250000D01*
G01*
X120295000Y-74740000D01*
G75*
G02*
X120045000Y-74990000I-250000J0D01*
G01*
X119095000Y-74990000D01*
G75*
G02*
X118845000Y-74740000I0J250000D01*
G01*
X118845000Y-74240000D01*
G75*
G02*
X119095000Y-73990000I250000J0D01*
G01*
G37*
G36*
G01*
X136787500Y-97949998D02*
X136787500Y-98850002D01*
G75*
G02*
X136537502Y-99100000I-249998J0D01*
G01*
X136012498Y-99100000D01*
G75*
G02*
X135762500Y-98850002I0J249998D01*
G01*
X135762500Y-97949998D01*
G75*
G02*
X136012498Y-97700000I249998J0D01*
G01*
X136537502Y-97700000D01*
G75*
G02*
X136787500Y-97949998I0J-249998D01*
G01*
G37*
G36*
G01*
X138612500Y-97949998D02*
X138612500Y-98850002D01*
G75*
G02*
X138362502Y-99100000I-249998J0D01*
G01*
X137837498Y-99100000D01*
G75*
G02*
X137587500Y-98850002I0J249998D01*
G01*
X137587500Y-97949998D01*
G75*
G02*
X137837498Y-97700000I249998J0D01*
G01*
X138362502Y-97700000D01*
G75*
G02*
X138612500Y-97949998I0J-249998D01*
G01*
G37*
G36*
G01*
X123775000Y-90700000D02*
X122825000Y-90700000D01*
G75*
G02*
X122575000Y-90450000I0J250000D01*
G01*
X122575000Y-89950000D01*
G75*
G02*
X122825000Y-89700000I250000J0D01*
G01*
X123775000Y-89700000D01*
G75*
G02*
X124025000Y-89950000I0J-250000D01*
G01*
X124025000Y-90450000D01*
G75*
G02*
X123775000Y-90700000I-250000J0D01*
G01*
G37*
G36*
G01*
X123775000Y-92600000D02*
X122825000Y-92600000D01*
G75*
G02*
X122575000Y-92350000I0J250000D01*
G01*
X122575000Y-91850000D01*
G75*
G02*
X122825000Y-91600000I250000J0D01*
G01*
X123775000Y-91600000D01*
G75*
G02*
X124025000Y-91850000I0J-250000D01*
G01*
X124025000Y-92350000D01*
G75*
G02*
X123775000Y-92600000I-250000J0D01*
G01*
G37*
G36*
G01*
X131175000Y-90700000D02*
X130225000Y-90700000D01*
G75*
G02*
X129975000Y-90450000I0J250000D01*
G01*
X129975000Y-89950000D01*
G75*
G02*
X130225000Y-89700000I250000J0D01*
G01*
X131175000Y-89700000D01*
G75*
G02*
X131425000Y-89950000I0J-250000D01*
G01*
X131425000Y-90450000D01*
G75*
G02*
X131175000Y-90700000I-250000J0D01*
G01*
G37*
G36*
G01*
X131175000Y-92600000D02*
X130225000Y-92600000D01*
G75*
G02*
X129975000Y-92350000I0J250000D01*
G01*
X129975000Y-91850000D01*
G75*
G02*
X130225000Y-91600000I250000J0D01*
G01*
X131175000Y-91600000D01*
G75*
G02*
X131425000Y-91850000I0J-250000D01*
G01*
X131425000Y-92350000D01*
G75*
G02*
X131175000Y-92600000I-250000J0D01*
G01*
G37*
G36*
G01*
X129200000Y-75675000D02*
X129200000Y-74725000D01*
G75*
G02*
X129450000Y-74475000I250000J0D01*
G01*
X129950000Y-74475000D01*
G75*
G02*
X130200000Y-74725000I0J-250000D01*
G01*
X130200000Y-75675000D01*
G75*
G02*
X129950000Y-75925000I-250000J0D01*
G01*
X129450000Y-75925000D01*
G75*
G02*
X129200000Y-75675000I0J250000D01*
G01*
G37*
G36*
G01*
X127300000Y-75675000D02*
X127300000Y-74725000D01*
G75*
G02*
X127550000Y-74475000I250000J0D01*
G01*
X128050000Y-74475000D01*
G75*
G02*
X128300000Y-74725000I0J-250000D01*
G01*
X128300000Y-75675000D01*
G75*
G02*
X128050000Y-75925000I-250000J0D01*
G01*
X127550000Y-75925000D01*
G75*
G02*
X127300000Y-75675000I0J250000D01*
G01*
G37*
G36*
G01*
X116475000Y-90700000D02*
X115525000Y-90700000D01*
G75*
G02*
X115275000Y-90450000I0J250000D01*
G01*
X115275000Y-89950000D01*
G75*
G02*
X115525000Y-89700000I250000J0D01*
G01*
X116475000Y-89700000D01*
G75*
G02*
X116725000Y-89950000I0J-250000D01*
G01*
X116725000Y-90450000D01*
G75*
G02*
X116475000Y-90700000I-250000J0D01*
G01*
G37*
G36*
G01*
X116475000Y-92600000D02*
X115525000Y-92600000D01*
G75*
G02*
X115275000Y-92350000I0J250000D01*
G01*
X115275000Y-91850000D01*
G75*
G02*
X115525000Y-91600000I250000J0D01*
G01*
X116475000Y-91600000D01*
G75*
G02*
X116725000Y-91850000I0J-250000D01*
G01*
X116725000Y-92350000D01*
G75*
G02*
X116475000Y-92600000I-250000J0D01*
G01*
G37*
G36*
G01*
X143725000Y-78000000D02*
X144675000Y-78000000D01*
G75*
G02*
X144925000Y-78250000I0J-250000D01*
G01*
X144925000Y-78750000D01*
G75*
G02*
X144675000Y-79000000I-250000J0D01*
G01*
X143725000Y-79000000D01*
G75*
G02*
X143475000Y-78750000I0J250000D01*
G01*
X143475000Y-78250000D01*
G75*
G02*
X143725000Y-78000000I250000J0D01*
G01*
G37*
G36*
G01*
X143725000Y-76100000D02*
X144675000Y-76100000D01*
G75*
G02*
X144925000Y-76350000I0J-250000D01*
G01*
X144925000Y-76850000D01*
G75*
G02*
X144675000Y-77100000I-250000J0D01*
G01*
X143725000Y-77100000D01*
G75*
G02*
X143475000Y-76850000I0J250000D01*
G01*
X143475000Y-76350000D01*
G75*
G02*
X143725000Y-76100000I250000J0D01*
G01*
G37*
G36*
G01*
X134800000Y-59025000D02*
X134800000Y-59975000D01*
G75*
G02*
X134550000Y-60225000I-250000J0D01*
G01*
X134050000Y-60225000D01*
G75*
G02*
X133800000Y-59975000I0J250000D01*
G01*
X133800000Y-59025000D01*
G75*
G02*
X134050000Y-58775000I250000J0D01*
G01*
X134550000Y-58775000D01*
G75*
G02*
X134800000Y-59025000I0J-250000D01*
G01*
G37*
G36*
G01*
X136700000Y-59025000D02*
X136700000Y-59975000D01*
G75*
G02*
X136450000Y-60225000I-250000J0D01*
G01*
X135950000Y-60225000D01*
G75*
G02*
X135700000Y-59975000I0J250000D01*
G01*
X135700000Y-59025000D01*
G75*
G02*
X135950000Y-58775000I250000J0D01*
G01*
X136450000Y-58775000D01*
G75*
G02*
X136700000Y-59025000I0J-250000D01*
G01*
G37*
G36*
G01*
X128825000Y-81950000D02*
X129775000Y-81950000D01*
G75*
G02*
X130025000Y-82200000I0J-250000D01*
G01*
X130025000Y-82700000D01*
G75*
G02*
X129775000Y-82950000I-250000J0D01*
G01*
X128825000Y-82950000D01*
G75*
G02*
X128575000Y-82700000I0J250000D01*
G01*
X128575000Y-82200000D01*
G75*
G02*
X128825000Y-81950000I250000J0D01*
G01*
G37*
G36*
G01*
X128825000Y-80050000D02*
X129775000Y-80050000D01*
G75*
G02*
X130025000Y-80300000I0J-250000D01*
G01*
X130025000Y-80800000D01*
G75*
G02*
X129775000Y-81050000I-250000J0D01*
G01*
X128825000Y-81050000D01*
G75*
G02*
X128575000Y-80800000I0J250000D01*
G01*
X128575000Y-80300000D01*
G75*
G02*
X128825000Y-80050000I250000J0D01*
G01*
G37*
G36*
G01*
X134800000Y-56925000D02*
X134800000Y-57875000D01*
G75*
G02*
X134550000Y-58125000I-250000J0D01*
G01*
X134050000Y-58125000D01*
G75*
G02*
X133800000Y-57875000I0J250000D01*
G01*
X133800000Y-56925000D01*
G75*
G02*
X134050000Y-56675000I250000J0D01*
G01*
X134550000Y-56675000D01*
G75*
G02*
X134800000Y-56925000I0J-250000D01*
G01*
G37*
G36*
G01*
X136700000Y-56925000D02*
X136700000Y-57875000D01*
G75*
G02*
X136450000Y-58125000I-250000J0D01*
G01*
X135950000Y-58125000D01*
G75*
G02*
X135700000Y-57875000I0J250000D01*
G01*
X135700000Y-56925000D01*
G75*
G02*
X135950000Y-56675000I250000J0D01*
G01*
X136450000Y-56675000D01*
G75*
G02*
X136700000Y-56925000I0J-250000D01*
G01*
G37*
G36*
G01*
X129200000Y-77775000D02*
X129200000Y-76825000D01*
G75*
G02*
X129450000Y-76575000I250000J0D01*
G01*
X129950000Y-76575000D01*
G75*
G02*
X130200000Y-76825000I0J-250000D01*
G01*
X130200000Y-77775000D01*
G75*
G02*
X129950000Y-78025000I-250000J0D01*
G01*
X129450000Y-78025000D01*
G75*
G02*
X129200000Y-77775000I0J250000D01*
G01*
G37*
G36*
G01*
X127300000Y-77775000D02*
X127300000Y-76825000D01*
G75*
G02*
X127550000Y-76575000I250000J0D01*
G01*
X128050000Y-76575000D01*
G75*
G02*
X128300000Y-76825000I0J-250000D01*
G01*
X128300000Y-77775000D01*
G75*
G02*
X128050000Y-78025000I-250000J0D01*
G01*
X127550000Y-78025000D01*
G75*
G02*
X127300000Y-77775000I0J250000D01*
G01*
G37*
G36*
G01*
X141975000Y-94600000D02*
X141025000Y-94600000D01*
G75*
G02*
X140775000Y-94350000I0J250000D01*
G01*
X140775000Y-93850000D01*
G75*
G02*
X141025000Y-93600000I250000J0D01*
G01*
X141975000Y-93600000D01*
G75*
G02*
X142225000Y-93850000I0J-250000D01*
G01*
X142225000Y-94350000D01*
G75*
G02*
X141975000Y-94600000I-250000J0D01*
G01*
G37*
G36*
G01*
X141975000Y-96500000D02*
X141025000Y-96500000D01*
G75*
G02*
X140775000Y-96250000I0J250000D01*
G01*
X140775000Y-95750000D01*
G75*
G02*
X141025000Y-95500000I250000J0D01*
G01*
X141975000Y-95500000D01*
G75*
G02*
X142225000Y-95750000I0J-250000D01*
G01*
X142225000Y-96250000D01*
G75*
G02*
X141975000Y-96500000I-250000J0D01*
G01*
G37*
G36*
G01*
X139875000Y-94600000D02*
X138925000Y-94600000D01*
G75*
G02*
X138675000Y-94350000I0J250000D01*
G01*
X138675000Y-93850000D01*
G75*
G02*
X138925000Y-93600000I250000J0D01*
G01*
X139875000Y-93600000D01*
G75*
G02*
X140125000Y-93850000I0J-250000D01*
G01*
X140125000Y-94350000D01*
G75*
G02*
X139875000Y-94600000I-250000J0D01*
G01*
G37*
G36*
G01*
X139875000Y-96500000D02*
X138925000Y-96500000D01*
G75*
G02*
X138675000Y-96250000I0J250000D01*
G01*
X138675000Y-95750000D01*
G75*
G02*
X138925000Y-95500000I250000J0D01*
G01*
X139875000Y-95500000D01*
G75*
G02*
X140125000Y-95750000I0J-250000D01*
G01*
X140125000Y-96250000D01*
G75*
G02*
X139875000Y-96500000I-250000J0D01*
G01*
G37*
G36*
G01*
X110945000Y-62360000D02*
X111895000Y-62360000D01*
G75*
G02*
X112145000Y-62610000I0J-250000D01*
G01*
X112145000Y-63110000D01*
G75*
G02*
X111895000Y-63360000I-250000J0D01*
G01*
X110945000Y-63360000D01*
G75*
G02*
X110695000Y-63110000I0J250000D01*
G01*
X110695000Y-62610000D01*
G75*
G02*
X110945000Y-62360000I250000J0D01*
G01*
G37*
G36*
G01*
X110945000Y-60460000D02*
X111895000Y-60460000D01*
G75*
G02*
X112145000Y-60710000I0J-250000D01*
G01*
X112145000Y-61210000D01*
G75*
G02*
X111895000Y-61460000I-250000J0D01*
G01*
X110945000Y-61460000D01*
G75*
G02*
X110695000Y-61210000I0J250000D01*
G01*
X110695000Y-60710000D01*
G75*
G02*
X110945000Y-60460000I250000J0D01*
G01*
G37*
G36*
G01*
X103550000Y-71015000D02*
X103550000Y-70065000D01*
G75*
G02*
X103800000Y-69815000I250000J0D01*
G01*
X104300000Y-69815000D01*
G75*
G02*
X104550000Y-70065000I0J-250000D01*
G01*
X104550000Y-71015000D01*
G75*
G02*
X104300000Y-71265000I-250000J0D01*
G01*
X103800000Y-71265000D01*
G75*
G02*
X103550000Y-71015000I0J250000D01*
G01*
G37*
G36*
G01*
X101650000Y-71015000D02*
X101650000Y-70065000D01*
G75*
G02*
X101900000Y-69815000I250000J0D01*
G01*
X102400000Y-69815000D01*
G75*
G02*
X102650000Y-70065000I0J-250000D01*
G01*
X102650000Y-71015000D01*
G75*
G02*
X102400000Y-71265000I-250000J0D01*
G01*
X101900000Y-71265000D01*
G75*
G02*
X101650000Y-71015000I0J250000D01*
G01*
G37*
G36*
G01*
X134175000Y-81000000D02*
X133225000Y-81000000D01*
G75*
G02*
X132975000Y-80750000I0J250000D01*
G01*
X132975000Y-80250000D01*
G75*
G02*
X133225000Y-80000000I250000J0D01*
G01*
X134175000Y-80000000D01*
G75*
G02*
X134425000Y-80250000I0J-250000D01*
G01*
X134425000Y-80750000D01*
G75*
G02*
X134175000Y-81000000I-250000J0D01*
G01*
G37*
G36*
G01*
X134175000Y-82900000D02*
X133225000Y-82900000D01*
G75*
G02*
X132975000Y-82650000I0J250000D01*
G01*
X132975000Y-82150000D01*
G75*
G02*
X133225000Y-81900000I250000J0D01*
G01*
X134175000Y-81900000D01*
G75*
G02*
X134425000Y-82150000I0J-250000D01*
G01*
X134425000Y-82650000D01*
G75*
G02*
X134175000Y-82900000I-250000J0D01*
G01*
G37*
G36*
G01*
X133075000Y-85900000D02*
X134025000Y-85900000D01*
G75*
G02*
X134275000Y-86150000I0J-250000D01*
G01*
X134275000Y-86650000D01*
G75*
G02*
X134025000Y-86900000I-250000J0D01*
G01*
X133075000Y-86900000D01*
G75*
G02*
X132825000Y-86650000I0J250000D01*
G01*
X132825000Y-86150000D01*
G75*
G02*
X133075000Y-85900000I250000J0D01*
G01*
G37*
G36*
G01*
X133075000Y-84000000D02*
X134025000Y-84000000D01*
G75*
G02*
X134275000Y-84250000I0J-250000D01*
G01*
X134275000Y-84750000D01*
G75*
G02*
X134025000Y-85000000I-250000J0D01*
G01*
X133075000Y-85000000D01*
G75*
G02*
X132825000Y-84750000I0J250000D01*
G01*
X132825000Y-84250000D01*
G75*
G02*
X133075000Y-84000000I250000J0D01*
G01*
G37*
G36*
G01*
X142300000Y-71575000D02*
X142300000Y-70625000D01*
G75*
G02*
X142550000Y-70375000I250000J0D01*
G01*
X143050000Y-70375000D01*
G75*
G02*
X143300000Y-70625000I0J-250000D01*
G01*
X143300000Y-71575000D01*
G75*
G02*
X143050000Y-71825000I-250000J0D01*
G01*
X142550000Y-71825000D01*
G75*
G02*
X142300000Y-71575000I0J250000D01*
G01*
G37*
G36*
G01*
X140400000Y-71575000D02*
X140400000Y-70625000D01*
G75*
G02*
X140650000Y-70375000I250000J0D01*
G01*
X141150000Y-70375000D01*
G75*
G02*
X141400000Y-70625000I0J-250000D01*
G01*
X141400000Y-71575000D01*
G75*
G02*
X141150000Y-71825000I-250000J0D01*
G01*
X140650000Y-71825000D01*
G75*
G02*
X140400000Y-71575000I0J250000D01*
G01*
G37*
G36*
G01*
X103750000Y-67475000D02*
X103750000Y-66525000D01*
G75*
G02*
X104000000Y-66275000I250000J0D01*
G01*
X104500000Y-66275000D01*
G75*
G02*
X104750000Y-66525000I0J-250000D01*
G01*
X104750000Y-67475000D01*
G75*
G02*
X104500000Y-67725000I-250000J0D01*
G01*
X104000000Y-67725000D01*
G75*
G02*
X103750000Y-67475000I0J250000D01*
G01*
G37*
G36*
G01*
X101850000Y-67475000D02*
X101850000Y-66525000D01*
G75*
G02*
X102100000Y-66275000I250000J0D01*
G01*
X102600000Y-66275000D01*
G75*
G02*
X102850000Y-66525000I0J-250000D01*
G01*
X102850000Y-67475000D01*
G75*
G02*
X102600000Y-67725000I-250000J0D01*
G01*
X102100000Y-67725000D01*
G75*
G02*
X101850000Y-67475000I0J250000D01*
G01*
G37*
G36*
G01*
X103700000Y-65375000D02*
X103700000Y-64425000D01*
G75*
G02*
X103950000Y-64175000I250000J0D01*
G01*
X104450000Y-64175000D01*
G75*
G02*
X104700000Y-64425000I0J-250000D01*
G01*
X104700000Y-65375000D01*
G75*
G02*
X104450000Y-65625000I-250000J0D01*
G01*
X103950000Y-65625000D01*
G75*
G02*
X103700000Y-65375000I0J250000D01*
G01*
G37*
G36*
G01*
X101800000Y-65375000D02*
X101800000Y-64425000D01*
G75*
G02*
X102050000Y-64175000I250000J0D01*
G01*
X102550000Y-64175000D01*
G75*
G02*
X102800000Y-64425000I0J-250000D01*
G01*
X102800000Y-65375000D01*
G75*
G02*
X102550000Y-65625000I-250000J0D01*
G01*
X102050000Y-65625000D01*
G75*
G02*
X101800000Y-65375000I0J250000D01*
G01*
G37*
G36*
G01*
X127675000Y-85000000D02*
X126725000Y-85000000D01*
G75*
G02*
X126475000Y-84750000I0J250000D01*
G01*
X126475000Y-84250000D01*
G75*
G02*
X126725000Y-84000000I250000J0D01*
G01*
X127675000Y-84000000D01*
G75*
G02*
X127925000Y-84250000I0J-250000D01*
G01*
X127925000Y-84750000D01*
G75*
G02*
X127675000Y-85000000I-250000J0D01*
G01*
G37*
G36*
G01*
X127675000Y-86900000D02*
X126725000Y-86900000D01*
G75*
G02*
X126475000Y-86650000I0J250000D01*
G01*
X126475000Y-86150000D01*
G75*
G02*
X126725000Y-85900000I250000J0D01*
G01*
X127675000Y-85900000D01*
G75*
G02*
X127925000Y-86150000I0J-250000D01*
G01*
X127925000Y-86650000D01*
G75*
G02*
X127675000Y-86900000I-250000J0D01*
G01*
G37*
G36*
G01*
X136275000Y-84950000D02*
X135325000Y-84950000D01*
G75*
G02*
X135075000Y-84700000I0J250000D01*
G01*
X135075000Y-84200000D01*
G75*
G02*
X135325000Y-83950000I250000J0D01*
G01*
X136275000Y-83950000D01*
G75*
G02*
X136525000Y-84200000I0J-250000D01*
G01*
X136525000Y-84700000D01*
G75*
G02*
X136275000Y-84950000I-250000J0D01*
G01*
G37*
G36*
G01*
X136275000Y-86850000D02*
X135325000Y-86850000D01*
G75*
G02*
X135075000Y-86600000I0J250000D01*
G01*
X135075000Y-86100000D01*
G75*
G02*
X135325000Y-85850000I250000J0D01*
G01*
X136275000Y-85850000D01*
G75*
G02*
X136525000Y-86100000I0J-250000D01*
G01*
X136525000Y-86600000D01*
G75*
G02*
X136275000Y-86850000I-250000J0D01*
G01*
G37*
G36*
G01*
X136175000Y-77300000D02*
X135225000Y-77300000D01*
G75*
G02*
X134975000Y-77050000I0J250000D01*
G01*
X134975000Y-76550000D01*
G75*
G02*
X135225000Y-76300000I250000J0D01*
G01*
X136175000Y-76300000D01*
G75*
G02*
X136425000Y-76550000I0J-250000D01*
G01*
X136425000Y-77050000D01*
G75*
G02*
X136175000Y-77300000I-250000J0D01*
G01*
G37*
G36*
G01*
X136175000Y-79200000D02*
X135225000Y-79200000D01*
G75*
G02*
X134975000Y-78950000I0J250000D01*
G01*
X134975000Y-78450000D01*
G75*
G02*
X135225000Y-78200000I250000J0D01*
G01*
X136175000Y-78200000D01*
G75*
G02*
X136425000Y-78450000I0J-250000D01*
G01*
X136425000Y-78950000D01*
G75*
G02*
X136175000Y-79200000I-250000J0D01*
G01*
G37*
G36*
G01*
X127700002Y-81037500D02*
X126799998Y-81037500D01*
G75*
G02*
X126550000Y-80787502I0J249998D01*
G01*
X126550000Y-80262498D01*
G75*
G02*
X126799998Y-80012500I249998J0D01*
G01*
X127700002Y-80012500D01*
G75*
G02*
X127950000Y-80262498I0J-249998D01*
G01*
X127950000Y-80787502D01*
G75*
G02*
X127700002Y-81037500I-249998J0D01*
G01*
G37*
G36*
G01*
X127700002Y-82862500D02*
X126799998Y-82862500D01*
G75*
G02*
X126550000Y-82612502I0J249998D01*
G01*
X126550000Y-82087498D01*
G75*
G02*
X126799998Y-81837500I249998J0D01*
G01*
X127700002Y-81837500D01*
G75*
G02*
X127950000Y-82087498I0J-249998D01*
G01*
X127950000Y-82612502D01*
G75*
G02*
X127700002Y-82862500I-249998J0D01*
G01*
G37*
G36*
G01*
X129112500Y-73550002D02*
X129112500Y-72649998D01*
G75*
G02*
X129362498Y-72400000I249998J0D01*
G01*
X129887502Y-72400000D01*
G75*
G02*
X130137500Y-72649998I0J-249998D01*
G01*
X130137500Y-73550002D01*
G75*
G02*
X129887502Y-73800000I-249998J0D01*
G01*
X129362498Y-73800000D01*
G75*
G02*
X129112500Y-73550002I0J249998D01*
G01*
G37*
G36*
G01*
X127287500Y-73550002D02*
X127287500Y-72649998D01*
G75*
G02*
X127537498Y-72400000I249998J0D01*
G01*
X128062502Y-72400000D01*
G75*
G02*
X128312500Y-72649998I0J-249998D01*
G01*
X128312500Y-73550002D01*
G75*
G02*
X128062502Y-73800000I-249998J0D01*
G01*
X127537498Y-73800000D01*
G75*
G02*
X127287500Y-73550002I0J249998D01*
G01*
G37*
G36*
G01*
X130700000Y-63875000D02*
X130700000Y-62925000D01*
G75*
G02*
X130950000Y-62675000I250000J0D01*
G01*
X131450000Y-62675000D01*
G75*
G02*
X131700000Y-62925000I0J-250000D01*
G01*
X131700000Y-63875000D01*
G75*
G02*
X131450000Y-64125000I-250000J0D01*
G01*
X130950000Y-64125000D01*
G75*
G02*
X130700000Y-63875000I0J250000D01*
G01*
G37*
G36*
G01*
X128800000Y-63875000D02*
X128800000Y-62925000D01*
G75*
G02*
X129050000Y-62675000I250000J0D01*
G01*
X129550000Y-62675000D01*
G75*
G02*
X129800000Y-62925000I0J-250000D01*
G01*
X129800000Y-63875000D01*
G75*
G02*
X129550000Y-64125000I-250000J0D01*
G01*
X129050000Y-64125000D01*
G75*
G02*
X128800000Y-63875000I0J250000D01*
G01*
G37*
D26*
X109990000Y-74560000D03*
X106840000Y-74560000D03*
G36*
G01*
X129900000Y-71475000D02*
X129900000Y-70525000D01*
G75*
G02*
X130150000Y-70275000I250000J0D01*
G01*
X130650000Y-70275000D01*
G75*
G02*
X130900000Y-70525000I0J-250000D01*
G01*
X130900000Y-71475000D01*
G75*
G02*
X130650000Y-71725000I-250000J0D01*
G01*
X130150000Y-71725000D01*
G75*
G02*
X129900000Y-71475000I0J250000D01*
G01*
G37*
G36*
G01*
X128000000Y-71475000D02*
X128000000Y-70525000D01*
G75*
G02*
X128250000Y-70275000I250000J0D01*
G01*
X128750000Y-70275000D01*
G75*
G02*
X129000000Y-70525000I0J-250000D01*
G01*
X129000000Y-71475000D01*
G75*
G02*
X128750000Y-71725000I-250000J0D01*
G01*
X128250000Y-71725000D01*
G75*
G02*
X128000000Y-71475000I0J250000D01*
G01*
G37*
G36*
G01*
X141487500Y-72749998D02*
X141487500Y-73650002D01*
G75*
G02*
X141237502Y-73900000I-249998J0D01*
G01*
X140712498Y-73900000D01*
G75*
G02*
X140462500Y-73650002I0J249998D01*
G01*
X140462500Y-72749998D01*
G75*
G02*
X140712498Y-72500000I249998J0D01*
G01*
X141237502Y-72500000D01*
G75*
G02*
X141487500Y-72749998I0J-249998D01*
G01*
G37*
G36*
G01*
X143312500Y-72749998D02*
X143312500Y-73650002D01*
G75*
G02*
X143062502Y-73900000I-249998J0D01*
G01*
X142537498Y-73900000D01*
G75*
G02*
X142287500Y-73650002I0J249998D01*
G01*
X142287500Y-72749998D01*
G75*
G02*
X142537498Y-72500000I249998J0D01*
G01*
X143062502Y-72500000D01*
G75*
G02*
X143312500Y-72749998I0J-249998D01*
G01*
G37*
G36*
G01*
X142475000Y-68725000D02*
X143425000Y-68725000D01*
G75*
G02*
X143675000Y-68975000I0J-250000D01*
G01*
X143675000Y-69475000D01*
G75*
G02*
X143425000Y-69725000I-250000J0D01*
G01*
X142475000Y-69725000D01*
G75*
G02*
X142225000Y-69475000I0J250000D01*
G01*
X142225000Y-68975000D01*
G75*
G02*
X142475000Y-68725000I250000J0D01*
G01*
G37*
G36*
G01*
X142475000Y-66825000D02*
X143425000Y-66825000D01*
G75*
G02*
X143675000Y-67075000I0J-250000D01*
G01*
X143675000Y-67575000D01*
G75*
G02*
X143425000Y-67825000I-250000J0D01*
G01*
X142475000Y-67825000D01*
G75*
G02*
X142225000Y-67575000I0J250000D01*
G01*
X142225000Y-67075000D01*
G75*
G02*
X142475000Y-66825000I250000J0D01*
G01*
G37*
X118450000Y-54700000D03*
X115300000Y-54700000D03*
D27*
X146000000Y-83000000D03*
X104000000Y-83000000D03*
G36*
G01*
X114240000Y-69385000D02*
X114240000Y-70335000D01*
G75*
G02*
X113990000Y-70585000I-250000J0D01*
G01*
X113490000Y-70585000D01*
G75*
G02*
X113240000Y-70335000I0J250000D01*
G01*
X113240000Y-69385000D01*
G75*
G02*
X113490000Y-69135000I250000J0D01*
G01*
X113990000Y-69135000D01*
G75*
G02*
X114240000Y-69385000I0J-250000D01*
G01*
G37*
G36*
G01*
X116140000Y-69385000D02*
X116140000Y-70335000D01*
G75*
G02*
X115890000Y-70585000I-250000J0D01*
G01*
X115390000Y-70585000D01*
G75*
G02*
X115140000Y-70335000I0J250000D01*
G01*
X115140000Y-69385000D01*
G75*
G02*
X115390000Y-69135000I250000J0D01*
G01*
X115890000Y-69135000D01*
G75*
G02*
X116140000Y-69385000I0J-250000D01*
G01*
G37*
D28*
X104800000Y-59050000D03*
X104800000Y-62200000D03*
D26*
X140500000Y-61800000D03*
X137350000Y-61800000D03*
D27*
X146000000Y-88900000D03*
D29*
X104000000Y-96000000D03*
X105000000Y-54000000D03*
X145000000Y-54000000D03*
G36*
G01*
X114725000Y-87300000D02*
X115675000Y-87300000D01*
G75*
G02*
X115925000Y-87550000I0J-250000D01*
G01*
X115925000Y-88050000D01*
G75*
G02*
X115675000Y-88300000I-250000J0D01*
G01*
X114725000Y-88300000D01*
G75*
G02*
X114475000Y-88050000I0J250000D01*
G01*
X114475000Y-87550000D01*
G75*
G02*
X114725000Y-87300000I250000J0D01*
G01*
G37*
G36*
G01*
X114725000Y-85400000D02*
X115675000Y-85400000D01*
G75*
G02*
X115925000Y-85650000I0J-250000D01*
G01*
X115925000Y-86150000D01*
G75*
G02*
X115675000Y-86400000I-250000J0D01*
G01*
X114725000Y-86400000D01*
G75*
G02*
X114475000Y-86150000I0J250000D01*
G01*
X114475000Y-85650000D01*
G75*
G02*
X114725000Y-85400000I250000J0D01*
G01*
G37*
D30*
X125000000Y-59500000D03*
D31*
X125000000Y-53500000D03*
G36*
G01*
X134812500Y-54849998D02*
X134812500Y-55750002D01*
G75*
G02*
X134562502Y-56000000I-249998J0D01*
G01*
X134037498Y-56000000D01*
G75*
G02*
X133787500Y-55750002I0J249998D01*
G01*
X133787500Y-54849998D01*
G75*
G02*
X134037498Y-54600000I249998J0D01*
G01*
X134562502Y-54600000D01*
G75*
G02*
X134812500Y-54849998I0J-249998D01*
G01*
G37*
G36*
G01*
X136637500Y-54849998D02*
X136637500Y-55750002D01*
G75*
G02*
X136387502Y-56000000I-249998J0D01*
G01*
X135862498Y-56000000D01*
G75*
G02*
X135612500Y-55750002I0J249998D01*
G01*
X135612500Y-54849998D01*
G75*
G02*
X135862498Y-54600000I249998J0D01*
G01*
X136387502Y-54600000D01*
G75*
G02*
X136637500Y-54849998I0J-249998D01*
G01*
G37*
G36*
G01*
X130999998Y-81887500D02*
X131900002Y-81887500D01*
G75*
G02*
X132150000Y-82137498I0J-249998D01*
G01*
X132150000Y-82662502D01*
G75*
G02*
X131900002Y-82912500I-249998J0D01*
G01*
X130999998Y-82912500D01*
G75*
G02*
X130750000Y-82662502I0J249998D01*
G01*
X130750000Y-82137498D01*
G75*
G02*
X130999998Y-81887500I249998J0D01*
G01*
G37*
G36*
G01*
X130999998Y-80062500D02*
X131900002Y-80062500D01*
G75*
G02*
X132150000Y-80312498I0J-249998D01*
G01*
X132150000Y-80837502D01*
G75*
G02*
X131900002Y-81087500I-249998J0D01*
G01*
X130999998Y-81087500D01*
G75*
G02*
X130750000Y-80837502I0J249998D01*
G01*
X130750000Y-80312498D01*
G75*
G02*
X130999998Y-80062500I249998J0D01*
G01*
G37*
G36*
G01*
X141649998Y-81712500D02*
X142550002Y-81712500D01*
G75*
G02*
X142800000Y-81962498I0J-249998D01*
G01*
X142800000Y-82487502D01*
G75*
G02*
X142550002Y-82737500I-249998J0D01*
G01*
X141649998Y-82737500D01*
G75*
G02*
X141400000Y-82487502I0J249998D01*
G01*
X141400000Y-81962498D01*
G75*
G02*
X141649998Y-81712500I249998J0D01*
G01*
G37*
G36*
G01*
X141649998Y-79887500D02*
X142550002Y-79887500D01*
G75*
G02*
X142800000Y-80137498I0J-249998D01*
G01*
X142800000Y-80662502D01*
G75*
G02*
X142550002Y-80912500I-249998J0D01*
G01*
X141649998Y-80912500D01*
G75*
G02*
X141400000Y-80662502I0J249998D01*
G01*
X141400000Y-80137498D01*
G75*
G02*
X141649998Y-79887500I249998J0D01*
G01*
G37*
D29*
X146000000Y-96000000D03*
D27*
X104000000Y-89000000D03*
G36*
G01*
X131300000Y-59049998D02*
X131300000Y-59950002D01*
G75*
G02*
X131050002Y-60200000I-249998J0D01*
G01*
X130524998Y-60200000D01*
G75*
G02*
X130275000Y-59950002I0J249998D01*
G01*
X130275000Y-59049998D01*
G75*
G02*
X130524998Y-58800000I249998J0D01*
G01*
X131050002Y-58800000D01*
G75*
G02*
X131300000Y-59049998I0J-249998D01*
G01*
G37*
G36*
G01*
X133125000Y-59049998D02*
X133125000Y-59950002D01*
G75*
G02*
X132875002Y-60200000I-249998J0D01*
G01*
X132349998Y-60200000D01*
G75*
G02*
X132100000Y-59950002I0J249998D01*
G01*
X132100000Y-59049998D01*
G75*
G02*
X132349998Y-58800000I249998J0D01*
G01*
X132875002Y-58800000D01*
G75*
G02*
X133125000Y-59049998I0J-249998D01*
G01*
G37*
G36*
G01*
X140400000Y-68725000D02*
X141350000Y-68725000D01*
G75*
G02*
X141600000Y-68975000I0J-250000D01*
G01*
X141600000Y-69475000D01*
G75*
G02*
X141350000Y-69725000I-250000J0D01*
G01*
X140400000Y-69725000D01*
G75*
G02*
X140150000Y-69475000I0J250000D01*
G01*
X140150000Y-68975000D01*
G75*
G02*
X140400000Y-68725000I250000J0D01*
G01*
G37*
G36*
G01*
X140400000Y-66825000D02*
X141350000Y-66825000D01*
G75*
G02*
X141600000Y-67075000I0J-250000D01*
G01*
X141600000Y-67575000D01*
G75*
G02*
X141350000Y-67825000I-250000J0D01*
G01*
X140400000Y-67825000D01*
G75*
G02*
X140150000Y-67575000I0J250000D01*
G01*
X140150000Y-67075000D01*
G75*
G02*
X140400000Y-66825000I250000J0D01*
G01*
G37*
G36*
G01*
X141649998Y-77887500D02*
X142550002Y-77887500D01*
G75*
G02*
X142800000Y-78137498I0J-249998D01*
G01*
X142800000Y-78662502D01*
G75*
G02*
X142550002Y-78912500I-249998J0D01*
G01*
X141649998Y-78912500D01*
G75*
G02*
X141400000Y-78662502I0J249998D01*
G01*
X141400000Y-78137498D01*
G75*
G02*
X141649998Y-77887500I249998J0D01*
G01*
G37*
G36*
G01*
X141649998Y-76062500D02*
X142550002Y-76062500D01*
G75*
G02*
X142800000Y-76312498I0J-249998D01*
G01*
X142800000Y-76837502D01*
G75*
G02*
X142550002Y-77087500I-249998J0D01*
G01*
X141649998Y-77087500D01*
G75*
G02*
X141400000Y-76837502I0J249998D01*
G01*
X141400000Y-76312498D01*
G75*
G02*
X141649998Y-76062500I249998J0D01*
G01*
G37*
G36*
G01*
X114140000Y-65985000D02*
X114140000Y-66935000D01*
G75*
G02*
X113890000Y-67185000I-250000J0D01*
G01*
X113390000Y-67185000D01*
G75*
G02*
X113140000Y-66935000I0J250000D01*
G01*
X113140000Y-65985000D01*
G75*
G02*
X113390000Y-65735000I250000J0D01*
G01*
X113890000Y-65735000D01*
G75*
G02*
X114140000Y-65985000I0J-250000D01*
G01*
G37*
G36*
G01*
X116040000Y-65985000D02*
X116040000Y-66935000D01*
G75*
G02*
X115790000Y-67185000I-250000J0D01*
G01*
X115290000Y-67185000D01*
G75*
G02*
X115040000Y-66935000I0J250000D01*
G01*
X115040000Y-65985000D01*
G75*
G02*
X115290000Y-65735000I250000J0D01*
G01*
X115790000Y-65735000D01*
G75*
G02*
X116040000Y-65985000I0J-250000D01*
G01*
G37*
G36*
G01*
X128725000Y-66600000D02*
X129675000Y-66600000D01*
G75*
G02*
X129925000Y-66850000I0J-250000D01*
G01*
X129925000Y-67350000D01*
G75*
G02*
X129675000Y-67600000I-250000J0D01*
G01*
X128725000Y-67600000D01*
G75*
G02*
X128475000Y-67350000I0J250000D01*
G01*
X128475000Y-66850000D01*
G75*
G02*
X128725000Y-66600000I250000J0D01*
G01*
G37*
G36*
G01*
X128725000Y-64700000D02*
X129675000Y-64700000D01*
G75*
G02*
X129925000Y-64950000I0J-250000D01*
G01*
X129925000Y-65450000D01*
G75*
G02*
X129675000Y-65700000I-250000J0D01*
G01*
X128725000Y-65700000D01*
G75*
G02*
X128475000Y-65450000I0J250000D01*
G01*
X128475000Y-64950000D01*
G75*
G02*
X128725000Y-64700000I250000J0D01*
G01*
G37*
D26*
X106840000Y-77060000D03*
X109990000Y-77060000D03*
D28*
X107200000Y-59050000D03*
X107200000Y-62200000D03*
G36*
G01*
X145012500Y-70639998D02*
X145012500Y-71540002D01*
G75*
G02*
X144762502Y-71790000I-249998J0D01*
G01*
X144237498Y-71790000D01*
G75*
G02*
X143987500Y-71540002I0J249998D01*
G01*
X143987500Y-70639998D01*
G75*
G02*
X144237498Y-70390000I249998J0D01*
G01*
X144762502Y-70390000D01*
G75*
G02*
X145012500Y-70639998I0J-249998D01*
G01*
G37*
G36*
G01*
X146837500Y-70639998D02*
X146837500Y-71540002D01*
G75*
G02*
X146587502Y-71790000I-249998J0D01*
G01*
X146062498Y-71790000D01*
G75*
G02*
X145812500Y-71540002I0J249998D01*
G01*
X145812500Y-70639998D01*
G75*
G02*
X146062498Y-70390000I249998J0D01*
G01*
X146587502Y-70390000D01*
G75*
G02*
X146837500Y-70639998I0J-249998D01*
G01*
G37*
G36*
G01*
X141212500Y-98850002D02*
X141212500Y-97949998D01*
G75*
G02*
X141462498Y-97700000I249998J0D01*
G01*
X141987502Y-97700000D01*
G75*
G02*
X142237500Y-97949998I0J-249998D01*
G01*
X142237500Y-98850002D01*
G75*
G02*
X141987502Y-99100000I-249998J0D01*
G01*
X141462498Y-99100000D01*
G75*
G02*
X141212500Y-98850002I0J249998D01*
G01*
G37*
G36*
G01*
X139387500Y-98850002D02*
X139387500Y-97949998D01*
G75*
G02*
X139637498Y-97700000I249998J0D01*
G01*
X140162502Y-97700000D01*
G75*
G02*
X140412500Y-97949998I0J-249998D01*
G01*
X140412500Y-98850002D01*
G75*
G02*
X140162502Y-99100000I-249998J0D01*
G01*
X139637498Y-99100000D01*
G75*
G02*
X139387500Y-98850002I0J249998D01*
G01*
G37*
G36*
G01*
X131887500Y-76849998D02*
X131887500Y-77750002D01*
G75*
G02*
X131637502Y-78000000I-249998J0D01*
G01*
X131112498Y-78000000D01*
G75*
G02*
X130862500Y-77750002I0J249998D01*
G01*
X130862500Y-76849998D01*
G75*
G02*
X131112498Y-76600000I249998J0D01*
G01*
X131637502Y-76600000D01*
G75*
G02*
X131887500Y-76849998I0J-249998D01*
G01*
G37*
G36*
G01*
X133712500Y-76849998D02*
X133712500Y-77750002D01*
G75*
G02*
X133462502Y-78000000I-249998J0D01*
G01*
X132937498Y-78000000D01*
G75*
G02*
X132687500Y-77750002I0J249998D01*
G01*
X132687500Y-76849998D01*
G75*
G02*
X132937498Y-76600000I249998J0D01*
G01*
X133462502Y-76600000D01*
G75*
G02*
X133712500Y-76849998I0J-249998D01*
G01*
G37*
G36*
G01*
X137949998Y-78187500D02*
X138850002Y-78187500D01*
G75*
G02*
X139100000Y-78437498I0J-249998D01*
G01*
X139100000Y-78962502D01*
G75*
G02*
X138850002Y-79212500I-249998J0D01*
G01*
X137949998Y-79212500D01*
G75*
G02*
X137700000Y-78962502I0J249998D01*
G01*
X137700000Y-78437498D01*
G75*
G02*
X137949998Y-78187500I249998J0D01*
G01*
G37*
G36*
G01*
X137949998Y-76362500D02*
X138850002Y-76362500D01*
G75*
G02*
X139100000Y-76612498I0J-249998D01*
G01*
X139100000Y-77137502D01*
G75*
G02*
X138850002Y-77387500I-249998J0D01*
G01*
X137949998Y-77387500D01*
G75*
G02*
X137700000Y-77137502I0J249998D01*
G01*
X137700000Y-76612498D01*
G75*
G02*
X137949998Y-76362500I249998J0D01*
G01*
G37*
G36*
G01*
X120700000Y-67950002D02*
X120700000Y-67049998D01*
G75*
G02*
X120949998Y-66800000I249998J0D01*
G01*
X121475002Y-66800000D01*
G75*
G02*
X121725000Y-67049998I0J-249998D01*
G01*
X121725000Y-67950002D01*
G75*
G02*
X121475002Y-68200000I-249998J0D01*
G01*
X120949998Y-68200000D01*
G75*
G02*
X120700000Y-67950002I0J249998D01*
G01*
G37*
G36*
G01*
X118875000Y-67950002D02*
X118875000Y-67049998D01*
G75*
G02*
X119124998Y-66800000I249998J0D01*
G01*
X119650002Y-66800000D01*
G75*
G02*
X119900000Y-67049998I0J-249998D01*
G01*
X119900000Y-67950002D01*
G75*
G02*
X119650002Y-68200000I-249998J0D01*
G01*
X119124998Y-68200000D01*
G75*
G02*
X118875000Y-67950002I0J249998D01*
G01*
G37*
G36*
G01*
X138587500Y-65049998D02*
X138587500Y-65950002D01*
G75*
G02*
X138337502Y-66200000I-249998J0D01*
G01*
X137812498Y-66200000D01*
G75*
G02*
X137562500Y-65950002I0J249998D01*
G01*
X137562500Y-65049998D01*
G75*
G02*
X137812498Y-64800000I249998J0D01*
G01*
X138337502Y-64800000D01*
G75*
G02*
X138587500Y-65049998I0J-249998D01*
G01*
G37*
G36*
G01*
X140412500Y-65049998D02*
X140412500Y-65950002D01*
G75*
G02*
X140162502Y-66200000I-249998J0D01*
G01*
X139637498Y-66200000D01*
G75*
G02*
X139387500Y-65950002I0J249998D01*
G01*
X139387500Y-65049998D01*
G75*
G02*
X139637498Y-64800000I249998J0D01*
G01*
X140162502Y-64800000D01*
G75*
G02*
X140412500Y-65049998I0J-249998D01*
G01*
G37*
G36*
G01*
X114952500Y-64810002D02*
X114952500Y-63909998D01*
G75*
G02*
X115202498Y-63660000I249998J0D01*
G01*
X115727502Y-63660000D01*
G75*
G02*
X115977500Y-63909998I0J-249998D01*
G01*
X115977500Y-64810002D01*
G75*
G02*
X115727502Y-65060000I-249998J0D01*
G01*
X115202498Y-65060000D01*
G75*
G02*
X114952500Y-64810002I0J249998D01*
G01*
G37*
G36*
G01*
X113127500Y-64810002D02*
X113127500Y-63909998D01*
G75*
G02*
X113377498Y-63660000I249998J0D01*
G01*
X113902502Y-63660000D01*
G75*
G02*
X114152500Y-63909998I0J-249998D01*
G01*
X114152500Y-64810002D01*
G75*
G02*
X113902502Y-65060000I-249998J0D01*
G01*
X113377498Y-65060000D01*
G75*
G02*
X113127500Y-64810002I0J249998D01*
G01*
G37*
G36*
G01*
X140450002Y-80912500D02*
X139549998Y-80912500D01*
G75*
G02*
X139300000Y-80662502I0J249998D01*
G01*
X139300000Y-80137498D01*
G75*
G02*
X139549998Y-79887500I249998J0D01*
G01*
X140450002Y-79887500D01*
G75*
G02*
X140700000Y-80137498I0J-249998D01*
G01*
X140700000Y-80662502D01*
G75*
G02*
X140450002Y-80912500I-249998J0D01*
G01*
G37*
G36*
G01*
X140450002Y-82737500D02*
X139549998Y-82737500D01*
G75*
G02*
X139300000Y-82487502I0J249998D01*
G01*
X139300000Y-81962498D01*
G75*
G02*
X139549998Y-81712500I249998J0D01*
G01*
X140450002Y-81712500D01*
G75*
G02*
X140700000Y-81962498I0J-249998D01*
G01*
X140700000Y-82487502D01*
G75*
G02*
X140450002Y-82737500I-249998J0D01*
G01*
G37*
G36*
G01*
X113152500Y-74309998D02*
X113152500Y-75210002D01*
G75*
G02*
X112902502Y-75460000I-249998J0D01*
G01*
X112377498Y-75460000D01*
G75*
G02*
X112127500Y-75210002I0J249998D01*
G01*
X112127500Y-74309998D01*
G75*
G02*
X112377498Y-74060000I249998J0D01*
G01*
X112902502Y-74060000D01*
G75*
G02*
X113152500Y-74309998I0J-249998D01*
G01*
G37*
G36*
G01*
X114977500Y-74309998D02*
X114977500Y-75210002D01*
G75*
G02*
X114727502Y-75460000I-249998J0D01*
G01*
X114202498Y-75460000D01*
G75*
G02*
X113952500Y-75210002I0J249998D01*
G01*
X113952500Y-74309998D01*
G75*
G02*
X114202498Y-74060000I249998J0D01*
G01*
X114727502Y-74060000D01*
G75*
G02*
X114977500Y-74309998I0J-249998D01*
G01*
G37*
G36*
G01*
X113952500Y-77210002D02*
X113952500Y-76309998D01*
G75*
G02*
X114202498Y-76060000I249998J0D01*
G01*
X114727502Y-76060000D01*
G75*
G02*
X114977500Y-76309998I0J-249998D01*
G01*
X114977500Y-77210002D01*
G75*
G02*
X114727502Y-77460000I-249998J0D01*
G01*
X114202498Y-77460000D01*
G75*
G02*
X113952500Y-77210002I0J249998D01*
G01*
G37*
G36*
G01*
X112127500Y-77210002D02*
X112127500Y-76309998D01*
G75*
G02*
X112377498Y-76060000I249998J0D01*
G01*
X112902502Y-76060000D01*
G75*
G02*
X113152500Y-76309998I0J-249998D01*
G01*
X113152500Y-77210002D01*
G75*
G02*
X112902502Y-77460000I-249998J0D01*
G01*
X112377498Y-77460000D01*
G75*
G02*
X112127500Y-77210002I0J249998D01*
G01*
G37*
G36*
G01*
X135349998Y-81787500D02*
X136250002Y-81787500D01*
G75*
G02*
X136500000Y-82037498I0J-249998D01*
G01*
X136500000Y-82562502D01*
G75*
G02*
X136250002Y-82812500I-249998J0D01*
G01*
X135349998Y-82812500D01*
G75*
G02*
X135100000Y-82562502I0J249998D01*
G01*
X135100000Y-82037498D01*
G75*
G02*
X135349998Y-81787500I249998J0D01*
G01*
G37*
G36*
G01*
X135349998Y-79962500D02*
X136250002Y-79962500D01*
G75*
G02*
X136500000Y-80212498I0J-249998D01*
G01*
X136500000Y-80737502D01*
G75*
G02*
X136250002Y-80987500I-249998J0D01*
G01*
X135349998Y-80987500D01*
G75*
G02*
X135100000Y-80737502I0J249998D01*
G01*
X135100000Y-80212498D01*
G75*
G02*
X135349998Y-79962500I249998J0D01*
G01*
G37*
G36*
G01*
X129887500Y-69350002D02*
X129887500Y-68449998D01*
G75*
G02*
X130137498Y-68200000I249998J0D01*
G01*
X130662502Y-68200000D01*
G75*
G02*
X130912500Y-68449998I0J-249998D01*
G01*
X130912500Y-69350002D01*
G75*
G02*
X130662502Y-69600000I-249998J0D01*
G01*
X130137498Y-69600000D01*
G75*
G02*
X129887500Y-69350002I0J249998D01*
G01*
G37*
G36*
G01*
X128062500Y-69350002D02*
X128062500Y-68449998D01*
G75*
G02*
X128312498Y-68200000I249998J0D01*
G01*
X128837502Y-68200000D01*
G75*
G02*
X129087500Y-68449998I0J-249998D01*
G01*
X129087500Y-69350002D01*
G75*
G02*
X128837502Y-69600000I-249998J0D01*
G01*
X128312498Y-69600000D01*
G75*
G02*
X128062500Y-69350002I0J249998D01*
G01*
G37*
G36*
G01*
X113812500Y-59149998D02*
X113812500Y-60050002D01*
G75*
G02*
X113562502Y-60300000I-249998J0D01*
G01*
X113037498Y-60300000D01*
G75*
G02*
X112787500Y-60050002I0J249998D01*
G01*
X112787500Y-59149998D01*
G75*
G02*
X113037498Y-58900000I249998J0D01*
G01*
X113562502Y-58900000D01*
G75*
G02*
X113812500Y-59149998I0J-249998D01*
G01*
G37*
G36*
G01*
X115637500Y-59149998D02*
X115637500Y-60050002D01*
G75*
G02*
X115387502Y-60300000I-249998J0D01*
G01*
X114862498Y-60300000D01*
G75*
G02*
X114612500Y-60050002I0J249998D01*
G01*
X114612500Y-59149998D01*
G75*
G02*
X114862498Y-58900000I249998J0D01*
G01*
X115387502Y-58900000D01*
G75*
G02*
X115637500Y-59149998I0J-249998D01*
G01*
G37*
G36*
G01*
X119349998Y-87212500D02*
X120250002Y-87212500D01*
G75*
G02*
X120500000Y-87462498I0J-249998D01*
G01*
X120500000Y-87987502D01*
G75*
G02*
X120250002Y-88237500I-249998J0D01*
G01*
X119349998Y-88237500D01*
G75*
G02*
X119100000Y-87987502I0J249998D01*
G01*
X119100000Y-87462498D01*
G75*
G02*
X119349998Y-87212500I249998J0D01*
G01*
G37*
G36*
G01*
X119349998Y-85387500D02*
X120250002Y-85387500D01*
G75*
G02*
X120500000Y-85637498I0J-249998D01*
G01*
X120500000Y-86162502D01*
G75*
G02*
X120250002Y-86412500I-249998J0D01*
G01*
X119349998Y-86412500D01*
G75*
G02*
X119100000Y-86162502I0J249998D01*
G01*
X119100000Y-85637498D01*
G75*
G02*
X119349998Y-85387500I249998J0D01*
G01*
G37*
G36*
G01*
X105490000Y-64405000D02*
X106990000Y-64405000D01*
G75*
G02*
X107060000Y-64475000I0J-70000D01*
G01*
X107060000Y-65025000D01*
G75*
G02*
X106990000Y-65095000I-70000J0D01*
G01*
X105490000Y-65095000D01*
G75*
G02*
X105420000Y-65025000I0J70000D01*
G01*
X105420000Y-64475000D01*
G75*
G02*
X105490000Y-64405000I70000J0D01*
G01*
G37*
G36*
G01*
X105490000Y-65675000D02*
X106990000Y-65675000D01*
G75*
G02*
X107060000Y-65745000I0J-70000D01*
G01*
X107060000Y-66295000D01*
G75*
G02*
X106990000Y-66365000I-70000J0D01*
G01*
X105490000Y-66365000D01*
G75*
G02*
X105420000Y-66295000I0J70000D01*
G01*
X105420000Y-65745000D01*
G75*
G02*
X105490000Y-65675000I70000J0D01*
G01*
G37*
G36*
G01*
X105490000Y-66945000D02*
X106990000Y-66945000D01*
G75*
G02*
X107060000Y-67015000I0J-70000D01*
G01*
X107060000Y-67565000D01*
G75*
G02*
X106990000Y-67635000I-70000J0D01*
G01*
X105490000Y-67635000D01*
G75*
G02*
X105420000Y-67565000I0J70000D01*
G01*
X105420000Y-67015000D01*
G75*
G02*
X105490000Y-66945000I70000J0D01*
G01*
G37*
G36*
G01*
X105490000Y-68215000D02*
X106990000Y-68215000D01*
G75*
G02*
X107060000Y-68285000I0J-70000D01*
G01*
X107060000Y-68835000D01*
G75*
G02*
X106990000Y-68905000I-70000J0D01*
G01*
X105490000Y-68905000D01*
G75*
G02*
X105420000Y-68835000I0J70000D01*
G01*
X105420000Y-68285000D01*
G75*
G02*
X105490000Y-68215000I70000J0D01*
G01*
G37*
G36*
G01*
X105490000Y-69485000D02*
X106990000Y-69485000D01*
G75*
G02*
X107060000Y-69555000I0J-70000D01*
G01*
X107060000Y-70105000D01*
G75*
G02*
X106990000Y-70175000I-70000J0D01*
G01*
X105490000Y-70175000D01*
G75*
G02*
X105420000Y-70105000I0J70000D01*
G01*
X105420000Y-69555000D01*
G75*
G02*
X105490000Y-69485000I70000J0D01*
G01*
G37*
G36*
G01*
X105490000Y-70755000D02*
X106990000Y-70755000D01*
G75*
G02*
X107060000Y-70825000I0J-70000D01*
G01*
X107060000Y-71375000D01*
G75*
G02*
X106990000Y-71445000I-70000J0D01*
G01*
X105490000Y-71445000D01*
G75*
G02*
X105420000Y-71375000I0J70000D01*
G01*
X105420000Y-70825000D01*
G75*
G02*
X105490000Y-70755000I70000J0D01*
G01*
G37*
G36*
G01*
X105490000Y-72025000D02*
X106990000Y-72025000D01*
G75*
G02*
X107060000Y-72095000I0J-70000D01*
G01*
X107060000Y-72645000D01*
G75*
G02*
X106990000Y-72715000I-70000J0D01*
G01*
X105490000Y-72715000D01*
G75*
G02*
X105420000Y-72645000I0J70000D01*
G01*
X105420000Y-72095000D01*
G75*
G02*
X105490000Y-72025000I70000J0D01*
G01*
G37*
G36*
G01*
X110890000Y-72025000D02*
X112390000Y-72025000D01*
G75*
G02*
X112460000Y-72095000I0J-70000D01*
G01*
X112460000Y-72645000D01*
G75*
G02*
X112390000Y-72715000I-70000J0D01*
G01*
X110890000Y-72715000D01*
G75*
G02*
X110820000Y-72645000I0J70000D01*
G01*
X110820000Y-72095000D01*
G75*
G02*
X110890000Y-72025000I70000J0D01*
G01*
G37*
G36*
G01*
X110890000Y-70755000D02*
X112390000Y-70755000D01*
G75*
G02*
X112460000Y-70825000I0J-70000D01*
G01*
X112460000Y-71375000D01*
G75*
G02*
X112390000Y-71445000I-70000J0D01*
G01*
X110890000Y-71445000D01*
G75*
G02*
X110820000Y-71375000I0J70000D01*
G01*
X110820000Y-70825000D01*
G75*
G02*
X110890000Y-70755000I70000J0D01*
G01*
G37*
G36*
G01*
X110890000Y-69485000D02*
X112390000Y-69485000D01*
G75*
G02*
X112460000Y-69555000I0J-70000D01*
G01*
X112460000Y-70105000D01*
G75*
G02*
X112390000Y-70175000I-70000J0D01*
G01*
X110890000Y-70175000D01*
G75*
G02*
X110820000Y-70105000I0J70000D01*
G01*
X110820000Y-69555000D01*
G75*
G02*
X110890000Y-69485000I70000J0D01*
G01*
G37*
G36*
G01*
X110890000Y-68215000D02*
X112390000Y-68215000D01*
G75*
G02*
X112460000Y-68285000I0J-70000D01*
G01*
X112460000Y-68835000D01*
G75*
G02*
X112390000Y-68905000I-70000J0D01*
G01*
X110890000Y-68905000D01*
G75*
G02*
X110820000Y-68835000I0J70000D01*
G01*
X110820000Y-68285000D01*
G75*
G02*
X110890000Y-68215000I70000J0D01*
G01*
G37*
G36*
G01*
X110890000Y-66945000D02*
X112390000Y-66945000D01*
G75*
G02*
X112460000Y-67015000I0J-70000D01*
G01*
X112460000Y-67565000D01*
G75*
G02*
X112390000Y-67635000I-70000J0D01*
G01*
X110890000Y-67635000D01*
G75*
G02*
X110820000Y-67565000I0J70000D01*
G01*
X110820000Y-67015000D01*
G75*
G02*
X110890000Y-66945000I70000J0D01*
G01*
G37*
G36*
G01*
X110890000Y-65675000D02*
X112390000Y-65675000D01*
G75*
G02*
X112460000Y-65745000I0J-70000D01*
G01*
X112460000Y-66295000D01*
G75*
G02*
X112390000Y-66365000I-70000J0D01*
G01*
X110890000Y-66365000D01*
G75*
G02*
X110820000Y-66295000I0J70000D01*
G01*
X110820000Y-65745000D01*
G75*
G02*
X110890000Y-65675000I70000J0D01*
G01*
G37*
G36*
G01*
X110890000Y-64405000D02*
X112390000Y-64405000D01*
G75*
G02*
X112460000Y-64475000I0J-70000D01*
G01*
X112460000Y-65025000D01*
G75*
G02*
X112390000Y-65095000I-70000J0D01*
G01*
X110890000Y-65095000D01*
G75*
G02*
X110820000Y-65025000I0J70000D01*
G01*
X110820000Y-64475000D01*
G75*
G02*
X110890000Y-64405000I70000J0D01*
G01*
G37*
G36*
G01*
X130999998Y-85887500D02*
X131900002Y-85887500D01*
G75*
G02*
X132150000Y-86137498I0J-249998D01*
G01*
X132150000Y-86662502D01*
G75*
G02*
X131900002Y-86912500I-249998J0D01*
G01*
X130999998Y-86912500D01*
G75*
G02*
X130750000Y-86662502I0J249998D01*
G01*
X130750000Y-86137498D01*
G75*
G02*
X130999998Y-85887500I249998J0D01*
G01*
G37*
G36*
G01*
X130999998Y-84062500D02*
X131900002Y-84062500D01*
G75*
G02*
X132150000Y-84312498I0J-249998D01*
G01*
X132150000Y-84837502D01*
G75*
G02*
X131900002Y-85087500I-249998J0D01*
G01*
X130999998Y-85087500D01*
G75*
G02*
X130750000Y-84837502I0J249998D01*
G01*
X130750000Y-84312498D01*
G75*
G02*
X130999998Y-84062500I249998J0D01*
G01*
G37*
G36*
G01*
X120687500Y-65950002D02*
X120687500Y-65049998D01*
G75*
G02*
X120937498Y-64800000I249998J0D01*
G01*
X121462502Y-64800000D01*
G75*
G02*
X121712500Y-65049998I0J-249998D01*
G01*
X121712500Y-65950002D01*
G75*
G02*
X121462502Y-66200000I-249998J0D01*
G01*
X120937498Y-66200000D01*
G75*
G02*
X120687500Y-65950002I0J249998D01*
G01*
G37*
G36*
G01*
X118862500Y-65950002D02*
X118862500Y-65049998D01*
G75*
G02*
X119112498Y-64800000I249998J0D01*
G01*
X119637502Y-64800000D01*
G75*
G02*
X119887500Y-65049998I0J-249998D01*
G01*
X119887500Y-65950002D01*
G75*
G02*
X119637502Y-66200000I-249998J0D01*
G01*
X119112498Y-66200000D01*
G75*
G02*
X118862500Y-65950002I0J249998D01*
G01*
G37*
G36*
G01*
X135087500Y-64999998D02*
X135087500Y-65900002D01*
G75*
G02*
X134837502Y-66150000I-249998J0D01*
G01*
X134312498Y-66150000D01*
G75*
G02*
X134062500Y-65900002I0J249998D01*
G01*
X134062500Y-64999998D01*
G75*
G02*
X134312498Y-64750000I249998J0D01*
G01*
X134837502Y-64750000D01*
G75*
G02*
X135087500Y-64999998I0J-249998D01*
G01*
G37*
G36*
G01*
X136912500Y-64999998D02*
X136912500Y-65900002D01*
G75*
G02*
X136662502Y-66150000I-249998J0D01*
G01*
X136137498Y-66150000D01*
G75*
G02*
X135887500Y-65900002I0J249998D01*
G01*
X135887500Y-64999998D01*
G75*
G02*
X136137498Y-64750000I249998J0D01*
G01*
X136662502Y-64750000D01*
G75*
G02*
X136912500Y-64999998I0J-249998D01*
G01*
G37*
G36*
G01*
X103487500Y-73110002D02*
X103487500Y-72209998D01*
G75*
G02*
X103737498Y-71960000I249998J0D01*
G01*
X104262502Y-71960000D01*
G75*
G02*
X104512500Y-72209998I0J-249998D01*
G01*
X104512500Y-73110002D01*
G75*
G02*
X104262502Y-73360000I-249998J0D01*
G01*
X103737498Y-73360000D01*
G75*
G02*
X103487500Y-73110002I0J249998D01*
G01*
G37*
G36*
G01*
X101662500Y-73110002D02*
X101662500Y-72209998D01*
G75*
G02*
X101912498Y-71960000I249998J0D01*
G01*
X102437502Y-71960000D01*
G75*
G02*
X102687500Y-72209998I0J-249998D01*
G01*
X102687500Y-73110002D01*
G75*
G02*
X102437502Y-73360000I-249998J0D01*
G01*
X101912498Y-73360000D01*
G75*
G02*
X101662500Y-73110002I0J249998D01*
G01*
G37*
G36*
G01*
X114627500Y-62510002D02*
X114627500Y-61609998D01*
G75*
G02*
X114877498Y-61360000I249998J0D01*
G01*
X115402502Y-61360000D01*
G75*
G02*
X115652500Y-61609998I0J-249998D01*
G01*
X115652500Y-62510002D01*
G75*
G02*
X115402502Y-62760000I-249998J0D01*
G01*
X114877498Y-62760000D01*
G75*
G02*
X114627500Y-62510002I0J249998D01*
G01*
G37*
G36*
G01*
X112802500Y-62510002D02*
X112802500Y-61609998D01*
G75*
G02*
X113052498Y-61360000I249998J0D01*
G01*
X113577502Y-61360000D01*
G75*
G02*
X113827500Y-61609998I0J-249998D01*
G01*
X113827500Y-62510002D01*
G75*
G02*
X113577502Y-62760000I-249998J0D01*
G01*
X113052498Y-62760000D01*
G75*
G02*
X112802500Y-62510002I0J249998D01*
G01*
G37*
G36*
G01*
X116849998Y-87287500D02*
X117750002Y-87287500D01*
G75*
G02*
X118000000Y-87537498I0J-249998D01*
G01*
X118000000Y-88062502D01*
G75*
G02*
X117750002Y-88312500I-249998J0D01*
G01*
X116849998Y-88312500D01*
G75*
G02*
X116600000Y-88062502I0J249998D01*
G01*
X116600000Y-87537498D01*
G75*
G02*
X116849998Y-87287500I249998J0D01*
G01*
G37*
G36*
G01*
X116849998Y-85462500D02*
X117750002Y-85462500D01*
G75*
G02*
X118000000Y-85712498I0J-249998D01*
G01*
X118000000Y-86237502D01*
G75*
G02*
X117750002Y-86487500I-249998J0D01*
G01*
X116849998Y-86487500D01*
G75*
G02*
X116600000Y-86237502I0J249998D01*
G01*
X116600000Y-85712498D01*
G75*
G02*
X116849998Y-85462500I249998J0D01*
G01*
G37*
G36*
G01*
X114852500Y-72710002D02*
X114852500Y-71809998D01*
G75*
G02*
X115102498Y-71560000I249998J0D01*
G01*
X115627502Y-71560000D01*
G75*
G02*
X115877500Y-71809998I0J-249998D01*
G01*
X115877500Y-72710002D01*
G75*
G02*
X115627502Y-72960000I-249998J0D01*
G01*
X115102498Y-72960000D01*
G75*
G02*
X114852500Y-72710002I0J249998D01*
G01*
G37*
G36*
G01*
X113027500Y-72710002D02*
X113027500Y-71809998D01*
G75*
G02*
X113277498Y-71560000I249998J0D01*
G01*
X113802502Y-71560000D01*
G75*
G02*
X114052500Y-71809998I0J-249998D01*
G01*
X114052500Y-72710002D01*
G75*
G02*
X113802502Y-72960000I-249998J0D01*
G01*
X113277498Y-72960000D01*
G75*
G02*
X113027500Y-72710002I0J249998D01*
G01*
G37*
G36*
G01*
X134087500Y-91350002D02*
X134087500Y-90449998D01*
G75*
G02*
X134337498Y-90200000I249998J0D01*
G01*
X134862502Y-90200000D01*
G75*
G02*
X135112500Y-90449998I0J-249998D01*
G01*
X135112500Y-91350002D01*
G75*
G02*
X134862502Y-91600000I-249998J0D01*
G01*
X134337498Y-91600000D01*
G75*
G02*
X134087500Y-91350002I0J249998D01*
G01*
G37*
G36*
G01*
X132262500Y-91350002D02*
X132262500Y-90449998D01*
G75*
G02*
X132512498Y-90200000I249998J0D01*
G01*
X133037502Y-90200000D01*
G75*
G02*
X133287500Y-90449998I0J-249998D01*
G01*
X133287500Y-91350002D01*
G75*
G02*
X133037502Y-91600000I-249998J0D01*
G01*
X132512498Y-91600000D01*
G75*
G02*
X132262500Y-91350002I0J249998D01*
G01*
G37*
G36*
G01*
X133387500Y-62949998D02*
X133387500Y-63850002D01*
G75*
G02*
X133137502Y-64100000I-249998J0D01*
G01*
X132612498Y-64100000D01*
G75*
G02*
X132362500Y-63850002I0J249998D01*
G01*
X132362500Y-62949998D01*
G75*
G02*
X132612498Y-62700000I249998J0D01*
G01*
X133137502Y-62700000D01*
G75*
G02*
X133387500Y-62949998I0J-249998D01*
G01*
G37*
G36*
G01*
X135212500Y-62949998D02*
X135212500Y-63850002D01*
G75*
G02*
X134962502Y-64100000I-249998J0D01*
G01*
X134437498Y-64100000D01*
G75*
G02*
X134187500Y-63850002I0J249998D01*
G01*
X134187500Y-62949998D01*
G75*
G02*
X134437498Y-62700000I249998J0D01*
G01*
X134962502Y-62700000D01*
G75*
G02*
X135212500Y-62949998I0J-249998D01*
G01*
G37*
G36*
G01*
X109850002Y-61500000D02*
X108949998Y-61500000D01*
G75*
G02*
X108700000Y-61250002I0J249998D01*
G01*
X108700000Y-60724998D01*
G75*
G02*
X108949998Y-60475000I249998J0D01*
G01*
X109850002Y-60475000D01*
G75*
G02*
X110100000Y-60724998I0J-249998D01*
G01*
X110100000Y-61250002D01*
G75*
G02*
X109850002Y-61500000I-249998J0D01*
G01*
G37*
G36*
G01*
X109850002Y-63325000D02*
X108949998Y-63325000D01*
G75*
G02*
X108700000Y-63075002I0J249998D01*
G01*
X108700000Y-62549998D01*
G75*
G02*
X108949998Y-62300000I249998J0D01*
G01*
X109850002Y-62300000D01*
G75*
G02*
X110100000Y-62549998I0J-249998D01*
G01*
X110100000Y-63075002D01*
G75*
G02*
X109850002Y-63325000I-249998J0D01*
G01*
G37*
G36*
G01*
X129750002Y-85012500D02*
X128849998Y-85012500D01*
G75*
G02*
X128600000Y-84762502I0J249998D01*
G01*
X128600000Y-84237498D01*
G75*
G02*
X128849998Y-83987500I249998J0D01*
G01*
X129750002Y-83987500D01*
G75*
G02*
X130000000Y-84237498I0J-249998D01*
G01*
X130000000Y-84762502D01*
G75*
G02*
X129750002Y-85012500I-249998J0D01*
G01*
G37*
G36*
G01*
X129750002Y-86837500D02*
X128849998Y-86837500D01*
G75*
G02*
X128600000Y-86587502I0J249998D01*
G01*
X128600000Y-86062498D01*
G75*
G02*
X128849998Y-85812500I249998J0D01*
G01*
X129750002Y-85812500D01*
G75*
G02*
X130000000Y-86062498I0J-249998D01*
G01*
X130000000Y-86587502D01*
G75*
G02*
X129750002Y-86837500I-249998J0D01*
G01*
G37*
G36*
G01*
X138450002Y-80912500D02*
X137549998Y-80912500D01*
G75*
G02*
X137300000Y-80662502I0J249998D01*
G01*
X137300000Y-80137498D01*
G75*
G02*
X137549998Y-79887500I249998J0D01*
G01*
X138450002Y-79887500D01*
G75*
G02*
X138700000Y-80137498I0J-249998D01*
G01*
X138700000Y-80662502D01*
G75*
G02*
X138450002Y-80912500I-249998J0D01*
G01*
G37*
G36*
G01*
X138450002Y-82737500D02*
X137549998Y-82737500D01*
G75*
G02*
X137300000Y-82487502I0J249998D01*
G01*
X137300000Y-81962498D01*
G75*
G02*
X137549998Y-81712500I249998J0D01*
G01*
X138450002Y-81712500D01*
G75*
G02*
X138700000Y-81962498I0J-249998D01*
G01*
X138700000Y-82487502D01*
G75*
G02*
X138450002Y-82737500I-249998J0D01*
G01*
G37*
G36*
G01*
X109850002Y-86612500D02*
X108949998Y-86612500D01*
G75*
G02*
X108700000Y-86362502I0J249998D01*
G01*
X108700000Y-85837498D01*
G75*
G02*
X108949998Y-85587500I249998J0D01*
G01*
X109850002Y-85587500D01*
G75*
G02*
X110100000Y-85837498I0J-249998D01*
G01*
X110100000Y-86362502D01*
G75*
G02*
X109850002Y-86612500I-249998J0D01*
G01*
G37*
G36*
G01*
X109850002Y-88437500D02*
X108949998Y-88437500D01*
G75*
G02*
X108700000Y-88187502I0J249998D01*
G01*
X108700000Y-87662498D01*
G75*
G02*
X108949998Y-87412500I249998J0D01*
G01*
X109850002Y-87412500D01*
G75*
G02*
X110100000Y-87662498I0J-249998D01*
G01*
X110100000Y-88187502D01*
G75*
G02*
X109850002Y-88437500I-249998J0D01*
G01*
G37*
G36*
G01*
X131587500Y-64999998D02*
X131587500Y-65900002D01*
G75*
G02*
X131337502Y-66150000I-249998J0D01*
G01*
X130812498Y-66150000D01*
G75*
G02*
X130562500Y-65900002I0J249998D01*
G01*
X130562500Y-64999998D01*
G75*
G02*
X130812498Y-64750000I249998J0D01*
G01*
X131337502Y-64750000D01*
G75*
G02*
X131587500Y-64999998I0J-249998D01*
G01*
G37*
G36*
G01*
X133412500Y-64999998D02*
X133412500Y-65900002D01*
G75*
G02*
X133162502Y-66150000I-249998J0D01*
G01*
X132637498Y-66150000D01*
G75*
G02*
X132387500Y-65900002I0J249998D01*
G01*
X132387500Y-64999998D01*
G75*
G02*
X132637498Y-64750000I249998J0D01*
G01*
X133162502Y-64750000D01*
G75*
G02*
X133412500Y-64999998I0J-249998D01*
G01*
G37*
G36*
G01*
X134087500Y-88850002D02*
X134087500Y-87949998D01*
G75*
G02*
X134337498Y-87700000I249998J0D01*
G01*
X134862502Y-87700000D01*
G75*
G02*
X135112500Y-87949998I0J-249998D01*
G01*
X135112500Y-88850002D01*
G75*
G02*
X134862502Y-89100000I-249998J0D01*
G01*
X134337498Y-89100000D01*
G75*
G02*
X134087500Y-88850002I0J249998D01*
G01*
G37*
G36*
G01*
X132262500Y-88850002D02*
X132262500Y-87949998D01*
G75*
G02*
X132512498Y-87700000I249998J0D01*
G01*
X133037502Y-87700000D01*
G75*
G02*
X133287500Y-87949998I0J-249998D01*
G01*
X133287500Y-88850002D01*
G75*
G02*
X133037502Y-89100000I-249998J0D01*
G01*
X132512498Y-89100000D01*
G75*
G02*
X132262500Y-88850002I0J249998D01*
G01*
G37*
G36*
G01*
X120549998Y-63112500D02*
X121450002Y-63112500D01*
G75*
G02*
X121700000Y-63362498I0J-249998D01*
G01*
X121700000Y-63887502D01*
G75*
G02*
X121450002Y-64137500I-249998J0D01*
G01*
X120549998Y-64137500D01*
G75*
G02*
X120300000Y-63887502I0J249998D01*
G01*
X120300000Y-63362498D01*
G75*
G02*
X120549998Y-63112500I249998J0D01*
G01*
G37*
G36*
G01*
X120549998Y-61287500D02*
X121450002Y-61287500D01*
G75*
G02*
X121700000Y-61537498I0J-249998D01*
G01*
X121700000Y-62062502D01*
G75*
G02*
X121450002Y-62312500I-249998J0D01*
G01*
X120549998Y-62312500D01*
G75*
G02*
X120300000Y-62062502I0J249998D01*
G01*
X120300000Y-61537498D01*
G75*
G02*
X120549998Y-61287500I249998J0D01*
G01*
G37*
M02*
