%FSLAX45Y45*%
G04 Gerber Fmt 4.5, Leading zero omitted, Abs format (unit mm)*
G04 Created by KiCad (PCBNEW (5.1.8)-1) date 2022-11-19 17:46:05*
%MOMM*%
%LPD*%
G01*
G04 APERTURE LIST*
%TA.AperFunction,Profile*%
%ADD10C,0.100000*%
%TD*%
%ADD11C,0.200000*%
%ADD12C,0.300000*%
G04 APERTURE END LIST*
D10*
X15000000Y-5000000D02*
X15000000Y-10000000D01*
X10000000Y-5000000D02*
X15000000Y-5000000D01*
X10000000Y-10000000D02*
X10000000Y-5000000D01*
X15000000Y-10000000D02*
X10000000Y-10000000D01*
D11*
X14440000Y-9440000D02*
X14760000Y-9760000D01*
X14760000Y-9440000D02*
X14440000Y-9760000D01*
X10340000Y-5240000D02*
X10660000Y-5560000D01*
X10660000Y-5240000D02*
X10340000Y-5560000D01*
X14340000Y-5240000D02*
X14660000Y-5560000D01*
X14660000Y-5240000D02*
X14340000Y-5560000D01*
X10240000Y-9440000D02*
X10560000Y-9760000D01*
X10560000Y-9440000D02*
X10240000Y-9760000D01*
D12*
X10281428Y-10470714D02*
X10281428Y-10170714D01*
X10352857Y-10170714D01*
X10395714Y-10185000D01*
X10424286Y-10213572D01*
X10438571Y-10242143D01*
X10452857Y-10299286D01*
X10452857Y-10342143D01*
X10438571Y-10399286D01*
X10424286Y-10427857D01*
X10395714Y-10456429D01*
X10352857Y-10470714D01*
X10281428Y-10470714D01*
X10581428Y-10470714D02*
X10581428Y-10270714D01*
X10581428Y-10327857D02*
X10595714Y-10299286D01*
X10610000Y-10285000D01*
X10638571Y-10270714D01*
X10667143Y-10270714D01*
X10767143Y-10470714D02*
X10767143Y-10270714D01*
X10767143Y-10170714D02*
X10752857Y-10185000D01*
X10767143Y-10199286D01*
X10781428Y-10185000D01*
X10767143Y-10170714D01*
X10767143Y-10199286D01*
X10952857Y-10470714D02*
X10924286Y-10456429D01*
X10910000Y-10427857D01*
X10910000Y-10170714D01*
X11110000Y-10470714D02*
X11081428Y-10456429D01*
X11067143Y-10427857D01*
X11067143Y-10170714D01*
X11452857Y-10470714D02*
X11452857Y-10170714D01*
X11552857Y-10385000D01*
X11652857Y-10170714D01*
X11652857Y-10470714D01*
X11924286Y-10470714D02*
X11924286Y-10313572D01*
X11910000Y-10285000D01*
X11881428Y-10270714D01*
X11824286Y-10270714D01*
X11795714Y-10285000D01*
X11924286Y-10456429D02*
X11895714Y-10470714D01*
X11824286Y-10470714D01*
X11795714Y-10456429D01*
X11781428Y-10427857D01*
X11781428Y-10399286D01*
X11795714Y-10370714D01*
X11824286Y-10356429D01*
X11895714Y-10356429D01*
X11924286Y-10342143D01*
X12067143Y-10270714D02*
X12067143Y-10570714D01*
X12067143Y-10285000D02*
X12095714Y-10270714D01*
X12152857Y-10270714D01*
X12181428Y-10285000D01*
X12195714Y-10299286D01*
X12210000Y-10327857D01*
X12210000Y-10413572D01*
X12195714Y-10442143D01*
X12181428Y-10456429D01*
X12152857Y-10470714D01*
X12095714Y-10470714D01*
X12067143Y-10456429D01*
X12338571Y-10442143D02*
X12352857Y-10456429D01*
X12338571Y-10470714D01*
X12324286Y-10456429D01*
X12338571Y-10442143D01*
X12338571Y-10470714D01*
X12338571Y-10285000D02*
X12352857Y-10299286D01*
X12338571Y-10313572D01*
X12324286Y-10299286D01*
X12338571Y-10285000D01*
X12338571Y-10313572D01*
X9675000Y-10805000D02*
X9995000Y-11125000D01*
X9995000Y-10805000D02*
X9675000Y-11125000D01*
X10252857Y-10800714D02*
X10438571Y-10800714D01*
X10338571Y-10915000D01*
X10381428Y-10915000D01*
X10410000Y-10929286D01*
X10424286Y-10943572D01*
X10438571Y-10972143D01*
X10438571Y-11043572D01*
X10424286Y-11072143D01*
X10410000Y-11086429D01*
X10381428Y-11100714D01*
X10295714Y-11100714D01*
X10267143Y-11086429D01*
X10252857Y-11072143D01*
X10567143Y-11072143D02*
X10581428Y-11086429D01*
X10567143Y-11100714D01*
X10552857Y-11086429D01*
X10567143Y-11072143D01*
X10567143Y-11100714D01*
X10695714Y-10829286D02*
X10710000Y-10815000D01*
X10738571Y-10800714D01*
X10810000Y-10800714D01*
X10838571Y-10815000D01*
X10852857Y-10829286D01*
X10867143Y-10857857D01*
X10867143Y-10886429D01*
X10852857Y-10929286D01*
X10681428Y-11100714D01*
X10867143Y-11100714D01*
X11052857Y-10800714D02*
X11081428Y-10800714D01*
X11110000Y-10815000D01*
X11124286Y-10829286D01*
X11138571Y-10857857D01*
X11152857Y-10915000D01*
X11152857Y-10986429D01*
X11138571Y-11043572D01*
X11124286Y-11072143D01*
X11110000Y-11086429D01*
X11081428Y-11100714D01*
X11052857Y-11100714D01*
X11024286Y-11086429D01*
X11010000Y-11072143D01*
X10995714Y-11043572D01*
X10981428Y-10986429D01*
X10981428Y-10915000D01*
X10995714Y-10857857D01*
X11010000Y-10829286D01*
X11024286Y-10815000D01*
X11052857Y-10800714D01*
X11281428Y-11100714D02*
X11281428Y-10900714D01*
X11281428Y-10929286D02*
X11295714Y-10915000D01*
X11324286Y-10900714D01*
X11367143Y-10900714D01*
X11395714Y-10915000D01*
X11410000Y-10943572D01*
X11410000Y-11100714D01*
X11410000Y-10943572D02*
X11424286Y-10915000D01*
X11452857Y-10900714D01*
X11495714Y-10900714D01*
X11524286Y-10915000D01*
X11538571Y-10943572D01*
X11538571Y-11100714D01*
X11681428Y-11100714D02*
X11681428Y-10900714D01*
X11681428Y-10929286D02*
X11695714Y-10915000D01*
X11724286Y-10900714D01*
X11767143Y-10900714D01*
X11795714Y-10915000D01*
X11810000Y-10943572D01*
X11810000Y-11100714D01*
X11810000Y-10943572D02*
X11824286Y-10915000D01*
X11852857Y-10900714D01*
X11895714Y-10900714D01*
X11924286Y-10915000D01*
X11938571Y-10943572D01*
X11938571Y-11100714D01*
X12524286Y-10786429D02*
X12267143Y-11172143D01*
X12910000Y-10800714D02*
X12938571Y-10800714D01*
X12967143Y-10815000D01*
X12981428Y-10829286D01*
X12995714Y-10857857D01*
X13010000Y-10915000D01*
X13010000Y-10986429D01*
X12995714Y-11043572D01*
X12981428Y-11072143D01*
X12967143Y-11086429D01*
X12938571Y-11100714D01*
X12910000Y-11100714D01*
X12881428Y-11086429D01*
X12867143Y-11072143D01*
X12852857Y-11043572D01*
X12838571Y-10986429D01*
X12838571Y-10915000D01*
X12852857Y-10857857D01*
X12867143Y-10829286D01*
X12881428Y-10815000D01*
X12910000Y-10800714D01*
X13138571Y-11072143D02*
X13152857Y-11086429D01*
X13138571Y-11100714D01*
X13124286Y-11086429D01*
X13138571Y-11072143D01*
X13138571Y-11100714D01*
X13438571Y-11100714D02*
X13267143Y-11100714D01*
X13352857Y-11100714D02*
X13352857Y-10800714D01*
X13324286Y-10843572D01*
X13295714Y-10872143D01*
X13267143Y-10886429D01*
X13552857Y-10829286D02*
X13567143Y-10815000D01*
X13595714Y-10800714D01*
X13667143Y-10800714D01*
X13695714Y-10815000D01*
X13710000Y-10829286D01*
X13724286Y-10857857D01*
X13724286Y-10886429D01*
X13710000Y-10929286D01*
X13538571Y-11100714D01*
X13724286Y-11100714D01*
X13981428Y-10800714D02*
X13924286Y-10800714D01*
X13895714Y-10815000D01*
X13881428Y-10829286D01*
X13852857Y-10872143D01*
X13838571Y-10929286D01*
X13838571Y-11043572D01*
X13852857Y-11072143D01*
X13867143Y-11086429D01*
X13895714Y-11100714D01*
X13952857Y-11100714D01*
X13981428Y-11086429D01*
X13995714Y-11072143D01*
X14010000Y-11043572D01*
X14010000Y-10972143D01*
X13995714Y-10943572D01*
X13981428Y-10929286D01*
X13952857Y-10915000D01*
X13895714Y-10915000D01*
X13867143Y-10929286D01*
X13852857Y-10943572D01*
X13838571Y-10972143D01*
X14124286Y-10800714D02*
X14124286Y-10857857D01*
X14238571Y-10800714D02*
X14238571Y-10857857D01*
X14681428Y-11215000D02*
X14667143Y-11200714D01*
X14638571Y-11157857D01*
X14624286Y-11129286D01*
X14610000Y-11086429D01*
X14595714Y-11015000D01*
X14595714Y-10957857D01*
X14610000Y-10886429D01*
X14624286Y-10843572D01*
X14638571Y-10815000D01*
X14667143Y-10772143D01*
X14681428Y-10757857D01*
X14924286Y-10900714D02*
X14924286Y-11100714D01*
X14852857Y-10786429D02*
X14781428Y-11000714D01*
X14967143Y-11000714D01*
X15310000Y-11100714D02*
X15310000Y-10800714D01*
X15438571Y-11100714D02*
X15438571Y-10943572D01*
X15424286Y-10915000D01*
X15395714Y-10900714D01*
X15352857Y-10900714D01*
X15324286Y-10915000D01*
X15310000Y-10929286D01*
X15624286Y-11100714D02*
X15595714Y-11086429D01*
X15581428Y-11072143D01*
X15567143Y-11043572D01*
X15567143Y-10957857D01*
X15581428Y-10929286D01*
X15595714Y-10915000D01*
X15624286Y-10900714D01*
X15667143Y-10900714D01*
X15695714Y-10915000D01*
X15710000Y-10929286D01*
X15724286Y-10957857D01*
X15724286Y-11043572D01*
X15710000Y-11072143D01*
X15695714Y-11086429D01*
X15667143Y-11100714D01*
X15624286Y-11100714D01*
X15895714Y-11100714D02*
X15867143Y-11086429D01*
X15852857Y-11057857D01*
X15852857Y-10800714D01*
X16124286Y-11086429D02*
X16095714Y-11100714D01*
X16038571Y-11100714D01*
X16010000Y-11086429D01*
X15995714Y-11057857D01*
X15995714Y-10943572D01*
X16010000Y-10915000D01*
X16038571Y-10900714D01*
X16095714Y-10900714D01*
X16124286Y-10915000D01*
X16138571Y-10943572D01*
X16138571Y-10972143D01*
X15995714Y-11000714D01*
X16252857Y-11086429D02*
X16281428Y-11100714D01*
X16338571Y-11100714D01*
X16367143Y-11086429D01*
X16381428Y-11057857D01*
X16381428Y-11043572D01*
X16367143Y-11015000D01*
X16338571Y-11000714D01*
X16295714Y-11000714D01*
X16267143Y-10986429D01*
X16252857Y-10957857D01*
X16252857Y-10943572D01*
X16267143Y-10915000D01*
X16295714Y-10900714D01*
X16338571Y-10900714D01*
X16367143Y-10915000D01*
X16481428Y-11215000D02*
X16495714Y-11200714D01*
X16524286Y-11157857D01*
X16538571Y-11129286D01*
X16552857Y-11086429D01*
X16567143Y-11015000D01*
X16567143Y-10957857D01*
X16552857Y-10886429D01*
X16538571Y-10843572D01*
X16524286Y-10815000D01*
X16495714Y-10772143D01*
X16481428Y-10757857D01*
X17024286Y-11215000D02*
X17010000Y-11200714D01*
X16981428Y-11157857D01*
X16967143Y-11129286D01*
X16952857Y-11086429D01*
X16938571Y-11015000D01*
X16938571Y-10957857D01*
X16952857Y-10886429D01*
X16967143Y-10843572D01*
X16981428Y-10815000D01*
X17010000Y-10772143D01*
X17024286Y-10757857D01*
X17138571Y-10900714D02*
X17138571Y-11100714D01*
X17138571Y-10929286D02*
X17152857Y-10915000D01*
X17181428Y-10900714D01*
X17224286Y-10900714D01*
X17252857Y-10915000D01*
X17267143Y-10943572D01*
X17267143Y-11100714D01*
X17452857Y-11100714D02*
X17424286Y-11086429D01*
X17410000Y-11072143D01*
X17395714Y-11043572D01*
X17395714Y-10957857D01*
X17410000Y-10929286D01*
X17424286Y-10915000D01*
X17452857Y-10900714D01*
X17495714Y-10900714D01*
X17524286Y-10915000D01*
X17538571Y-10929286D01*
X17552857Y-10957857D01*
X17552857Y-11043572D01*
X17538571Y-11072143D01*
X17524286Y-11086429D01*
X17495714Y-11100714D01*
X17452857Y-11100714D01*
X17638571Y-10900714D02*
X17752857Y-10900714D01*
X17681428Y-10800714D02*
X17681428Y-11057857D01*
X17695714Y-11086429D01*
X17724286Y-11100714D01*
X17752857Y-11100714D01*
X18081428Y-10900714D02*
X18081428Y-11200714D01*
X18081428Y-10915000D02*
X18110000Y-10900714D01*
X18167143Y-10900714D01*
X18195714Y-10915000D01*
X18210000Y-10929286D01*
X18224286Y-10957857D01*
X18224286Y-11043572D01*
X18210000Y-11072143D01*
X18195714Y-11086429D01*
X18167143Y-11100714D01*
X18110000Y-11100714D01*
X18081428Y-11086429D01*
X18395714Y-11100714D02*
X18367143Y-11086429D01*
X18352857Y-11057857D01*
X18352857Y-10800714D01*
X18638571Y-11100714D02*
X18638571Y-10943572D01*
X18624286Y-10915000D01*
X18595714Y-10900714D01*
X18538571Y-10900714D01*
X18510000Y-10915000D01*
X18638571Y-11086429D02*
X18610000Y-11100714D01*
X18538571Y-11100714D01*
X18510000Y-11086429D01*
X18495714Y-11057857D01*
X18495714Y-11029286D01*
X18510000Y-11000714D01*
X18538571Y-10986429D01*
X18610000Y-10986429D01*
X18638571Y-10972143D01*
X18738571Y-10900714D02*
X18852857Y-10900714D01*
X18781428Y-10800714D02*
X18781428Y-11057857D01*
X18795714Y-11086429D01*
X18824286Y-11100714D01*
X18852857Y-11100714D01*
X19067143Y-11086429D02*
X19038571Y-11100714D01*
X18981428Y-11100714D01*
X18952857Y-11086429D01*
X18938571Y-11057857D01*
X18938571Y-10943572D01*
X18952857Y-10915000D01*
X18981428Y-10900714D01*
X19038571Y-10900714D01*
X19067143Y-10915000D01*
X19081428Y-10943572D01*
X19081428Y-10972143D01*
X18938571Y-11000714D01*
X19338571Y-11100714D02*
X19338571Y-10800714D01*
X19338571Y-11086429D02*
X19310000Y-11100714D01*
X19252857Y-11100714D01*
X19224286Y-11086429D01*
X19210000Y-11072143D01*
X19195714Y-11043572D01*
X19195714Y-10957857D01*
X19210000Y-10929286D01*
X19224286Y-10915000D01*
X19252857Y-10900714D01*
X19310000Y-10900714D01*
X19338571Y-10915000D01*
X19452857Y-11215000D02*
X19467143Y-11200714D01*
X19495714Y-11157857D01*
X19510000Y-11129286D01*
X19524286Y-11086429D01*
X19538571Y-11015000D01*
X19538571Y-10957857D01*
X19524286Y-10886429D01*
X19510000Y-10843572D01*
X19495714Y-10815000D01*
X19467143Y-10772143D01*
X19452857Y-10757857D01*
M02*
